<?xml version="1.0" standalone="no"?>
<!DOCTYPE svg PUBLIC "-//W3C//DTD SVG 20010904//EN"
 "http://www.w3.org/TR/2001/REC-SVG-20010904/DTD/svg10.dtd">
<svg version="1.0" xmlns="http://www.w3.org/2000/svg"
 width="1280.000000pt" height="720.000000pt" viewBox="0 0 1280.000000 720.000000"
 preserveAspectRatio="xMidYMid meet">

<g transform="translate(0.000000,720.000000) scale(0.100000,-0.100000)"
fill="#000000" stroke="none">
<path d="M0 3930 c0 -3263 0 -3270 20 -3270 26 0 26 -30 0 -37 -19 -5 -20 -14
-20 -314 l0 -309 499 0 500 0 -1 30 c-1 17 4 36 11 43 15 14 495 16 1455 4
439 -5 644 -11 653 -18 9 -8 17 -8 26 0 10 7 136 11 408 12 217 1 430 2 474 2
161 2 413 -8 401 -15 -6 -5 -2 -8 11 -8 12 0 23 4 25 9 2 5 55 11 119 13 88 2
116 0 116 -9 0 -7 -4 -13 -9 -13 -5 0 -6 -4 -3 -10 11 -18 40 -11 50 12 6 12
16 24 24 26 8 3 11 0 7 -7 -5 -8 9 -11 46 -9 l53 1 -45 8 c-50 8 229 3 405 -8
107 -7 111 -16 10 -23 -38 -3 -37 -4 15 -10 l55 -7 -55 -3 -55 -3 50 -7 c28
-4 564 -8 1193 -9 1014 -1 1142 0 1142 14 0 8 9 15 20 15 11 0 20 5 20 10 0 6
-7 10 -16 10 -8 0 -12 4 -9 10 4 6 108 10 278 10 221 0 277 -3 301 -15 27 -14
51 -12 41 5 -2 4 127 7 288 7 160 -1 265 -4 232 -7 l-60 -5 42 -8 c23 -5 47
-6 52 -3 5 4 12 2 15 -2 3 -5 63 -9 133 -9 70 0 110 1 88 3 -22 2 -78 7 -125
11 -84 7 -85 7 -35 14 82 12 1446 9 1405 -3 -19 -5 -52 -8 -73 -5 -31 4 -36 3
-27 -8 9 -11 3 -15 -32 -18 -25 -2 -8 -4 40 -5 62 -2 82 1 82 11 0 14 151 19
509 16 116 -1 161 2 157 10 -5 8 52 10 201 9 l208 -2 -195 -6 -195 -6 140 -2
c77 -2 183 -4 235 -5 52 -2 113 0 135 4 33 5 26 7 -40 10 -44 2 19 6 140 9
206 5 411 -2 295 -10 l-45 -3 50 -6 c29 -4 51 -11 51 -18 1 -7 2 -17 3 -23 1
-7 160 -10 456 -10 l455 0 0 318 c-1 266 -3 314 -14 299 -19 -25 -26 -21 -26
13 0 17 3 29 8 29 4 -1 13 -1 20 0 9 1 12 662 12 3271 l0 3270 -1569 0 -1569
0 1 -529 c2 -372 -1 -533 -9 -541 -15 -15 -24 256 -24 712 l0 358 -4815 0
-4815 0 0 -3270z m4245 2900 c3 -5 1 -10 -4 -10 -6 0 -11 5 -11 10 0 6 2 10 4
10 3 0 8 -4 11 -10z m-336 -254 c6 -4 11 -14 11 -22 0 -21 38 -17 45 6 13 41
34 22 37 -32 l3 -53 19 50 c10 28 22 54 26 58 15 17 38 -6 50 -49 18 -62 30
-64 30 -5 0 60 16 74 42 38 24 -32 35 -34 40 -7 7 45 23 22 26 -37 3 -70 -5
-78 -40 -38 -27 31 -38 32 -38 1 0 -20 -5 -23 -30 -22 -16 1 -35 7 -42 14 -6
6 -17 12 -23 12 -6 0 -17 -6 -23 -12 -7 -7 -26 -13 -42 -14 -24 -1 -31 3 -36
22 -8 31 -41 32 -46 2 -2 -13 -10 -23 -18 -23 -11 0 -16 13 -18 48 -3 39 -6
48 -20 45 -13 -2 -18 -16 -20 -51 -4 -59 -26 -59 -30 -1 -4 46 -25 66 -61 57
-35 -8 -51 -23 -24 -23 34 0 37 -19 6 -32 l-28 -11 28 -10 c39 -15 33 -27 -13
-27 l-40 0 0 59 c0 38 4 61 13 64 18 7 202 1 216 -7z m461 -40 c0 -34 -5 -58
-14 -66 -21 -16 -60 -9 -64 13 -3 14 2 18 20 15 20 -3 23 2 26 32 4 45 9 60
22 60 5 0 10 -24 10 -54z m-3274 -128 c4 -4 1 -14 -6 -23 -11 -13 -10 -19 6
-36 10 -11 19 -38 20 -60 1 -22 8 -46 14 -54 10 -12 7 -18 -18 -32 -24 -14
-30 -23 -26 -40 10 -37 -5 -45 -29 -17 -21 25 -24 25 -52 10 -17 -8 -39 -18
-50 -21 -19 -6 -18 -8 8 -21 34 -18 35 -34 2 -34 -14 0 -28 -7 -32 -16 -3 -8
-12 -13 -19 -10 -17 7 -19 -20 -2 -30 7 -5 25 -7 41 -6 19 2 34 -4 43 -15 10
-14 15 -16 25 -5 7 6 23 12 35 12 17 0 23 8 29 38 l8 37 8 -38 c5 -21 16 -45
24 -53 8 -9 20 -24 26 -35 10 -19 33 -237 30 -288 -1 -29 -27 -60 -58 -72 -19
-7 -23 -16 -23 -48 0 -22 -4 -42 -9 -45 -10 -7 -21 17 -21 46 0 12 -8 27 -17
34 -21 16 -53 18 -53 4 0 -5 -12 -13 -26 -16 -37 -9 -74 -50 -74 -82 0 -15 -5
-34 -10 -42 -18 -28 -29 4 -36 105 l-7 99 -18 -54 c-10 -30 -24 -80 -31 -110
l-12 -55 -6 35 -6 35 -8 -38 c-5 -20 -12 -40 -17 -43 -15 -9 0 -24 24 -25 12
-1 4 -5 -18 -10 -49 -10 -203 -10 -228 -1 -34 14 -43 53 -45 192 -1 74 -5 167
-8 207 -5 59 -2 82 14 125 11 29 27 78 35 108 18 67 23 270 7 270 -6 0 -9 4
-5 9 3 6 -3 14 -12 20 -17 9 -17 10 0 17 11 4 16 13 12 24 -11 35 26 51 111
48 l79 -3 9 -50 c8 -47 13 -169 17 -385 1 -60 6 -102 14 -114 8 -10 11 -24 9
-31 -4 -9 6 -12 35 -10 30 2 41 -1 44 -14 8 -40 17 242 12 408 -4 138 -2 187
7 198 10 12 33 14 119 11 59 -2 111 -6 115 -10z m1604 -9 c12 -6 10 -10 -10
-18 -21 -8 -22 -10 -5 -11 16 0 17 -2 5 -10 -17 -11 -5 -26 24 -32 37 -6 21
-23 -26 -26 l-46 -3 -6 -77 c-7 -101 -15 -359 -9 -307 2 22 8 45 13 50 5 6 9
20 9 30 0 11 5 40 11 65 6 25 15 68 19 97 7 49 16 72 25 62 2 -2 7 -128 10
-279 4 -151 9 -332 12 -401 6 -139 6 -139 -54 -144 -20 -2 -64 -6 -96 -9 -34
-3 -65 -1 -72 5 -9 7 -13 122 -14 467 -1 251 -4 478 -5 504 -3 42 -1 47 18 50
36 6 181 -4 197 -13z m7659 -49 c2 -36 5 -189 6 -340 1 -195 5 -275 14 -278
16 -5 15 -209 -1 -215 -8 -3 -6 -6 5 -6 19 -1 23 -17 5 -23 -6 -2 0 -15 16
-31 15 -15 25 -31 21 -36 -3 -5 9 -13 27 -16 42 -10 60 13 47 58 -5 18 -9 88
-9 157 0 132 -8 203 -20 195 -4 -3 -13 2 -20 10 -9 11 -9 23 1 52 6 21 16 41
20 44 15 9 23 210 11 253 -7 24 -8 44 -2 51 5 6 7 23 6 37 -2 17 4 34 15 44
14 12 19 31 19 66 l0 48 59 0 c33 0 72 -5 88 -11 15 -6 44 -11 63 -11 44 0 54
-6 40 -23 -15 -18 6 -59 25 -51 7 2 19 -2 26 -10 10 -12 14 -12 21 -2 5 8 6 3
2 -14 -4 -20 -1 -29 14 -37 23 -12 19 -51 -4 -51 -8 0 -14 -9 -14 -19 0 -14 5
-18 20 -14 15 4 20 0 20 -16 0 -25 -4 -26 -41 -4 -25 15 -31 16 -39 4 -7 -12
-12 -12 -23 -3 -12 10 -16 9 -21 -4 -5 -13 -10 -14 -18 -6 -9 9 -15 9 -25 0
-11 -9 -9 -13 9 -22 19 -10 23 -20 23 -61 0 -44 3 -50 22 -53 15 -2 26 -15 37
-45 8 -23 15 -34 15 -25 1 9 8 21 16 25 8 5 21 29 28 53 l13 45 17 -30 c13
-24 16 -26 17 -10 1 35 18 -4 25 -57 5 -32 13 -52 25 -58 10 -6 21 -26 25 -49
4 -22 13 -42 21 -45 8 -3 14 -12 14 -20 0 -14 -12 -19 -85 -40 -27 -8 -41 -18
-43 -31 -7 -45 -12 -49 -29 -26 -12 17 -18 20 -24 10 -5 -9 -11 -2 -17 22
l-10 34 -1 -35 c-1 -19 -5 -40 -9 -47 -9 -14 -98 -9 -117 7 -8 7 -26 9 -39 6
-28 -7 -37 -46 -33 -131 2 -27 1 -79 -2 -114 l-6 -64 -198 -2 c-189 -1 -199 0
-209 19 -12 22 -12 52 -4 559 3 206 8 313 16 322 9 10 6 15 -9 20 -16 5 -21
15 -21 44 0 20 5 42 12 49 16 16 98 16 98 0 0 -7 5 -5 11 5 6 11 19 17 32 15
20 -3 22 -10 26 -68z m136 60 c-3 -5 -12 -10 -20 -10 -8 0 -17 5 -20 10 -4 6
5 10 20 10 15 0 24 -4 20 -10z m-8150 -25 c3 -11 3 -237 2 -502 -1 -362 -5
-485 -14 -494 -31 -31 -35 38 -29 476 6 389 2 479 -17 448 -4 -6 -7 -61 -8
-124 -2 -134 -9 -160 -39 -152 -40 11 -53 78 -17 93 22 9 22 9 -3 9 -41 1 -50
19 -50 93 0 52 -4 70 -15 74 -10 4 -13 14 -9 29 4 16 0 26 -13 33 -12 7 -15
14 -8 20 16 16 45 20 133 19 75 -1 83 -3 87 -22z m9603 -53 c-4 -37 -7 -100
-7 -139 -1 -68 -10 -89 -27 -62 -3 6 -9 45 -11 87 -8 114 -22 124 -23 15 0
-84 -8 -111 -25 -83 -10 17 -25 11 -25 -10 0 -20 4 -21 105 -25 29 -1 30 -3
26 -41 -1 -21 -7 -45 -13 -51 -6 -7 -8 -20 -4 -29 3 -8 6 -74 7 -146 0 -103
-3 -134 -14 -146 -13 -13 -16 -12 -26 6 -11 21 -11 21 -37 -4 -13 -14 -31 -24
-38 -21 -10 4 -14 -24 -18 -129 -3 -74 -8 -138 -12 -141 -13 -13 -28 14 -18
33 5 11 6 28 1 39 -4 11 -8 73 -8 137 -1 66 -5 119 -11 123 -23 14 2 306 29
339 19 22 9 196 -12 207 -10 6 -15 23 -15 54 1 51 4 53 93 57 93 5 92 6 83
-70z m288 67 c88 -16 89 -16 73 -35 -11 -14 -10 -15 11 -12 30 4 59 -44 41
-66 -8 -10 -10 -61 -5 -167 3 -85 6 -287 7 -449 l2 -295 -69 -3 c-51 -2 -73 1
-86 13 -15 14 -18 14 -30 0 -9 -11 -16 -12 -25 -5 -13 11 -14 29 -30 660 -3
107 -8 230 -12 274 -8 103 0 108 123 85z m-9019 -61 c-2 -13 -4 -3 -4 22 0 25
2 35 4 23 2 -13 2 -33 0 -45z m-2867 4 c0 -26 5 -53 10 -58 7 -7 9 -157 7
-445 -5 -476 -4 -469 -17 -469 -19 0 -23 109 -18 512 3 230 1 418 -4 418 -9 0
-10 35 -2 68 11 38 24 24 24 -26z m896 1 c-10 -10 -19 5 -10 18 6 11 8 11 12
0 2 -7 1 -15 -2 -18z m1654 -8 c0 -24 -5 -35 -15 -35 -10 0 -15 11 -15 35 0
24 5 35 15 35 10 0 15 -11 15 -35z m-833 -20 c3 -9 3 -19 -1 -22 -8 -9 -37 18
-30 28 8 14 24 11 31 -6z m9667 -27 c3 -13 1 -27 -4 -32 -7 -7 -10 -2 -10 12
0 12 -4 22 -10 22 -5 0 -10 5 -10 10 0 20 28 10 34 -12z m-1347 -85 c-3 -10
-5 -4 -5 12 0 17 2 24 5 18 2 -7 2 -21 0 -30z m-7507 -397 c0 -409 0 -414 -20
-409 -25 7 -27 48 -2 58 16 6 16 7 -2 21 -18 13 -18 15 -3 32 15 17 17 48 16
278 -1 353 0 434 6 434 3 0 5 -186 5 -414z m-1473 384 c5 -19 6 -19 22 2 10
12 22 18 28 15 7 -5 9 -118 6 -344 -4 -352 -8 -423 -24 -423 -5 0 -9 133 -10
333 -1 283 -7 409 -19 387 -2 -3 -6 -147 -10 -320 -8 -315 -13 -379 -34 -392
-6 -4 -28 -8 -48 -8 -37 0 -38 1 -38 39 0 30 -4 40 -20 44 -23 6 -27 35 -5 43
9 4 15 19 15 40 0 24 -5 34 -15 34 -8 0 -15 8 -16 18 -3 84 5 185 21 245 24
94 30 195 11 206 -7 5 -11 13 -7 19 3 5 -1 15 -9 22 -38 32 4 57 98 59 41 1
50 -2 54 -19z m460 -7 c8 -10 9 -23 3 -38 -5 -13 -6 -25 -4 -28 3 -3 -2 -16
-11 -30 -13 -20 -16 -49 -14 -154 1 -70 5 -146 9 -168 4 -22 5 -107 1 -190
l-6 -150 -40 1 c-39 2 -86 10 -115 21 -8 3 -27 5 -42 4 -29 -3 -36 7 -17 26 8
8 7 17 -5 35 -13 20 -15 69 -13 362 l2 338 120 -7 c90 -5 123 -10 132 -22z
m9488 17 c4 -6 -7 -10 -24 -10 -17 0 -31 5 -31 10 0 6 11 10 24 10 14 0 28 -4
31 -10z m-185 -17 c11 -17 11 -17 6 0 -4 14 1 17 35 17 36 0 40 -2 33 -17 -5
-10 -9 -180 -9 -378 0 -198 -4 -366 -9 -373 -5 -8 -12 -10 -17 -5 -5 5 -10
167 -10 360 -2 327 -8 428 -23 342 -4 -19 -8 -179 -9 -356 -1 -177 -5 -324 -8
-327 -3 -3 -19 -9 -37 -12 -29 -6 -31 -4 -38 32 -4 21 -3 167 2 324 9 272 9
286 -9 301 -27 23 -20 80 13 96 35 18 67 16 80 -4z m502 -4 c16 -9 20 -60 6
-85 -3 -5 -5 -156 -6 -336 0 -180 -4 -333 -8 -339 -8 -13 -132 -7 -155 7 -8 5
-18 9 -24 9 -5 0 -10 14 -10 30 -1 35 -13 75 -24 75 -4 0 -12 -5 -17 -10 -14
-14 -24 169 -24 453 l0 220 123 -8 c67 -4 130 -11 139 -16z m-9649 -55 c1 -29
-2 -39 -13 -39 -16 0 -26 54 -15 83 9 25 25 1 28 -44z m8892 26 c9 -14 -4 -70
-16 -70 -5 0 -9 18 -9 40 0 38 12 52 25 30z m1602 -132 c-2 -24 -4 -7 -4 37 0
44 2 63 4 43 2 -21 2 -57 0 -80z m-10515 -28 c17 54 28 -7 28 -151 0 -162 -6
-209 -26 -209 -10 0 -14 -16 -15 -57 0 -32 -4 -80 -9 -108 -11 -74 -15 -49
-18 118 -2 79 -5 97 -17 97 -21 0 -22 128 -1 136 10 4 18 42 27 127 12 106 15
115 19 72 4 -42 6 -46 12 -25z m259 19 c7 -14 10 -80 7 -199 -3 -198 -8 -213
-61 -203 -57 11 -59 16 -71 196 -3 50 0 72 11 82 8 8 18 37 22 64 4 28 14 57
21 66 18 22 57 19 71 -6z m9119 7 c0 -17 -17 -24 -47 -18 -37 7 -28 32 12 32
24 0 35 -5 35 -14z m1137 -228 c-2 -29 -3 -6 -3 52 0 58 1 81 3 53 2 -29 2
-77 0 -105z m-780 5 c-3 -10 -5 -2 -5 17 0 19 2 27 5 18 2 -10 2 -26 0 -35z
m-9828 -75 c1 -29 -3 -38 -15 -38 -14 0 -15 7 -10 38 3 20 6 46 7 57 l0 20 9
-20 c5 -11 9 -37 9 -57z m10616 -161 c4 -104 2 -157 -5 -157 -6 0 -10 58 -10
162 0 89 2 159 4 157 3 -2 7 -75 11 -162z m-2486 41 c-2 -86 -6 -76 -11 25 -2
31 0 57 5 57 4 0 6 -37 6 -82z m121 -63 c0 -29 -16 -41 -24 -19 -8 21 3 56 15
49 5 -4 9 -17 9 -30z m-3172 -51 c91 -30 154 -62 260 -130 93 -61 246 -203
293 -273 29 -43 31 -50 25 -114 -4 -54 -12 -79 -35 -116 -43 -66 -41 -71 23
-64 53 6 54 5 60 -24 7 -31 -5 -154 -23 -235 -15 -65 -52 -145 -104 -227 l-45
-69 -5 -338 c-4 -241 -10 -365 -21 -429 -18 -105 -76 -491 -82 -550 -2 -22
-24 -173 -49 -335 -24 -162 -47 -317 -49 -345 -3 -27 -14 -106 -25 -175 -11
-69 -27 -172 -36 -230 -9 -58 -40 -188 -69 -290 l-53 -185 -599 -2 c-329 -2
-604 1 -610 5 -13 9 -109 344 -125 436 -30 174 20 377 131 535 41 59 41 59 35
130 -4 44 -2 71 4 71 6 0 12 -28 14 -63 2 -34 4 -5 5 65 2 118 1 128 -18 138
-15 8 -20 21 -20 53 1 33 3 38 11 25 7 -13 17 -16 39 -11 36 7 34 14 30 -167
l-2 -124 23 17 c68 49 137 92 184 112 29 13 56 32 60 42 4 10 11 52 14 93 6
71 7 75 30 75 20 0 28 12 56 81 43 106 50 128 37 120 -34 -21 -60 47 -47 124
6 34 11 40 31 40 23 0 24 -2 24 -77 1 -75 1 -77 16 -50 33 61 244 603 244 627
0 14 -9 57 -21 95 -11 39 -38 135 -59 214 -22 79 -41 145 -43 148 -2 2 -46
-47 -97 -109 -52 -62 -126 -151 -164 -198 -143 -171 -149 -179 -136 -195 9
-11 6 -22 -17 -54 -15 -23 -31 -41 -35 -41 -3 0 -12 14 -20 30 -7 17 -19 30
-25 30 -7 0 -13 7 -13 15 0 8 -5 15 -10 15 -6 0 -21 11 -34 25 -13 14 -28 25
-35 25 -16 0 -14 11 6 25 9 7 13 17 9 23 -10 17 -36 15 -36 -2 0 -21 -18 -30
-34 -17 -7 6 -40 17 -74 25 -90 21 -218 13 -322 -18 -109 -34 -101 -31 -133
-44 -15 -7 -40 -15 -55 -19 -15 -3 -31 -12 -37 -19 -10 -12 -52 -35 -132 -70
-23 -11 -43 -24 -43 -30 0 -26 33 -104 45 -104 8 0 46 15 87 34 262 121 351
139 565 118 88 -9 139 -44 161 -111 17 -51 9 -131 -14 -131 -9 0 -14 -11 -14
-33 0 -37 -48 -95 -57 -69 -4 10 -9 10 -23 -3 -10 -9 -16 -23 -13 -31 3 -8 -1
-14 -10 -14 -9 0 -22 -3 -30 -6 -10 -3 -20 3 -27 16 -10 18 -7 26 24 60 44 49
91 119 84 126 -7 7 -29 -15 -85 -89 -27 -34 -55 -70 -63 -79 -8 -9 -40 -45
-70 -80 -30 -34 -75 -83 -98 -108 -54 -55 -82 -94 -82 -112 0 -19 38 -62 68
-77 13 -7 36 -13 53 -13 16 -1 29 -3 29 -5 0 -2 -10 -19 -22 -38 -24 -36 -56
-45 -88 -25 -15 9 -16 13 -19 53 -2 33 -17 51 -36 43 -14 -5 -15 -9 -6 -20 8
-9 8 -16 2 -20 -5 -4 -13 -1 -16 4 -5 8 -13 6 -25 -5 -9 -8 -24 -13 -31 -10
-9 3 -26 -10 -46 -37 -73 -100 -333 -407 -377 -446 -63 -55 -102 -69 -217 -77
-103 -7 -123 -5 -246 31 -19 5 -23 2 -23 -15 0 -17 -6 -21 -34 -21 -19 0 -36
-6 -39 -12 -3 -10 -7 -10 -20 1 -9 7 -24 10 -34 7 -9 -4 -48 -4 -85 0 -78 8
-81 12 -81 111 0 30 -3 56 -7 58 -4 3 -21 -2 -38 -11 -42 -21 -100 -10 -107
20 -2 11 -7 60 -10 107 -4 47 -10 90 -13 96 -5 8 -72 23 -83 18 -1 0 -5 -58
-8 -130 l-6 -130 -30 3 c-16 1 -54 0 -84 -4 l-53 -6 6 -47 c9 -65 -14 -87 -88
-84 -28 2 -162 3 -298 3 -279 -1 -298 3 -324 67 -13 29 -14 86 -10 342 5 333
7 349 60 376 17 8 39 21 49 28 15 10 20 9 31 -5 8 -12 27 -18 50 -18 31 0 36
3 36 23 0 13 6 32 14 42 12 17 26 18 243 12 173 -5 232 -4 241 5 18 18 40 -6
24 -25 -13 -15 -11 -64 2 -85 4 -7 3 -18 -2 -25 -5 -7 -12 -27 -14 -45 -6 -45
23 -65 89 -61 45 3 48 2 49 -21 1 -14 4 -32 8 -42 14 -32 1 -70 -32 -96 l-33
-26 7 28 c6 24 4 27 -12 24 -10 -2 -25 -16 -33 -32 -11 -24 -11 -30 0 -37 41
-26 -305 -261 -361 -246 -9 2 -25 -2 -35 -9 -15 -12 -17 -18 -7 -39 6 -14 16
-25 21 -25 4 0 42 15 82 34 102 46 281 166 361 242 54 51 74 63 105 66 l38 3
6 60 c3 33 11 72 17 87 6 15 9 35 5 44 -9 23 15 33 77 32 45 0 52 -2 37 -12
-51 -31 -53 -34 -37 -50 8 -8 28 -18 44 -22 l28 -7 -3 47 c-5 51 1 56 57 56
19 0 43 6 54 13 17 10 22 9 29 -1 5 -8 17 -12 27 -10 11 2 96 103 192 228
l173 225 47 -2 c261 -13 304 -6 278 46 -8 14 -16 40 -20 56 -6 29 -8 30 -62
28 -47 -1 -121 11 -133 23 -4 4 7 18 316 402 139 172 253 320 253 328 0 8 7
14 15 14 8 0 15 3 16 8 0 4 2 19 3 34 1 15 11 37 22 50 11 13 31 34 43 48 13
14 55 63 95 110 39 47 77 91 84 99 7 7 30 39 51 70 21 31 63 87 92 123 30 37
65 84 79 104 34 50 187 219 290 321 122 121 220 197 304 237 142 68 379 81
534 30z m4442 -34 c0 -5 -2 -10 -4 -10 -3 0 -8 5 -11 10 -3 6 -1 10 4 10 6 0
11 -4 11 -10z m-10540 -46 c0 -8 -7 -14 -15 -14 -15 0 -21 21 -9 33 10 9 24
-2 24 -19z m11445 -64 c-8 -13 -85 -13 -105 0 -11 7 4 10 48 10 40 0 61 -4 57
-10z m-9536 -1027 l-4 -748 43 -3 c27 -2 42 -8 42 -17 0 -11 -69 -12 -412 -8
-227 3 -417 9 -422 14 -5 5 -6 12 -2 16 4 5 169 7 365 6 l358 -2 7 517 c7 578
17 972 23 972 3 0 3 -336 2 -747z m7340 -348 c6 -374 14 -697 17 -717 4 -29 2
-38 -8 -38 -38 0 -38 0 -37 844 2 946 12 914 28 -89z m2529 -497 c-14 -21 -14
-26 0 -46 22 -33 2 -51 -32 -29 -21 14 -26 14 -36 2 -18 -21 -50 -19 -50 3 0
10 5 23 12 30 10 10 8 19 -6 42 -16 28 -16 31 0 37 9 3 25 1 36 -6 15 -9 23
-9 41 4 19 13 23 13 36 1 12 -13 12 -18 -1 -38z m-148 32 c17 -11 6 -25 -25
-33 -15 -4 -13 -5 8 -6 17 -1 27 -7 27 -16 0 -9 -10 -15 -27 -16 l-28 -1 25
-7 c36 -10 33 -37 -4 -34 -50 4 -56 10 -56 58 0 38 4 47 23 55 29 12 39 12 57
0z m-350 -10 c0 -5 -9 -14 -20 -20 -11 -6 -20 -21 -20 -33 0 -17 -2 -19 -9 -8
-15 23 9 71 35 71 8 0 14 -4 14 -10z m142 -31 c9 -19 17 -42 18 -51 0 -27 -27
-21 -34 7 -7 26 -26 35 -26 12 0 -7 -6 -22 -14 -33 -26 -34 -30 9 -7 61 24 53
38 54 63 4z m110 26 c-1 -5 -10 -11 -20 -11 -34 -3 -36 -6 -8 -13 36 -7 36
-25 1 -29 -17 -2 -25 -9 -25 -23 0 -10 -7 -19 -15 -19 -11 0 -15 12 -15 48 0
27 3 52 7 56 11 10 78 3 75 -9z m-202 -64 c0 -6 -10 -17 -22 -25 -29 -21 -51
-3 -22 19 22 16 44 19 44 6z m-8342 -124 c27 -72 27 -87 3 -87 -28 0 -34 14
-37 93 -4 80 3 78 34 -6z m-1470 -135 c3 -9 -3 -13 -19 -10 -16 2 -24 -2 -24
-12 0 -9 9 -15 23 -14 12 0 22 -5 22 -13 0 -8 -12 -13 -30 -13 -23 0 -31 5
-36 25 -4 15 -1 32 7 41 14 18 50 15 57 -4z m7773 -25 c-12 -12 -67 -5 -61 8
3 6 11 9 18 9 6 -1 12 5 12 14 0 13 3 12 20 -3 12 -11 17 -22 11 -28z m-7702
1 c12 -35 5 -53 -11 -25 -9 18 -10 18 -23 0 -7 -10 -16 -15 -19 -12 -10 10 15
69 29 69 7 0 18 -14 24 -32z m71 22 c0 -5 -8 -10 -17 -11 -16 0 -16 -1 1 -8
17 -7 16 -9 -8 -24 l-26 -17 0 35 c0 31 3 35 25 35 14 0 25 -4 25 -10z m57 -4
c-14 -11 -15 -15 -5 -19 10 -4 10 -8 -2 -16 -10 -7 -11 -11 -2 -11 6 0 12 -4
12 -10 0 -15 -37 -12 -43 3 -3 7 -3 25 0 40 4 21 11 27 32 27 24 -1 25 -2 8
-14z m102 5 c2 -1 -1 -7 -7 -14 -6 -7 -9 -22 -6 -34 5 -18 2 -20 -28 -18 -43
4 -42 3 -30 18 6 7 9 22 6 34 -5 18 -2 20 28 18 18 -2 35 -4 37 -4z m3551 -59
c0 -53 -5 -63 -26 -55 -14 5 -20 83 -7 96 20 21 33 4 33 -41z m-284 -30 c-3
-10 -7 -41 -8 -69 -2 -34 -7 -53 -15 -53 -17 0 -18 121 -1 138 15 15 30 5 24
-16z m-3466 -26 c0 -9 -30 -14 -35 -6 -4 6 3 10 14 10 12 0 21 -2 21 -4z m310
-12 c86 -10 88 -12 85 -54 -2 -27 -13 -49 -36 -75 l-34 -37 -141 4 c-99 2
-146 7 -157 16 -11 9 -17 34 -19 75 -3 58 -1 63 22 74 24 11 178 10 280 -3z
m-455 -79 c0 -75 -1 -80 -23 -83 -12 -2 -24 3 -27 10 -7 23 -13 146 -7 153 3
3 18 5 32 3 24 -3 25 -5 25 -83z m1415 45 c0 -5 -4 -10 -10 -10 -5 0 -10 5
-10 10 0 6 5 10 10 10 6 0 10 -4 10 -10z m-2060 -42 c0 -31 3 -39 10 -28 10
17 15 14 24 -16 8 -28 -41 -65 -55 -43 -5 8 -7 23 -4 34 2 11 5 37 5 58 0 20
5 37 10 37 6 0 10 -19 10 -42z m4140 -48 c0 -53 -4 -90 -10 -90 -6 0 -10 37
-10 90 0 53 4 90 10 90 6 0 10 -37 10 -90z m-4732 15 c1 -52 -6 -59 -42 -42
-30 14 -35 47 -7 47 11 0 23 9 26 20 11 34 22 22 23 -25z m9722 -40 c0 -69 -3
-85 -15 -85 -12 0 -15 16 -15 85 0 69 3 85 15 85 12 0 15 -16 15 -85z m40 75
c0 -5 -7 -10 -15 -10 -8 0 -15 5 -15 10 0 6 7 10 15 10 8 0 15 -4 15 -10z
m-4712 -12 c17 -17 15 -26 -8 -38 -14 -8 -26 -7 -42 1 l-22 12 23 18 c27 22
33 23 49 7z m-158 -21 c0 -7 -7 -21 -15 -31 -11 -15 -18 -17 -26 -9 -8 8 -6
18 7 36 19 25 34 27 34 4z m260 3 c0 -11 -7 -20 -15 -20 -8 0 -15 9 -15 20 0
11 7 20 15 20 8 0 15 -9 15 -20z m5551 1 c4 -3 4 -23 2 -44 -5 -36 -7 -38 -36
-35 -27 3 -32 8 -38 37 -10 50 -3 61 34 54 18 -3 35 -8 38 -12z m-628 -21 c6
-24 -2 -60 -14 -60 -14 0 -49 38 -49 53 0 33 55 39 63 7z m-9483 -155 c0 -60
-3 -75 -15 -75 -12 0 -15 13 -15 59 0 63 6 91 21 91 5 0 9 -34 9 -75z m27 -15
c1 -33 -3 -60 -8 -60 -5 0 -9 27 -9 60 0 33 4 60 8 60 5 0 9 -27 9 -60z m-630
-12 c-2 -12 -10 -24 -17 -26 -9 -3 -11 1 -7 12 4 10 7 22 7 27 0 5 4 9 10 9 5
0 8 -10 7 -22z m10373 -222 c0 -11 -19 -15 -25 -6 -3 5 1 10 9 10 9 0 16 -2
16 -4z m-9697 -827 c-14 -14 -417 -13 -441 1 -11 6 60 9 217 10 172 0 232 -3
224 -11z m9958 -18 c33 -12 13 -18 -81 -24 -86 -5 -404 8 -420 18 -6 3 -7 11
-4 17 9 13 469 3 505 -11z m-10067 -30 c10 -16 -36 -21 -189 -21 -186 0 -346
10 -339 21 7 12 521 11 528 0z m7783 -2 c6 -6 9 -18 6 -25 -7 -20 20 -27 72
-20 40 6 45 10 45 32 0 15 4 23 10 19 6 -4 9 -14 8 -23 -2 -13 8 -18 41 -23
25 -3 47 -11 49 -17 2 -7 12 -12 23 -12 12 0 23 -10 29 -25 7 -17 17 -25 34
-25 41 0 53 -9 48 -36 -2 -14 0 -24 7 -24 7 0 10 -4 6 -9 -9 -16 -13 -101 -4
-101 5 0 9 -7 9 -15 0 -8 -5 -15 -11 -15 -8 0 -8 -4 -1 -12 5 -7 12 -22 15
-33 3 -15 5 -13 6 8 0 16 5 26 11 22 6 -3 10 -1 10 6 0 7 2 10 5 8 10 -11 16
-169 6 -169 -6 0 -11 -13 -11 -28 0 -15 -5 -33 -12 -40 -9 -9 -5 -12 19 -12
26 0 31 -4 37 -31 9 -47 7 -97 -4 -104 -5 -3 -10 -17 -10 -31 0 -14 -6 -27
-14 -30 -10 -4 -13 -18 -10 -47 5 -47 -3 -80 -17 -72 -5 4 -9 -1 -9 -9 0 -10
6 -13 18 -10 14 5 15 4 2 -5 -9 -6 -14 -22 -12 -39 l3 -29 -106 -5 c-116 -6
-175 5 -183 34 -5 22 -32 24 -32 3 0 -30 -34 -35 -156 -23 -66 6 -122 14 -126
17 -5 4 -2 65 6 136 13 116 24 240 41 448 4 43 2 67 -5 67 -5 0 -10 -8 -10
-17 0 -10 -9 -101 -19 -203 -11 -102 -23 -214 -26 -250 -7 -68 -11 -80 -25
-80 -6 0 -7 25 -3 58 16 156 16 301 -2 314 -6 5 -3 8 7 8 10 0 21 8 26 18 9
18 7 170 -2 180 -11 11 -6 35 10 47 10 7 22 42 30 86 8 40 20 80 27 87 8 7 34
13 60 14 37 0 47 4 47 18 0 29 18 38 37 19z m-5922 -39 c27 -7 25 -8 -20 -11
-98 -5 -350 2 -359 12 -12 11 334 10 379 -1z m-185 -114 c0 -9 -30 -14 -35 -6
-4 6 3 10 14 10 12 0 21 -2 21 -4z m-4 -132 c-3 -9 -6 -18 -6 -20 0 -2 -7 -4
-15 -4 -18 0 -19 12 -3 28 17 17 31 15 24 -4z m-18 -79 c-3 -3 -9 2 -12 12 -6
14 -5 15 5 6 7 -7 10 -15 7 -18z m8382 -157 c0 -9 3 -9 12 0 19 19 23 14 23
-28 0 -31 -3 -39 -14 -35 -7 3 -20 0 -29 -7 -13 -11 -15 -9 -9 19 3 18 2 35
-3 38 -15 9 -12 25 5 25 8 0 15 -5 15 -12z m-9992 -36 c6 -18 -15 -14 -22 4
-4 10 -1 14 6 12 6 -2 14 -10 16 -16z m10072 8 c0 -5 -4 -10 -10 -10 -5 0 -10
5 -10 10 0 6 5 10 10 10 6 0 10 -4 10 -10z m-8382 -13 c22 -14 14 -56 -13 -69
-21 -10 -28 -8 -40 8 -11 15 -15 16 -16 4 -1 -8 -1 -18 0 -22 2 -18 -31 7 -40
29 -15 40 -12 55 11 48 11 -3 20 -3 20 2 0 10 61 10 78 0z m-258 -7 c0 -5 -5
-12 -10 -15 -7 -4 -7 -12 0 -25 8 -16 6 -18 -24 -17 -31 1 -34 3 -33 32 1 28
4 31 34 32 18 1 33 -3 33 -7z m63 -4 c10 -24 -4 -56 -24 -56 -21 0 -27 20 -6
21 8 0 8 2 -2 6 -11 5 -11 7 0 14 12 8 11 11 -1 19 -12 8 -11 10 6 10 12 0 24
-6 27 -14z m67 -21 c0 -32 -3 -35 -27 -35 -27 1 -27 1 -9 15 20 15 20 15 0 16
-14 0 -15 2 -4 6 8 3 19 12 23 19 13 22 17 17 17 -21z m-1568 -7 c-7 -7 -12
-8 -12 -2 0 14 12 26 19 19 2 -3 -1 -11 -7 -17z m-1442 -368 c33 0 37 -3 33
-20 -5 -17 -13 -19 -72 -18 -36 1 -69 6 -73 12 -5 7 -8 7 -8 -1 0 -8 -14 -13
-35 -13 -21 0 -35 5 -36 13 0 10 -2 10 -6 0 -8 -20 -23 -15 -23 7 0 16 7 20
30 20 17 0 30 -5 30 -12 0 -10 2 -10 8 -1 7 11 75 23 100 16 8 -2 31 -3 52 -3z
m12314 -2 c-5 -7 -3 -8 5 -3 12 7 130 9 138 2 2 -2 1 -12 -3 -21 -4 -12 -19
-16 -55 -16 -28 0 -49 5 -49 11 0 6 -7 3 -16 -6 -23 -23 -48 -15 -52 18 -3 22
1 27 18 27 13 0 19 -4 14 -12z m-6517 -6 c-3 -4 28 -6 69 -5 75 1 81 -1 65
-26 -12 -18 -101 -21 -101 -3 0 10 -4 9 -16 -3 -23 -23 -48 -15 -52 18 -3 22
1 27 18 27 12 0 19 -3 17 -8z m476 -7 c20 1 27 -4 27 -17 0 -10 -6 -18 -12
-19 -69 -6 -84 -6 -89 3 -3 5 -17 4 -33 -3 -22 -11 -29 -10 -36 1 -15 24 0 40
35 37 19 -2 39 0 46 4 8 4 18 4 24 0 5 -4 22 -7 38 -6z m272 0 c22 -1 39 -4
38 -8 -2 -4 -3 -13 -3 -20 0 -12 -13 -13 -242 -6 -10 0 -18 3 -18 7 1 21 22
28 87 27 40 0 73 4 73 8 0 5 6 5 12 1 7 -5 31 -9 53 -9z m-435 -6 c0 -23 -34
-38 -75 -34 -25 2 -47 -1 -50 -6 -12 -18 -25 -8 -25 19 l0 27 75 1 c41 0 75
-3 75 -7z m5527 -85 c-3 -3 -12 -4 -19 -1 -8 3 -5 6 6 6 11 1 17 -2 13 -5z
m-9984 -11 c-13 -2 -33 -2 -45 0 -13 2 -3 4 22 4 25 0 35 -2 23 -4z m8185 0
c-10 -2 -28 -2 -40 0 -13 2 -5 4 17 4 22 1 32 -1 23 -4z m1124 -48 c-4 -72 -8
-90 -18 -90 -5 0 -10 33 -12 73 -4 67 -2 74 15 70 15 -3 18 -12 15 -53z m496
30 c-3 -29 -7 -31 -22 -9 -7 9 -28 19 -46 24 -33 7 -32 8 17 9 50 1 53 0 51
-24z m82 21 c0 -9 -39 -13 -51 -5 -10 6 -4 9 19 9 17 0 32 -2 32 -4z m-10628
-18 c-5 -7 -13 -39 -17 -70 -4 -32 -11 -58 -15 -58 -9 0 -21 107 -13 126 3 8
16 14 30 14 19 0 23 -3 15 -12z m438 -1 c0 -27 -26 -50 -48 -43 -28 9 -54 35
-47 47 10 15 95 11 95 -4z m160 3 c0 -5 -25 -10 -56 -10 -34 0 -53 4 -49 10 3
6 28 10 56 10 27 0 49 -4 49 -10z m1260 0 c0 -5 -9 -10 -20 -10 -11 0 -20 5
-20 10 0 6 9 10 20 10 11 0 20 -4 20 -10z m440 1 c0 -5 -18 -11 -41 -13 -39
-4 -55 2 -42 16 10 9 83 7 83 -3z m5900 -1 c0 -5 -9 -10 -20 -10 -11 0 -20 5
-20 10 0 6 9 10 20 10 11 0 20 -4 20 -10z m486 1 c-7 -11 -66 -20 -83 -14 -29
11 -10 23 38 23 27 0 48 -4 45 -9z m134 0 c0 -8 -90 -3 -99 5 -2 2 19 4 47 4
29 0 52 -4 52 -9z m-6423 -12 c-14 -8 -22 -8 -30 0 -8 8 -3 11 19 11 25 -1 27
-2 11 -11z m8143 -109 c0 -5 -4 -10 -10 -10 -5 0 -10 5 -10 10 0 6 5 10 10 10
6 0 10 -4 10 -10z m-11524 -43 c-1 -15 -8 -23 -23 -25 -13 -2 -23 2 -23 8 0 7
7 9 16 6 13 -5 14 -4 6 7 -7 8 -9 17 -5 20 3 4 0 7 -8 7 -12 0 -12 2 1 10 19
12 38 -4 36 -33z m12504 1 l0 -33 -14 25 c-13 26 -12 40 5 40 5 0 9 -15 9 -32z
m-6520 -14 c0 -22 -4 -33 -11 -29 -6 4 -8 13 -5 21 3 7 1 16 -5 19 -11 7 -3
25 12 25 5 0 9 -16 9 -36z m285 26 c4 -6 1 -18 -6 -26 -10 -13 -10 -17 2 -25
10 -6 7 -9 -13 -9 -33 0 -34 6 -10 33 16 19 16 20 0 14 -10 -4 -18 -3 -18 2 0
21 34 29 45 11z m273 -28 c3 -26 0 -32 -17 -32 -11 0 -23 5 -26 10 -3 6 0 10
8 10 7 0 14 7 14 15 0 8 -7 15 -14 15 -8 0 -11 5 -8 11 14 21 40 4 43 -29z
m4492 -28 c0 -15 -6 -24 -15 -24 -15 0 -21 40 -9 53 12 11 24 -3 24 -29z m490
16 c0 -11 0 -23 1 -27 0 -4 -4 -9 -10 -11 -6 -2 -11 5 -11 15 0 11 -5 24 -12
31 -9 9 -7 12 10 12 15 0 22 -6 22 -20z m-10560 -10 c0 -11 -4 -20 -10 -20 -5
0 -10 9 -10 20 0 11 5 20 10 20 6 0 10 -9 10 -20z m440 10 c0 -5 -4 -10 -9
-10 -6 0 -13 5 -16 10 -3 6 1 10 9 10 9 0 16 -4 16 -10z m-1406 -237 c5 -16 3
-29 -5 -34 -21 -13 -39 2 -39 32 0 39 35 41 44 2z m12516 -7 c0 -29 -3 -33
-20 -29 -28 8 -31 16 -14 41 22 32 34 27 34 -12z m-6520 -17 c0 -27 -3 -30
-22 -23 -31 9 -31 9 -18 33 17 32 40 26 40 -10z m268 24 c0 -5 2 -16 7 -27 5
-11 3 -21 -5 -26 -22 -14 -40 1 -40 31 0 22 5 29 20 29 11 0 19 -3 18 -7z
m280 -25 c-3 -36 -24 -44 -41 -17 -14 23 -2 49 23 49 18 0 21 -5 18 -32z"/>
<path d="M1033 6284 c29 -16 57 -13 57 6 0 5 -19 10 -42 10 l-43 -1 28 -15z"/>
<path d="M842 5700 c0 -14 2 -19 5 -12 2 6 2 18 0 25 -3 6 -5 1 -5 -13z"/>
<path d="M741 5464 c0 -11 3 -14 6 -6 3 7 2 16 -1 19 -3 4 -6 -2 -5 -13z"/>
<path d="M10296 6358 c-8 -31 -8 -73 1 -64 7 6 14 86 8 86 -1 0 -5 -10 -9 -22z"/>
<path d="M10650 6096 c0 -25 5 -48 10 -51 6 -4 10 9 10 32 0 22 5 44 12 51 9
9 7 12 -10 12 -19 0 -22 -5 -22 -44z"/>
<path d="M11820 6020 c0 -10 6 -23 14 -29 11 -10 16 -9 24 5 13 23 32 9 32
-23 0 -33 5 -27 13 13 6 30 4 31 -39 41 -39 9 -44 8 -44 -7z"/>
<path d="M12227 6227 c-4 -10 -7 -28 -7 -40 1 -20 2 -20 11 -4 6 10 9 28 7 40
-3 20 -4 20 -11 4z"/>
<path d="M1756 6020 c-4 -44 -4 -117 0 -162 l7 -82 22 90 c55 220 55 216 4
228 -26 6 -26 6 -33 -74z"/>
<path d="M1666 5504 c-6 -17 0 -34 12 -34 11 0 12 39 2 45 -4 3 -11 -2 -14
-11z"/>
<path d="M11517 6083 c-14 -23 -29 -243 -17 -243 4 0 11 24 15 53 3 28 13 80
21 115 8 34 12 67 9 72 -7 12 -22 13 -28 3z"/>
<path d="M11493 5774 c-3 -8 -1 -20 6 -27 8 -8 11 -4 11 16 0 30 -7 35 -17 11z"/>
<path d="M6980 5305 c0 -8 7 -15 15 -15 8 0 15 7 15 15 0 8 -7 15 -15 15 -8 0
-15 -7 -15 -15z"/>
<path d="M6835 5180 c-3 -5 1 -10 9 -10 9 0 16 5 16 10 0 6 -4 10 -9 10 -6 0
-13 -4 -16 -10z"/>
<path d="M7322 5153 c2 -10 10 -18 18 -18 8 0 16 8 18 18 2 12 -3 17 -18 17
-15 0 -20 -5 -18 -17z"/>
<path d="M6840 5140 c0 -5 7 -10 16 -10 8 0 12 5 9 10 -3 6 -10 10 -16 10 -5
0 -9 -4 -9 -10z"/>
<path d="M6730 4949 c0 -5 5 -7 10 -4 6 3 10 8 10 11 0 2 -4 4 -10 4 -5 0 -10
-5 -10 -11z"/>
<path d="M6376 4869 c-23 -64 -35 -222 -18 -233 4 -2 9 34 10 82 0 48 6 102
11 121 10 33 7 59 -3 30z"/>
<path d="M7503 4564 c-8 -21 13 -42 28 -27 13 13 5 43 -11 43 -6 0 -13 -7 -17
-16z"/>
<path d="M7337 4334 c-8 -8 1 -24 13 -24 4 0 10 7 14 15 5 15 -14 21 -27 9z"/>
<path d="M7345 4290 c-3 -5 1 -10 10 -10 9 0 13 5 10 10 -3 6 -8 10 -10 10 -2
0 -7 -4 -10 -10z"/>
<path d="M6554 4239 c-3 -6 0 -15 7 -20 14 -8 32 9 23 23 -7 11 -22 10 -30 -3z"/>
<path d="M6560 4190 c-12 -8 -10 -10 8 -10 13 0 20 4 17 10 -7 12 -6 12 -25 0z"/>
<path d="M6670 3940 c0 -5 5 -10 10 -10 6 0 10 5 10 10 0 6 -4 10 -10 10 -5 0
-10 -4 -10 -10z"/>
<path d="M5910 3742 c0 -12 19 -26 26 -19 2 2 -2 10 -11 17 -9 8 -15 8 -15 2z"/>
<path d="M7320 3611 c0 -17 15 -19 28 -5 11 12 9 14 -8 14 -11 0 -20 -4 -20
-9z"/>
<path d="M7335 3570 c-3 -5 1 -10 10 -10 9 0 13 5 10 10 -3 6 -8 10 -10 10 -2
0 -7 -4 -10 -10z"/>
<path d="M4985 3560 c-3 -5 -1 -10 5 -10 7 0 10 -7 7 -15 -7 -18 9 -29 30 -21
12 5 13 10 5 18 -6 6 -8 17 -5 24 6 16 -32 20 -42 4z"/>
<path d="M6740 3536 c0 -8 13 -16 29 -18 26 -4 29 -2 20 14 -11 21 -49 24 -49
4z"/>
<path d="M6750 3490 c0 -13 11 -13 30 0 12 8 11 10 -7 10 -13 0 -23 -4 -23
-10z"/>
<path d="M4730 3260 c-9 -16 -8 -22 5 -26 23 -9 45 3 45 26 0 27 -36 27 -50 0z"/>
<path d="M5460 3180 c0 -5 5 -10 11 -10 5 0 7 5 4 10 -3 6 -8 10 -11 10 -2 0
-4 -4 -4 -10z"/>
<path d="M5236 2875 c-7 -19 0 -35 15 -35 6 0 7 4 4 10 -4 6 1 7 10 3 13 -4
16 -1 13 13 -4 24 -34 30 -42 9z"/>
<path d="M6300 2514 c0 -8 5 -12 10 -9 6 4 8 11 5 16 -9 14 -15 11 -15 -7z"/>
<path d="M6575 2521 c-3 -5 -1 -12 5 -16 5 -3 10 1 10 9 0 18 -6 21 -15 7z"/>
<path d="M4457 2399 c-23 -13 -22 -39 2 -39 24 0 35 15 24 34 -6 11 -13 12
-26 5z"/>
<path d="M7113 2314 c-8 -21 13 -42 28 -27 13 13 5 43 -11 43 -6 0 -13 -7 -17
-16z"/>
<path d="M4297 2294 c-14 -14 -7 -35 11 -32 9 2 17 10 17 17 0 16 -18 25 -28
15z"/>
<path d="M9320 1525 c0 -14 5 -25 10 -25 6 0 10 11 10 25 0 14 -4 25 -10 25
-5 0 -10 -11 -10 -25z"/>
<path d="M9307 1365 c-4 -8 -2 -17 3 -20 6 -4 10 3 10 14 0 25 -6 27 -13 6z"/>
<path d="M3390 1040 c0 -6 -6 -8 -12 -4 -10 6 -10 4 0 -7 9 -9 15 -10 23 -2 8
8 8 13 0 17 -6 4 -11 2 -11 -4z"/>
<path d="M2698 53 c7 -3 16 -2 19 1 4 3 -2 6 -13 5 -11 0 -14 -3 -6 -6z"/>
<path d="M7800 49 c-45 -7 -45 -7 13 -6 31 1 57 -1 57 -5 0 -10 32 -10 55 -2
13 5 14 8 3 15 -15 10 -63 9 -128 -2z"/>
<path d="M8028 53 c12 -2 30 -2 40 0 9 3 -1 5 -23 4 -22 0 -30 -2 -17 -4z"/>
<path d="M8098 53 c7 -3 16 -2 19 1 4 3 -2 6 -13 5 -11 0 -14 -3 -6 -6z"/>
<path d="M8368 53 c6 -2 18 -2 25 0 6 3 1 5 -13 5 -14 0 -19 -2 -12 -5z"/>
<path d="M8493 53 c9 -2 23 -2 30 0 6 3 -1 5 -18 5 -16 0 -22 -2 -12 -5z"/>
<path d="M11558 53 c7 -3 16 -2 19 1 4 3 -2 6 -13 5 -11 0 -14 -3 -6 -6z"/>
<path d="M11663 53 c9 -2 23 -2 30 0 6 3 -1 5 -18 5 -16 0 -22 -2 -12 -5z"/>
<path d="M4298 43 c7 -3 16 -2 19 1 4 3 -2 6 -13 5 -11 0 -14 -3 -6 -6z"/>
<path d="M4940 46 c0 -2 7 -7 16 -10 8 -3 12 -2 9 4 -6 10 -25 14 -25 6z"/>
<path d="M7693 43 c9 -2 25 -2 35 0 9 3 1 5 -18 5 -19 0 -27 -2 -17 -5z"/>
<path d="M7968 43 c7 -3 16 -2 19 1 4 3 -2 6 -13 5 -11 0 -14 -3 -6 -6z"/>
<path d="M9940 40 l-65 -7 78 0 c43 0 80 4 83 8 3 5 -3 8 -13 7 -10 -1 -47 -4
-83 -8z"/>
<path d="M3498 33 c7 -3 16 -2 19 1 4 3 -2 6 -13 5 -11 0 -14 -3 -6 -6z"/>
<path d="M4828 33 c18 -2 45 -2 60 0 15 2 0 4 -33 4 -33 0 -45 -2 -27 -4z"/>
<path d="M8260 26 c-69 -6 -120 -14 -114 -18 15 -10 412 -6 427 5 7 5 4 6 -10
2 -12 -3 -24 -1 -28 5 -5 8 -24 9 -56 5 -33 -5 -49 -3 -49 4 0 6 -10 10 -22 9
-13 0 -79 -6 -148 -12z"/>
<path d="M9078 33 c6 -2 18 -2 25 0 6 3 1 5 -13 5 -14 0 -19 -2 -12 -5z"/>
<path d="M9121 36 c2 -2 29 -6 59 -9 34 -3 47 -2 35 3 -19 8 -103 14 -94 6z"/>
<path d="M10630 29 c-356 -14 -395 -27 -70 -23 157 1 346 6 421 9 87 5 155 3
187 -4 49 -10 112 -6 112 8 0 4 -19 7 -42 8 -323 8 -425 9 -608 2z"/>
<path d="M5078 23 c12 -2 32 -2 45 0 12 2 2 4 -23 4 -25 0 -35 -2 -22 -4z"/>
<path d="M9308 23 c7 -3 16 -2 19 1 4 3 -2 6 -13 5 -11 0 -14 -3 -6 -6z"/>
<path d="M4913 13 c9 -2 25 -2 35 0 9 3 1 5 -18 5 -19 0 -27 -2 -17 -5z"/>
<path d="M5004 8 c-3 -4 23 -7 58 -7 66 1 62 6 -10 11 -24 2 -46 0 -48 -4z"/>
<path d="M7775 10 c-3 -5 3 -10 15 -10 12 0 18 5 15 10 -3 6 -10 10 -15 10 -5
0 -12 -4 -15 -10z"/>
<path d="M7965 10 l-40 -7 42 -2 c23 0 45 4 48 9 3 6 3 9 -2 9 -4 -1 -26 -5
-48 -9z"/>
<path d="M8038 8 c9 -9 15 -9 24 0 9 9 7 12 -12 12 -19 0 -21 -3 -12 -12z"/>
<path d="M8098 13 c7 -3 16 -2 19 1 4 3 -2 6 -13 5 -11 0 -14 -3 -6 -6z"/>
<path d="M8721 11 c-9 -6 35 -9 124 -10 76 -1 136 2 132 5 -10 10 -241 15
-256 5z"/>
<path d="M11295 10 c-4 -6 21 -10 71 -10 43 0 75 2 73 4 -11 10 -138 15 -144
6z"/>
<path d="M9933 3 c9 -2 23 -2 30 0 6 3 -1 5 -18 5 -16 0 -22 -2 -12 -5z"/>
<path d="M10143 3 c15 -2 39 -2 55 0 15 2 2 4 -28 4 -30 0 -43 -2 -27 -4z"/>
<path d="M11468 3 c7 -3 16 -2 19 1 4 3 -2 6 -13 5 -11 0 -14 -3 -6 -6z"/>
<path d="M11548 3 c6 -2 18 -2 25 0 6 3 1 5 -13 5 -14 0 -19 -2 -12 -5z"/>
</g>
</svg>
