<?xml version="1.0" standalone="no"?>
<!DOCTYPE svg PUBLIC "-//W3C//DTD SVG 20010904//EN"
 "http://www.w3.org/TR/2001/REC-SVG-20010904/DTD/svg10.dtd">
<svg version="1.0" xmlns="http://www.w3.org/2000/svg"
 width="1280.000000pt" height="720.000000pt" viewBox="0 0 1280.000000 720.000000"
 preserveAspectRatio="xMidYMid meet">

<g transform="translate(0.000000,720.000000) scale(0.100000,-0.100000)"
fill="#000000" stroke="none">
<path d="M3604 7113 c16 -187 34 -478 30 -484 -2 -3 36 -41 83 -84 96 -88 119
-128 153 -260 14 -56 20 -114 20 -190 0 -146 6 -155 101 -155 53 0 71 -4 75
-15 9 -24 -13 -43 -59 -50 -23 -4 -45 -9 -49 -12 -4 -2 1 -26 11 -53 11 -28
15 -52 11 -55 -5 -3 -12 -1 -15 5 -5 8 -11 7 -21 -1 -20 -17 -64 -20 -65 -6
-3 27 4 51 18 65 13 13 14 10 8 -24 -5 -29 -4 -35 4 -24 10 13 12 13 20 0 8
-12 11 -12 17 4 4 10 2 27 -4 37 -7 10 -12 30 -12 44 0 14 -10 36 -23 49 -13
13 -21 29 -19 37 2 8 -3 7 -12 -4 -20 -26 -30 -107 -17 -152 6 -21 8 -42 6
-46 -3 -4 3 -10 12 -12 16 -4 16 -5 -1 -6 -16 -1 -18 -8 -14 -56 3 -30 7 -57
9 -59 2 -2 27 1 56 7 39 8 59 8 78 -1 42 -19 42 -40 -1 -75 -21 -18 -50 -41
-63 -53 l-25 -21 23 -24 c12 -13 24 -34 28 -47 8 -33 -5 -117 -29 -187 -12
-33 -20 -71 -19 -85 1 -21 27 -93 75 -205 7 -16 23 -55 35 -86 15 -39 35 -67
62 -88 114 -92 103 -258 -21 -321 -22 -11 -50 -20 -62 -20 -22 0 -23 -4 -23
-74 0 -66 -3 -79 -30 -118 -17 -23 -40 -47 -50 -52 -19 -8 -18 -14 32 -115 29
-58 67 -140 85 -181 52 -118 54 -122 65 -108 6 7 22 47 37 88 16 41 35 93 43
115 8 22 25 50 38 62 13 12 26 32 30 43 11 36 145 96 258 115 20 3 37 10 37
16 0 5 11 26 23 47 13 20 41 71 62 112 22 41 49 88 62 103 13 16 23 32 23 36
0 12 188 207 242 250 34 26 84 53 138 72 47 16 111 39 142 50 l57 20 49 -21
c45 -19 52 -28 80 -87 23 -49 28 -71 21 -84 -5 -10 -9 -25 -9 -35 0 -9 -17
-36 -39 -59 -45 -49 -67 -85 -51 -85 5 0 10 -7 10 -16 0 -12 -3 -14 -13 -6 -9
8 -21 4 -45 -14 -18 -14 -32 -32 -32 -39 0 -8 -15 -17 -35 -21 -19 -3 -35 -10
-35 -15 0 -5 -13 -9 -30 -9 -16 0 -38 -8 -48 -18 -10 -10 -23 -17 -29 -15 -18
6 -93 -17 -93 -28 0 -5 -10 -23 -21 -38 -12 -16 -19 -33 -15 -39 10 -17 66
-22 139 -11 59 9 83 8 137 -6 36 -9 74 -18 85 -21 16 -4 24 4 39 38 11 24 20
47 20 52 1 5 14 23 29 39 16 17 37 48 48 69 11 21 31 43 45 48 14 6 22 15 18
21 -7 13 86 111 163 170 l52 40 -67 62 c-36 34 -93 89 -125 122 -73 75 -232
311 -248 367 -6 24 -17 57 -25 73 -37 85 -95 353 -93 429 1 31 4 39 6 21 2
-16 10 -52 18 -80 7 -27 19 -76 25 -108 9 -45 14 -56 24 -47 21 16 39 -12 27
-41 l-10 -24 0 23 c-1 26 -21 31 -21 5 1 -55 28 -82 48 -47 8 15 10 15 15 0 6
-16 -25 -41 -37 -29 -22 22 15 -100 38 -127 8 -8 28 -49 44 -90 47 -117 85
-176 105 -163 6 3 7 2 4 -4 -4 -6 5 -21 19 -34 14 -13 32 -36 40 -51 17 -32
35 -37 27 -8 -3 11 -9 18 -13 15 -4 -2 -13 21 -20 51 -8 33 -21 59 -32 65 -10
5 -18 19 -18 30 0 13 -4 18 -11 13 -9 -5 -10 1 -5 20 4 15 2 26 -4 26 -6 0 -8
10 -5 23 4 15 -1 31 -13 45 -11 12 -22 45 -25 75 -4 29 -14 68 -23 87 -17 32
-63 204 -67 245 -1 11 -6 26 -10 33 -5 7 -11 46 -14 87 -4 46 -10 72 -16 68
-6 -4 -8 -41 -4 -97 7 -111 -6 -145 -23 -60 -7 32 -14 85 -15 119 -5 111 -25
266 -35 283 -8 13 -9 0 -5 -48 21 -205 24 -248 24 -280 0 -29 -2 -31 -9 -15
-5 11 -9 34 -9 51 -1 17 -8 37 -16 44 -12 10 -15 44 -16 174 -1 88 -4 190 -8
226 l-6 65 -45 -2 c-25 -1 -48 -2 -52 -2 -5 -1 -8 -12 -8 -26 0 -14 -4 -25
-10 -25 -5 0 -10 -18 -10 -39 0 -39 -1 -40 -44 -46 -25 -4 -49 -5 -54 -1 -14
8 -24 227 -11 243 8 9 8 13 0 13 -15 0 -14 50 2 50 154 5 222 11 225 20 3 8 8
7 18 -1 8 -6 14 -8 14 -4 0 4 7 2 15 -5 12 -10 15 -10 15 3 0 11 6 14 15 10
16 -6 55 22 55 40 0 5 20 38 45 74 25 35 45 66 45 68 0 3 -7 5 -16 5 -8 0 -13
4 -10 9 3 5 15 7 25 4 26 -7 35 24 26 88 l-7 50 -47 -3 -46 -3 -3 -67 c-3 -80
6 -75 -157 -81 -60 -2 -95 -2 -77 0 l33 4 -3 67 -3 67 -50 0 c-45 0 -50 -2
-53 -24 -2 -14 -10 -34 -17 -45 -7 -12 -12 -31 -11 -43 2 -13 -4 -23 -15 -26
-38 -10 -42 6 -47 174 -3 112 -1 160 6 155 6 -3 41 -2 79 4 37 5 114 10 171
11 56 1 102 5 102 9 0 9 301 23 507 24 88 1 156 -2 150 -6 -7 -4 2 -10 21 -14
19 -4 29 -10 23 -13 -6 -4 72 -5 173 -3 212 5 295 -7 441 -65 244 -97 384
-221 490 -438 94 -191 128 -362 128 -649 l1 -188 101 6 c94 7 104 5 155 -18
47 -22 57 -32 28 -27 -5 0 -8 -2 -8 -7 0 -4 -19 -8 -42 -8 -24 -1 -88 -5 -143
-9 -82 -6 -101 -11 -102 -24 -3 -36 -45 -199 -69 -269 l-26 -74 21 -77 c27
-100 41 -205 47 -366 3 -71 7 -136 9 -142 3 -7 1 -13 -3 -13 -4 0 -8 -27 -9
-60 -1 -33 -7 -85 -13 -116 -10 -46 -9 -58 2 -65 10 -7 10 -9 -2 -9 -13 0 -13
-1 0 -10 11 -7 5 -14 -30 -30 -25 -11 -36 -18 -25 -14 38 12 114 16 170 9 47
-5 64 -14 106 -51 27 -24 57 -44 67 -44 9 0 24 -5 32 -11 11 -8 7 -9 -17 -4
-44 9 -41 2 10 -28 36 -21 74 -60 136 -140 7 -9 24 -45 37 -80 23 -63 32 -53
13 16 -6 22 -8 41 -5 44 13 13 36 -23 66 -105 29 -80 107 -285 149 -392 10
-25 30 -72 46 -105 47 -101 89 -209 134 -343 71 -209 117 -272 200 -272 31 0
40 -5 49 -25 7 -14 12 -38 12 -53 0 -15 6 -34 13 -43 9 -12 10 -60 1 -215 -6
-109 -12 -290 -13 -401 -1 -111 -6 -250 -11 -309 -5 -61 -6 -112 -1 -118 25
-31 48 -84 41 -95 -5 -9 -14 -2 -29 22 -11 19 -21 39 -21 46 0 20 -16 12 -28
-14 -15 -32 -15 -65 -1 -65 6 0 8 9 4 20 -4 11 -2 20 4 20 6 0 11 -13 11 -30
0 -16 7 -33 15 -38 9 -4 17 -19 19 -33 1 -14 6 -31 11 -38 4 -8 9 -32 11 -55
4 -65 15 -95 46 -129 17 -19 27 -39 24 -50 -2 -9 0 -14 6 -11 5 3 15 -2 22
-11 7 -10 28 -23 47 -29 24 -8 38 -22 54 -53 11 -24 26 -43 34 -43 11 0 9 -4
-5 -15 -11 -8 -14 -15 -6 -15 6 0 12 -9 12 -20 0 -11 9 -29 19 -39 11 -11 24
-36 30 -57 5 -20 18 -45 28 -56 14 -15 15 -24 6 -47 -9 -25 -8 -28 8 -24 12 4
22 -5 34 -27 12 -23 20 -29 27 -22 8 8 8 15 -1 26 -7 8 -9 21 -5 27 5 9 2 10
-9 6 -12 -4 -17 2 -23 26 -3 17 -14 43 -23 56 l-16 24 28 -17 c15 -10 27 -23
27 -28 0 -5 9 -21 20 -35 11 -14 17 -29 14 -34 -3 -5 4 -22 15 -38 12 -16 21
-36 21 -44 0 -8 7 -18 16 -21 8 -3 24 -25 34 -50 11 -24 27 -49 35 -56 8 -7
15 -18 15 -26 0 -15 41 -87 52 -92 16 -7 7 -32 -10 -32 -18 0 -18 -4 -6 -68
15 -76 18 -119 7 -108 -5 4 -13 42 -20 83 -10 69 -22 92 -46 93 -5 0 -11 -9
-14 -21 -3 -12 -11 -18 -19 -15 -8 3 -14 2 -14 -3 0 -5 9 -11 20 -14 11 -3 20
-10 20 -16 0 -20 -30 -12 -57 15 -28 28 -44 24 -25 -6 7 -11 12 -27 12 -35 0
-8 7 -15 15 -15 8 0 12 -6 9 -14 -3 -9 3 -17 15 -21 13 -4 18 -11 14 -22 -5
-12 -2 -15 8 -11 8 3 20 -1 27 -8 7 -8 8 -14 2 -14 -14 0 -13 -46 2 -73 10
-20 10 -21 -5 -8 -10 7 -17 18 -17 23 0 6 -13 27 -28 47 -16 20 -37 58 -47 85
-11 27 -29 60 -42 72 -25 25 -43 33 -25 11 15 -19 27 -81 13 -73 -6 4 -11 15
-11 25 0 22 -41 61 -64 61 -16 0 -16 -3 3 -29 12 -16 21 -34 21 -39 0 -6 9
-31 20 -56 19 -45 19 -46 0 -36 -36 19 -44 10 -16 -19 18 -19 34 -27 47 -24
10 3 19 0 19 -6 0 -6 5 -11 11 -11 7 0 9 9 6 23 -4 12 -2 29 4 37 9 13 10 13
7 0 -3 -8 8 -25 24 -38 15 -13 28 -29 28 -35 0 -12 40 -43 51 -39 4 0 9 -10
12 -23 2 -14 0 -25 -5 -25 -5 0 -6 -6 -2 -12 4 -7 -4 -3 -17 9 -21 18 -127 73
-143 73 -16 0 9 -29 27 -32 15 -2 23 -11 25 -28 5 -35 18 -46 37 -30 15 12 16
11 13 -6 -2 -15 2 -18 20 -17 12 2 22 -2 22 -8 0 -5 -4 -8 -9 -5 -5 4 -11 0
-14 -6 -3 -10 -12 -9 -35 4 -33 20 -42 22 -42 10 0 -5 17 -16 38 -25 45 -20
112 -23 112 -5 0 9 3 9 12 0 13 -13 140 -17 151 -5 4 3 2 12 -5 20 -6 7 -8 16
-4 20 8 8 31 -14 31 -30 0 -7 18 -13 43 -15 32 -2 42 0 42 12 0 14 -29 76 -41
86 -9 9 -51 112 -46 116 2 3 16 -22 31 -53 15 -32 40 -80 56 -108 l28 -50
1826 -3 1826 -2 0 3329 0 3330 -21 36 c-12 20 -36 42 -53 49 -27 12 -28 15
-13 21 25 10 66 -10 77 -37 5 -15 9 66 9 225 l1 247 -323 0 -322 0 3 -45 c4
-41 2 -46 -23 -55 -14 -5 -69 -10 -121 -10 -108 0 -114 6 -63 65 32 36 56 43
88 25 13 -6 24 -5 37 5 17 13 -6 14 -185 15 -160 0 -202 -3 -193 -12 7 -7 12
-22 12 -34 0 -13 5 -26 10 -29 12 -7 12 -16 2 -33 -9 -13 -108 -33 -128 -25
-31 12 -22 94 13 121 14 10 -5 12 -105 12 -120 0 -122 0 -122 -22 0 -13 -7
-113 -15 -223 -19 -263 -22 -238 20 -233 21 2 35 0 35 -7 0 -17 -22 -35 -43
-35 -10 0 -15 -5 -12 -10 4 -6 14 -8 23 -6 10 3 31 2 47 -3 l30 -8 -42 -7
c-23 -4 -62 -6 -87 -5 -60 4 -67 -5 -55 -66 8 -43 7 -53 -11 -77 -26 -35 -25
-41 3 -35 12 3 65 2 117 -2 52 -4 101 -6 108 -3 16 5 16 104 0 120 -9 9 -8 16
5 30 9 10 17 24 17 31 0 21 25 6 28 -17 5 -33 22 -26 22 8 0 18 5 30 13 30 9
0 12 -11 9 -35 -4 -35 13 -50 24 -21 7 19 72 49 90 42 26 -10 94 5 94 20 0 8
-10 14 -24 14 -38 0 -59 27 -52 68 11 71 80 104 135 66 19 -14 22 -23 18 -55
-3 -21 -15 -51 -26 -68 l-21 -30 27 -13 c33 -16 46 -59 27 -86 -8 -11 -15 -31
-17 -44 -3 -18 -11 -24 -35 -26 -17 -2 -40 2 -51 8 -16 8 -27 6 -53 -10 l-32
-19 -24 22 c-13 12 -27 21 -30 19 -4 -1 -9 12 -13 30 -5 31 -6 30 -18 -25 -7
-32 -11 -61 -8 -63 2 -2 127 -8 278 -12 275 -8 319 -15 319 -47 0 -14 -28 -22
-90 -27 -19 -1 -38 -7 -41 -11 -4 -5 -118 -2 -265 7 -409 26 -506 35 -500 45
3 3 34 4 70 1 45 -4 66 -2 66 6 0 15 -112 34 -201 34 -53 1 -69 3 -57 10 10 6
14 18 11 29 -3 13 4 29 22 46 16 14 22 25 15 25 -11 0 -37 -25 -69 -65 -4 -6
-11 -23 -15 -38 -3 -15 -11 -27 -17 -27 -6 0 -7 -5 -3 -12 5 -7 3 -8 -5 -3 -7
4 -11 18 -8 31 2 13 0 24 -4 24 -5 0 -9 -14 -9 -31 0 -19 -4 -28 -11 -23 -10
6 -9 16 12 97 13 48 30 48 22 0 -6 -34 -5 -36 9 -22 25 24 59 219 59 328 0 76
-6 111 -25 166 -31 89 -51 127 -76 150 -11 10 -20 29 -20 42 0 17 -6 23 -21
23 -13 0 -18 -4 -13 -11 5 -9 -1 -10 -22 -4 -16 4 -133 10 -261 12 -219 4
-233 3 -255 -16 -13 -10 -43 -35 -68 -53 -35 -26 -45 -41 -46 -64 0 -16 -17
-61 -37 -99 -19 -39 -39 -83 -42 -98 -5 -18 -14 -27 -28 -27 -19 0 -20 4 -15
180 l5 179 -593 1 c-589 0 -594 0 -594 -20 0 -13 -7 -20 -20 -20 -10 0 -23 -7
-28 -15 -10 -18 -54 -14 -60 5 -3 8 1 11 10 7 17 -6 38 10 38 30 0 9 -15 13
-45 13 -26 0 -45 -5 -45 -11 0 -7 -12 -9 -32 -7 -18 3 -46 1 -61 -5 -21 -7
-39 -5 -74 8 -34 13 -48 15 -51 7 -5 -15 -58 -16 -67 -2 -3 6 -36 10 -72 10
-50 0 -69 -4 -78 -17 -9 -13 -14 -13 -20 -3 -5 9 -4 11 3 6 7 -4 12 -2 12 3 0
6 -21 11 -50 11 -27 0 -50 -4 -50 -9 0 -16 21 -24 33 -12 13 13 31 15 23 2 -3
-4 12 -13 33 -19 42 -13 59 -29 105 -99 30 -44 66 -73 54 -42 -4 11 6 14 48
14 29 -1 56 -4 60 -8 4 -4 26 -7 48 -6 31 0 36 2 21 9 -15 6 -12 7 16 7 32 -1
35 -3 22 -15 -8 -9 -19 -26 -24 -39 -7 -20 -15 -23 -58 -23 -55 0 -111 -20
-142 -51 -19 -19 -19 -21 -4 -33 13 -9 16 -20 10 -44 -8 -37 -50 -92 -71 -92
-21 0 -34 -34 -25 -66 11 -39 -1 -75 -34 -108 -19 -19 -34 -26 -49 -22 -11 2
-37 9 -56 13 -29 7 -40 18 -66 68 -17 32 -43 69 -58 81 -14 13 -26 27 -26 31
0 13 -156 7 -232 -8 -78 -15 -88 -10 -108 51 -7 22 -16 40 -20 40 -3 0 -11 19
-17 43 -16 58 -45 93 -99 116 -47 21 -62 37 -18 21 33 -13 54 -13 34 0 -9 6
-10 10 -3 10 6 0 45 4 85 10 40 5 124 11 186 14 100 4 112 2 112 -12 0 -11 3
-13 8 -6 4 6 20 14 35 18 26 6 27 5 18 -13 -19 -34 -12 -32 23 6 19 21 52 52
74 68 37 27 50 46 48 68 -1 5 -156 8 -344 7 -334 -1 -345 -1 -373 -22 -32 -24
-42 -21 -108 27 -28 21 -37 23 -49 12 -12 -9 -16 -9 -19 1 -7 18 -73 16 -73
-3 0 -8 -10 -17 -22 -20 -13 -3 -165 -6 -338 -8 l-315 -2 -3 23 c-3 19 -10 22
-44 22 -35 0 -40 -2 -35 -20 4 -15 -1 -21 -16 -24 -47 -10 -416 -28 -426 -22
-6 4 -11 18 -11 31 0 29 -13 39 -40 30 -12 -4 -20 -15 -20 -29 0 -20 -6 -24
-42 -29 -52 -7 -58 -3 -58 35 l0 30 -462 -6 c-255 -3 -469 -5 -475 -5 -39 3
-155 -1 -200 -6 -36 -5 -53 -3 -53 4 0 6 -19 11 -45 11 -25 0 -45 -4 -45 -10
0 -5 -16 -10 -35 -10 -19 0 -35 5 -35 10 0 18 -111 12 -132 -7 -13 -11 -42
-19 -84 -21 -63 -4 -70 -1 -65 31 0 4 -28 7 -64 7 -51 0 -63 -3 -59 -14 8 -20
-5 -25 -74 -29 -56 -4 -61 -3 -64 17 -3 19 -10 21 -70 22 -38 1 -68 -2 -68 -7
0 -5 5 -9 10 -9 6 0 10 -7 10 -15 0 -12 -14 -15 -69 -15 -65 0 -69 1 -75 25
-6 25 -8 26 -89 23 -71 -3 -82 -6 -85 -22 -2 -10 2 -23 10 -28 9 -6 4 -8 -17
-6 -24 2 -31 8 -33 31 -3 24 -8 27 -39 27 l-36 0 7 -87z m8272 44 c2 -2 7 -17
10 -34 6 -29 4 -30 -33 -36 -21 -4 -55 -7 -76 -7 -35 0 -38 2 -32 23 4 12 19
34 35 49 25 23 33 26 61 18 17 -5 33 -11 35 -13z m-2887 -64 c0 -12 -109 -64
-109 -53 0 5 21 21 48 34 50 27 62 30 61 19z m3464 -35 c-2 -23 -9 -49 -17
-57 -7 -9 -14 -31 -14 -48 0 -20 -13 -50 -33 -78 -19 -27 -35 -63 -38 -88 -6
-45 -29 -60 -56 -37 -24 20 -9 173 21 227 24 41 110 123 130 123 6 0 9 -17 7
-42z m-7992 -108 c13 -7 19 -7 19 0 0 14 163 13 211 -1 57 -17 81 -75 77 -180
-2 -44 -6 -79 -10 -79 -5 0 -8 -7 -8 -16 0 -9 -6 -14 -12 -12 -8 3 -15 29 -18
64 l-5 59 -44 3 c-53 4 -61 -2 -63 -56 -1 -22 -5 -39 -9 -36 -5 3 -7 -9 -5
-25 l3 -31 -77 0 -78 0 -8 68 -9 67 -43 -1 c-23 0 -44 -3 -46 -5 -3 -2 -6 -23
-9 -46 -2 -23 -10 -49 -16 -57 -7 -8 -10 -20 -6 -26 4 -6 -19 -10 -69 -10
l-75 0 -6 58 c-9 82 -9 81 -55 77 -48 -3 -54 -8 -69 -56 l-12 -36 -47 24 c-26
13 -50 33 -54 43 -10 27 -95 29 -105 3 -4 -10 -19 -31 -35 -46 -27 -27 -39
-55 -18 -42 6 3 10 1 10 -4 0 -6 -10 -11 -22 -12 -22 0 -22 -1 -3 -9 18 -8 17
-9 -7 -9 -25 -1 -27 2 -32 62 -18 206 -18 200 -1 194 8 -4 15 -1 16 6 0 7 4 3
9 -8 6 -15 9 -16 9 -4 1 9 7 17 14 18 15 2 223 20 292 25 28 3 70 7 95 10 25
3 98 10 164 15 65 6 121 12 124 15 7 8 10 8 33 -4z m7139 -144 c0 -2 -15 -9
-32 -15 -30 -10 -31 -9 -14 4 18 14 46 20 46 11z m-15 -56 c-3 -5 -20 -10 -36
-10 -18 0 -28 4 -24 10 3 6 20 10 36 10 18 0 28 -4 24 -10z m-1816 -84 c5 -6
12 -23 16 -38 5 -21 3 -27 -14 -33 -21 -6 -131 15 -131 25 0 3 18 20 40 37 41
31 69 34 89 9z m-1949 -7 c0 -24 -23 -21 -28 4 -2 10 3 17 12 17 10 0 16 -9
16 -21z m-3830 -52 c9 -26 19 -45 22 -42 2 3 3 -9 0 -25 -5 -35 -15 -44 -41
-35 -16 5 -24 18 -31 53 -1 4 -10 10 -21 14 -40 15 -15 91 29 86 21 -2 29 -12
42 -51z m697 37 c-3 -3 -12 -4 -19 -1 -8 3 -5 6 6 6 11 1 17 -2 13 -5z m2722
-3 c18 -12 8 -81 -15 -98 -30 -22 -47 -4 -41 45 6 53 26 72 56 53z m4694 -53
c-10 -56 -22 -67 -23 -22 0 22 3 44 7 47 15 16 22 5 16 -25z m572 3 c3 -5 1
-12 -5 -16 -5 -3 -10 1 -10 9 0 18 6 21 15 7z m-2540 -31 c-3 -5 -12 -10 -18
-10 -7 0 -6 4 3 10 19 12 23 12 15 0z m2464 -53 c1 -10 -3 -15 -9 -12 -5 3
-10 21 -9 38 0 27 2 29 9 12 5 -11 9 -28 9 -38z m121 35 c0 -12 -28 -48 -33
-42 -8 8 11 50 23 50 5 0 10 -4 10 -8z m-4237 -24 c12 -7 27 -12 32 -13 15 0
13 -56 -2 -62 -7 -3 -22 6 -33 20 -11 13 -31 28 -45 31 -14 4 -25 11 -25 16 0
6 -6 10 -14 10 -8 0 -18 5 -22 12 -9 14 77 4 109 -14z m2002 -17 c115 -33 236
-59 295 -65 63 -7 174 -40 209 -62 70 -47 111 -110 111 -174 0 -38 2 -40 30
-40 34 0 38 16 20 80 -18 68 -22 140 -7 140 15 0 30 -27 58 -109 23 -65 24
-92 5 -85 -15 6 -30 -33 -16 -41 5 -3 32 -10 61 -15 58 -11 153 -52 183 -78
24 -22 50 -81 92 -211 49 -149 116 -321 126 -321 4 0 8 -15 8 -34 0 -21 6 -36
16 -40 8 -3 12 -10 9 -16 -3 -5 0 -10 7 -11 10 0 10 -2 1 -6 -17 -6 -16 -80 2
-176 8 -43 15 -101 15 -127 0 -27 5 -52 10 -55 6 -4 18 -24 27 -46 8 -21 19
-39 23 -39 5 0 28 35 51 78 23 42 51 89 61 104 l19 28 -60 87 -59 87 28 36
c16 19 50 59 77 88 l48 52 105 -35 106 -35 -4 -103 c-3 -66 -9 -110 -18 -125
-8 -13 -12 -32 -9 -42 7 -22 -5 -26 -23 -8 -8 8 -15 8 -26 -1 -13 -11 -15 -30
-10 -103 7 -123 3 -138 -42 -138 -21 0 -33 -4 -29 -10 3 -5 16 -10 29 -10 12
0 26 -3 30 -7 16 -16 104 -43 146 -45 25 -1 -63 -5 -195 -8 -255 -5 -788 3
-917 15 -68 7 -77 10 -80 29 -3 19 -11 21 -68 24 -35 2 -70 8 -77 14 -19 15
-47 -13 -62 -61 -6 -22 -18 -90 -26 -153 -8 -62 -20 -129 -27 -148 -6 -19 -12
-43 -13 -55 -4 -35 -5 -36 -16 -30 -6 4 -8 13 -5 21 3 7 1 16 -4 19 -6 4 -10
0 -10 -8 0 -8 -10 -15 -22 -15 -37 0 -201 -33 -222 -44 -15 -8 -16 -12 -5 -19
26 -17 94 -32 139 -30 25 1 62 -1 83 -5 36 -6 37 -7 37 -48 0 -65 -11 -69 -94
-34 -39 17 -91 37 -116 44 -25 7 -63 20 -85 28 -22 8 -63 15 -92 16 -28 0 -54
4 -57 8 -2 4 -21 9 -41 10 -19 2 -47 7 -61 12 -14 6 -36 10 -50 10 -13 0 -24
5 -24 10 0 6 11 8 25 4 15 -4 25 -2 25 4 0 14 -69 9 -78 -4 -5 -7 -15 -6 -30
2 -16 8 -19 13 -10 16 23 8 -11 38 -43 38 -32 0 -48 16 -22 23 16 4 15 6 -4
12 -13 4 -19 12 -16 21 3 9 -2 14 -16 14 -12 0 -21 -4 -21 -10 0 -5 -6 -10
-14 -10 -8 0 -17 -7 -20 -16 -5 -14 -7 -14 -22 0 -16 17 -65 22 -78 9 -13 -13
-76 -9 -76 4 0 6 5 15 11 19 12 7 -52 43 -80 45 -11 0 -12 2 -3 6 6 2 12 11
12 19 0 8 9 14 21 14 11 0 17 -4 14 -10 -3 -5 1 -10 9 -10 21 0 16 39 -6 46
-25 8 -90 -17 -84 -33 3 -8 -7 -16 -26 -21 l-32 -8 30 -12 c16 -6 48 -16 71
-22 44 -11 58 -23 48 -39 -3 -6 -19 -4 -39 4 -18 8 -43 11 -54 8 -15 -3 -24 0
-28 11 -9 22 -24 20 -24 -4 0 -15 7 -20 28 -21 25 -1 25 -1 -8 -11 -39 -11
-63 -28 -40 -28 11 -1 10 -4 -4 -15 -18 -14 -18 -15 8 -24 35 -14 33 -17 -12
-17 -44 1 -78 26 -59 45 8 8 4 11 -16 9 -15 -1 -27 -8 -27 -14 0 -6 -25 -38
-55 -70 -64 -68 -63 -43 1 29 l42 47 -5 80 -6 80 52 105 c34 66 50 111 46 124
-3 10 0 41 6 67 6 27 11 78 10 112 -1 49 4 70 19 92 17 24 18 35 10 83 -12 78
2 122 56 170 46 40 55 67 29 89 -9 7 -31 27 -49 43 l-33 30 3 100 c2 55 1 91
-2 80 -10 -36 -56 -150 -66 -162 -5 -6 -12 -44 -15 -84 -4 -40 -9 -65 -12 -55
-4 9 -3 56 1 104 13 156 15 223 7 210 -6 -8 -9 -1 -9 20 0 23 4 31 13 27 6 -4
4 0 -5 8 -21 17 -24 37 -5 37 8 0 7 4 -3 10 -12 8 -11 10 6 10 20 0 44 35 44
64 0 27 64 108 105 131 45 27 152 51 274 63 72 7 74 6 105 -23 37 -36 66 -79
66 -99 0 -7 7 -17 16 -20 8 -3 13 -9 11 -13 -2 -5 9 -18 24 -31 16 -13 29 -19
29 -13 0 6 5 11 11 11 11 0 4 -48 -9 -62 -14 -14 -81 16 -93 42 -11 24 -12 24
-20 5 -4 -11 -8 -25 -8 -32 -1 -19 110 -133 143 -147 57 -23 292 26 353 74 14
11 29 20 33 20 5 0 19 9 32 20 126 107 360 249 411 250 22 1 91 28 72 29 -29
2 -182 -53 -260 -94 -76 -39 -102 -47 -164 -52 -51 -4 -80 -12 -91 -23 -11
-11 -27 -16 -41 -13 -16 3 -39 -5 -64 -23 -34 -23 -49 -26 -100 -25 -33 1 -69
2 -79 2 -25 0 -116 58 -116 75 0 6 -43 53 -96 103 -79 76 -94 95 -88 113 10
33 84 107 144 145 80 51 100 72 100 106 l0 30 53 -6 c28 -3 61 -2 72 3 35 15
118 11 190 -9z m2175 -16 c0 -8 -4 -15 -10 -15 -5 0 -10 7 -10 15 0 8 5 15 10
15 6 0 10 -7 10 -15z m-3690 -45 c-8 -5 -22 -10 -30 -10 -13 0 -13 1 0 10 8 5
22 10 30 10 13 0 13 -1 0 -10z m-4350 -47 c0 -8 6 -13 13 -10 6 2 11 10 10 16
-2 7 13 11 37 11 36 0 42 -4 66 -41 14 -23 24 -50 21 -60 -3 -11 -1 -19 4 -19
5 0 9 -4 9 -8 0 -5 -8 -9 -17 -9 -81 1 -93 -3 -93 -27 0 -13 -5 -26 -11 -28
-6 -2 -12 -21 -14 -42 -2 -21 -5 -39 -7 -41 -2 -2 -37 -5 -78 -7 -74 -3 -75
-3 -78 22 -1 14 -5 44 -8 68 l-5 42 -49 0 c-45 0 -51 -3 -65 -29 -8 -17 -12
-36 -9 -44 3 -8 1 -18 -5 -22 -6 -3 -11 -12 -11 -18 0 -7 4 -6 10 3 8 12 10
11 10 -7 0 -19 -6 -23 -30 -23 -37 0 -38 -14 -6 -78 21 -43 76 -208 76 -228 0
-8 -47 59 -77 110 -7 12 -13 15 -13 8 0 -10 -4 -10 -20 0 -11 7 -20 22 -20 33
0 12 3 15 8 9 11 -16 37 -23 53 -13 11 7 12 12 2 26 -44 64 -53 104 -53 232
-1 134 -6 153 -51 170 -17 6 -3 8 54 7 55 0 77 -4 77 -13 0 -7 9 -13 21 -13
16 0 19 4 14 22 -7 20 -5 21 61 16 38 -3 80 -2 94 1 36 10 80 1 80 -16z m6663
10 c-7 -2 -19 -2 -25 0 -7 3 -2 5 12 5 14 0 19 -2 13 -5z m-183 -103 c0 -5 -4
-10 -10 -10 -5 0 -10 5 -10 10 0 6 5 10 10 10 6 0 10 -4 10 -10z m-3564 -48
c-9 -14 30 -40 72 -47 22 -3 48 -15 58 -26 9 -10 23 -19 29 -19 21 0 59 -36
51 -48 -4 -8 -13 -5 -27 9 -14 14 -28 19 -45 15 -17 -5 -22 -3 -18 7 7 20 -24
43 -38 29 -7 -7 -17 -12 -22 -12 -6 0 -5 4 2 9 10 6 10 10 -3 21 -10 8 -19 9
-27 2 -31 -24 -98 -15 -98 13 0 9 39 5 45 -5 12 -20 24 1 15 26 -12 32 -12 34
1 34 5 0 8 -4 5 -8z m104 -7 c0 -8 -4 -15 -10 -15 -5 0 -10 7 -10 15 0 8 5 15
10 15 6 0 10 -7 10 -15z m-2853 -27 c-3 -7 -5 -2 -5 12 0 14 2 19 5 13 2 -7 2
-19 0 -25z m2803 23 c0 -6 -4 -13 -10 -16 -5 -3 -10 1 -10 9 0 9 5 16 10 16 6
0 10 -4 10 -9z m90 -32 c0 -5 -4 -9 -10 -9 -5 0 -10 7 -10 16 0 8 5 12 10 9 6
-3 10 -10 10 -16z m-197 -96 c26 -29 35 -29 47 2 11 30 31 32 48 5 7 -11 17
-20 23 -20 8 0 8 4 0 14 -9 11 -9 16 0 22 8 4 18 -1 27 -14 8 -12 23 -22 34
-22 14 0 18 -5 14 -16 -3 -9 -6 -20 -6 -26 0 -16 -103 -1 -116 17 -8 11 -20
13 -44 8 -22 -4 -31 -3 -27 4 4 6 -7 16 -23 23 -26 11 -28 15 -18 34 9 16 12
18 16 6 2 -8 14 -25 25 -37z m27 -72 c0 -3 -17 -6 -38 -5 -58 2 -70 6 -37 13
32 7 75 3 75 -8z m18 -59 c2 -7 -5 -12 -17 -12 -14 0 -19 5 -14 15 6 17 25 15
31 -3z m42 -42 c0 -11 -4 -20 -9 -20 -5 0 -7 9 -4 20 3 11 7 20 9 20 2 0 4 -9
4 -20z m-87 -40 l32 -8 -30 -1 c-29 0 -65 18 -65 34 0 4 7 2 15 -5 8 -7 30
-16 48 -20z m-3583 6 c0 -3 -4 -8 -10 -11 -5 -3 -10 -1 -10 4 0 6 5 11 10 11
6 0 10 -2 10 -4z m3730 -26 c0 -5 -2 -10 -4 -10 -3 0 -8 5 -11 10 -3 6 -1 10
4 10 6 0 11 -4 11 -10z m-3740 -24 c0 -3 -4 -8 -10 -11 -5 -3 -10 -1 -10 4 0
6 5 11 10 11 6 0 10 -2 10 -4z m404 -66 c6 -43 5 -52 -5 -43 -6 6 -12 25 -13
41 -1 17 -5 27 -10 24 -5 -3 -6 2 -3 12 4 10 7 23 7 29 0 7 3 7 9 2 5 -6 12
-35 15 -65z m3203 20 c14 -11 21 -20 15 -20 -12 0 -60 39 -49 40 5 0 20 -9 34
-20z m-3557 -11 c0 -6 -4 -7 -10 -4 -5 3 -10 11 -10 16 0 6 5 7 10 4 6 -3 10
-11 10 -16z m3774 6 c3 -10 -1 -15 -14 -15 -20 0 -33 13 -23 24 11 11 31 6 37
-9z m-3590 -25 c31 -28 56 -83 43 -97 -11 -11 -44 9 -55 32 -13 28 -32 34 -32
10 0 -24 -17 -17 -24 10 -8 30 -36 34 -36 5 0 -11 -4 -20 -10 -20 -19 0 -10
34 17 62 34 36 54 35 97 -2z m166 -93 c0 -5 -7 -2 -15 6 -8 8 -17 35 -20 59
l-6 43 21 -50 c11 -27 20 -54 20 -58z m3434 51 c3 -13 6 -35 6 -50 0 -23 -4
-28 -25 -28 -22 0 -25 3 -19 25 5 19 2 25 -9 25 -9 0 -22 6 -30 14 -8 8 -25
16 -38 19 -13 2 -5 3 19 2 23 -1 45 1 48 6 11 18 42 9 48 -13z m650 -7 c10
-15 -32 -20 -51 -5 -16 12 -15 13 14 14 17 0 34 -4 37 -9z m66 -31 c0 -5 -9
-10 -20 -10 -11 0 -20 5 -20 10 0 6 9 10 20 10 11 0 20 -4 20 -10z m-4166 -72
c12 -23 13 -34 5 -39 -8 -5 -5 -9 7 -12 10 -2 4 -4 -13 -3 -36 1 -41 7 -18 26
14 11 13 14 -1 25 -10 6 -14 17 -10 23 10 17 13 15 30 -20z m963 -25 c13 -10
14 -17 5 -35 -11 -23 -11 -23 -11 5 -1 15 -5 27 -11 27 -5 0 -9 12 -9 28 1 20
2 22 6 7 3 -11 12 -26 20 -32z m4140 -60 c-3 -10 -5 -4 -5 12 0 17 2 24 5 18
2 -7 2 -21 0 -30z m-5097 -3 c-13 -8 -12 -10 3 -10 9 0 17 -4 17 -10 0 -13 -6
-13 -31 0 -24 13 -25 27 -1 32 23 6 30 -1 12 -12z m20 -71 c0 -6 -4 -7 -10 -4
-5 3 -10 11 -10 16 0 6 5 7 10 4 6 -3 10 -11 10 -16z m17 -61 c-3 -8 -6 -5 -6
6 -1 11 2 17 5 13 3 -3 4 -12 1 -19z m5060 -110 c-2 -13 -4 -3 -4 22 0 25 2
35 4 23 2 -13 2 -33 0 -45z m2381 19 c3 -16 1 -17 -17 -5 -25 16 -27 31 -4 26
10 -2 19 -11 21 -21z m54 -52 c3 -13 1 -22 -3 -19 -9 5 -13 44 -5 44 2 0 6
-11 8 -25z m-2435 -57 c-3 -8 -6 -5 -6 6 -1 11 2 17 5 13 3 -3 4 -12 1 -19z
m-219 -75 c6 -6 12 -16 12 -22 0 -6 11 -21 25 -34 25 -22 25 -24 8 -39 -20
-17 -152 -88 -165 -88 -14 0 -9 23 9 42 16 18 15 19 -13 17 -51 -4 -74 9 -74
42 0 28 -2 30 -32 27 -18 -2 -34 -9 -34 -15 -1 -7 -3 -16 -4 -20 -1 -5 -2 -10
-2 -13 0 -3 -12 -16 -25 -30 -14 -14 -23 -19 -19 -12 4 6 2 12 -4 12 -6 0 -13
-7 -16 -15 -4 -8 -11 -15 -16 -15 -6 0 6 20 26 44 20 24 36 49 36 55 0 20 -21
11 -46 -18 -27 -32 -80 -50 -64 -22 4 9 32 39 62 67 l54 51 134 -1 c89 -1 139
-5 148 -13z m65 -21 c9 -8 17 -19 17 -24 0 -11 -59 33 -59 45 -1 9 16 1 42
-21z m-3743 -82 c0 -5 -2 -10 -4 -10 -3 0 -8 5 -11 10 -3 6 -1 10 4 10 6 0 11
-4 11 -10z m6644 -56 c4 -11 1 -14 -11 -12 -9 2 -18 9 -21 16 -6 18 25 15 32
-4z m1 -55 c-8 -12 -32 -12 -40 1 -11 18 5 31 26 20 11 -6 17 -15 14 -21z
m-4845 -9 c0 -5 -7 -10 -16 -10 -8 0 -12 5 -9 10 3 6 10 10 16 10 5 0 9 -4 9
-10z m1675 -9 c-3 -6 -11 -11 -17 -11 -6 0 -6 6 2 15 14 17 26 13 15 -4z
m3648 -8 c-7 -2 -19 -2 -25 0 -7 3 -2 5 12 5 14 0 19 -2 13 -5z m-230 -20 c-7
-2 -21 -2 -30 0 -10 3 -4 5 12 5 17 0 24 -2 18 -5z m-5128 -23 c-28 -12 -37
-12 -30 0 3 6 16 10 28 9 21 0 21 -1 2 -9z m28 -73 c-3 -4 -15 -7 -28 -5 -25
3 -55 -17 -55 -38 0 -24 -19 -15 -26 11 -4 16 0 34 9 49 16 24 17 24 61 8 24
-9 42 -20 39 -25z m392 -37 c3 -6 -4 -10 -17 -10 -18 0 -20 2 -8 10 19 12 18
12 25 0z m-214 -227 c-8 -15 -10 -15 -11 -2 0 17 10 32 18 25 2 -3 -1 -13 -7
-23z m2547 -27 l0 -33 -39 10 c-21 5 -39 13 -39 18 0 5 -12 10 -27 10 -22 1
35 17 99 28 3 1 6 -14 6 -33z m-4621 -14 c2 -23 1 -24 -7 -7 -11 24 -13 51 -3
41 4 -4 8 -19 10 -34z m4390 32 c-3 -3 -12 -4 -19 -1 -8 3 -5 6 6 6 11 1 17
-2 13 -5z m1221 -60 l-3 -57 58 -40 c75 -54 75 -73 1 -83 -48 -6 -60 -4 -84
15 -16 11 -36 21 -45 21 -22 0 -20 24 10 158 5 20 32 39 58 41 5 1 7 -24 5
-55z m-5598 -49 c-7 -9 -15 -13 -17 -11 -7 7 7 26 19 26 6 0 6 -6 -2 -15z
m-63 -37 c-3 -8 -6 -5 -6 6 -1 11 2 17 5 13 3 -3 4 -12 1 -19z m40 -10 c-3 -8
-6 -5 -6 6 -1 11 2 17 5 13 3 -3 4 -12 1 -19z m-282 -17 c3 -5 1 -12 -5 -16
-5 -3 -10 1 -10 9 0 18 6 21 15 7z m35 -11 c0 -5 -5 -10 -11 -10 -5 0 -7 5 -4
10 3 6 8 10 11 10 2 0 4 -4 4 -10z m5314 -25 c39 -8 75 -20 80 -26 8 -9 3 -10
-19 -4 -16 4 -42 7 -57 6 -27 0 -98 24 -98 34 0 8 20 6 94 -10z m-5274 -4 c0
-11 -35 -21 -72 -21 -29 0 -38 14 -15 23 21 9 87 7 87 -2z m5157 3 c-3 -3 -12
-4 -19 -1 -8 3 -5 6 6 6 11 1 17 -2 13 -5z m-985 -42 c-9 -6 -5 -12 13 -22 14
-7 25 -17 25 -21 0 -11 -41 -34 -60 -34 -12 0 -14 -13 -12 -65 3 -54 1 -63
-10 -52 -19 19 -15 129 6 170 9 17 24 32 34 32 12 0 14 -2 4 -8z m1033 -2 c-3
-5 -16 -10 -28 -10 -18 0 -19 2 -7 10 20 13 43 13 35 0z m79 1 c4 -5 0 -12 -6
-14 -7 -3 2 -6 21 -6 24 -1 32 -5 28 -15 -6 -15 65 -43 95 -38 32 6 19 -7 -19
-17 -51 -14 -80 -5 -92 30 -7 21 -16 29 -35 29 -22 0 -26 8 -17 38 2 6 20 1
25 -7z m146 -16 c11 -13 8 -14 -21 -9 -47 9 -60 24 -22 24 17 0 36 -7 43 -15z
m-6113 -21 c-3 -3 -12 -4 -19 -1 -8 3 -5 6 6 6 11 1 17 -2 13 -5z m6193 -8 c0
-3 -4 -8 -10 -11 -5 -3 -10 -1 -10 4 0 6 5 11 10 11 6 0 10 -2 10 -4z m-300
-38 c0 -12 -24 -10 -38 4 -20 20 -13 28 13 16 14 -6 25 -15 25 -20z m77 16
c-3 -3 -12 -4 -19 -1 -8 3 -5 6 6 6 11 1 17 -2 13 -5z m510 -19 c22 -8 44 -11
47 -8 10 10 18 -26 12 -51 -3 -14 -15 -27 -26 -31 -23 -7 -60 10 -60 28 0 7
-13 21 -30 30 -29 18 -38 36 -23 51 4 3 14 4 22 0 9 -3 35 -12 58 -19z m-477
-45 c16 -10 15 -12 -14 -28 -18 -9 -15 -11 25 -22 24 -6 58 -16 75 -21 17 -5
40 -9 52 -9 23 0 26 -7 16 -33 -4 -12 -12 -13 -37 -6 -18 5 -47 9 -65 9 -44 0
-103 25 -97 42 3 8 -7 19 -25 26 -37 17 -39 39 -2 45 48 7 57 7 72 -3z m1067
-9 c1 -11 -5 -22 -14 -25 -13 -5 -14 -4 -3 9 16 19 1 25 -62 22 -34 -1 -48 -6
-48 -16 0 -8 -3 -12 -6 -8 -4 3 -4 13 -1 22 5 11 22 15 70 15 55 0 63 -2 64
-19z m-644 -46 c-1 -5 -14 -11 -28 -13 -19 -3 -24 0 -19 13 7 17 51 17 47 0z
m-499 -1 c9 -3 16 -10 16 -14 0 -12 -113 -5 -136 8 -15 9 -7 11 43 12 34 0 68
-3 77 -6z m1136 -9 c0 -8 5 -15 10 -15 6 0 10 7 10 15 0 8 5 15 10 15 13 0 13
-6 -1 -31 -11 -22 -23 -18 -39 12 -7 13 -7 19 0 19 5 0 10 -7 10 -15z m-53
-51 c35 1 63 -2 63 -5 0 -12 -95 -16 -102 -5 -5 7 -8 6 -8 -3 0 -10 -8 -7 -25
9 -14 13 -25 31 -25 39 0 11 6 7 18 -10 15 -23 23 -26 79 -25z m-500 -9 c-3
-19 -1 -37 4 -40 16 -10 11 -75 -6 -75 -9 0 -15 -9 -15 -24 0 -13 -3 -31 -6
-40 -7 -17 -34 -22 -34 -6 0 6 7 10 16 10 9 0 12 5 8 12 -13 21 -12 50 3 55
18 7 17 73 -2 73 -7 0 -18 -6 -22 -14 -9 -14 -103 -29 -103 -15 0 13 22 23 85
39 49 12 61 19 63 38 2 12 6 22 9 22 3 0 3 -16 0 -35z m-1670 -47 c-3 -8 -6
-5 -6 6 -1 11 2 17 5 13 3 -3 4 -12 1 -19z m1293 3 c0 -10 -152 -103 -206
-126 -39 -16 -164 -21 -164 -6 0 4 15 11 33 15 97 18 129 27 154 41 16 8 55
31 88 50 59 34 95 44 95 26z m-10 -105 c0 -20 -55 -37 -83 -26 -22 9 -22 9 3
10 14 0 36 7 50 14 14 8 26 14 28 15 1 1 2 -5 2 -13z m914 -27 c-3 -5 -10 -7
-15 -3 -5 3 -7 10 -3 15 3 5 10 7 15 3 5 -3 7 -10 3 -15z m-2606 -463 c-29
-22 -47 -78 -63 -203 -15 -115 -37 -267 -50 -349 -7 -40 8 -102 40 -163 13
-26 107 -93 165 -119 15 -6 19 -11 9 -11 -37 -2 -188 99 -189 125 0 7 -6 14
-14 17 -18 7 -36 90 -31 142 3 22 9 92 15 155 19 200 31 294 41 328 14 42 56
92 77 92 15 -1 15 -2 0 -14z m3442 -406 c27 -19 32 -33 18 -55 -3 -6 -9 -27
-13 -48 -9 -44 -25 -49 -25 -7 0 17 4 30 9 30 5 0 12 12 16 27 5 20 2 31 -12
40 -15 12 -19 11 -25 -4 -5 -14 -7 -12 -7 10 -1 32 2 33 39 7z m-33 -88 c2
-16 -2 -22 -17 -22 -13 0 -20 7 -20 18 0 38 31 41 37 4z m-20 -89 c-11 -10
-27 8 -27 30 l0 21 16 -22 c9 -13 14 -26 11 -29z m33 2 c-7 -9 -15 -13 -18
-10 -3 2 1 11 8 20 7 9 15 13 18 10 3 -2 -1 -11 -8 -20z m-30 -92 c-10 -16
-11 -15 -6 7 3 14 6 34 7 45 1 13 3 11 6 -7 2 -15 -1 -35 -7 -45z m-3995 -683
c-3 -5 -12 -7 -20 -3 -21 7 -19 13 6 13 11 0 18 -4 14 -10z m12 -52 c-3 -8 -6
-5 -6 6 -1 11 2 17 5 13 3 -3 4 -12 1 -19z m27 -33 c-4 -8 -8 -15 -10 -15 -2
0 -4 7 -4 15 0 8 4 15 10 15 5 0 7 -7 4 -15z m-31 -80 c-3 -9 -8 -14 -10 -11
-3 3 -2 9 2 15 9 16 15 13 8 -4z m-18 -56 c4 -18 12 -29 19 -26 14 5 39 -27
29 -37 -11 -11 -23 -6 -23 9 0 18 -16 20 -23 3 -3 -7 -6 -2 -7 12 l-2 25 -8
-25 c-6 -19 -7 -14 -6 22 1 55 11 62 21 17z m65 -234 c7 -9 10 -19 6 -22 -4
-4 -11 -1 -16 6 -4 8 -15 11 -24 8 -13 -5 -15 -11 -6 -26 12 -23 13 -31 3 -31
-5 0 -14 12 -21 28 -11 23 -10 29 5 39 22 17 38 16 53 -2z m645 -605 c3 -5 1
-10 -4 -10 -6 0 -11 5 -11 10 0 6 2 10 4 10 3 0 8 -4 11 -10z m223 -334 c3
-12 -1 -17 -10 -14 -7 3 -15 13 -16 22 -3 12 1 17 10 14 7 -3 15 -13 16 -22z
m89 -142 c-3 -3 -12 -4 -19 -1 -8 3 -5 6 6 6 11 1 17 -2 13 -5z m-407 -123 c0
-25 -18 1 -25 34 l-6 30 15 -25 c8 -14 15 -32 16 -39z m24 -100 c-2 -2 -10 -1
-19 2 -10 4 -15 19 -14 44 l0 38 18 -40 c10 -22 17 -42 15 -44z m-244 39 c0
-11 -4 -20 -10 -20 -5 0 -10 9 -10 20 0 11 5 20 10 20 6 0 10 -9 10 -20z m328
-45 c-3 -3 -9 2 -12 12 -6 14 -5 15 5 6 7 -7 10 -15 7 -18z m-58 -87 c0 -5 -5
-8 -11 -8 -5 0 -7 5 -4 10 3 6 -1 10 -9 10 -10 0 -16 9 -16 23 l0 22 20 -25
c11 -14 20 -28 20 -32z m-226 -53 c3 -8 1 -15 -4 -15 -6 0 -10 7 -10 15 0 8 2
15 4 15 2 0 6 -7 10 -15z m140 -10 c-4 -8 -8 -15 -10 -15 -2 0 -4 7 -4 15 0 8
4 15 10 15 5 0 7 -7 4 -15z m101 -23 c-3 -3 -11 0 -18 7 -9 10 -8 11 6 5 10
-3 15 -9 12 -12z"/>
<path d="M10253 6404 c-58 -10 -174 -53 -185 -69 -4 -5 -8 -6 -8 -2 0 11 -40
-12 -40 -23 0 -9 80 -4 110 7 8 4 21 5 28 4 8 -1 19 2 26 8 6 5 34 13 60 16
42 6 48 5 43 -9 -5 -11 -1 -16 13 -16 11 0 20 5 20 10 0 6 -5 10 -11 10 -5 0
-8 4 -5 9 3 5 -1 12 -10 15 -14 5 -14 8 1 23 15 14 23 15 61 5 24 -7 59 -12
77 -12 31 1 31 1 12 16 -15 11 -40 14 -102 12 -46 -2 -86 -4 -90 -4z"/>
<path d="M11150 6308 c2 -16 39 -109 39 -98 1 24 -19 89 -29 95 -6 4 -10 5
-10 3z"/>
<path d="M11017 6219 c7 -7 15 -10 18 -7 3 3 -2 9 -12 12 -14 6 -15 5 -6 -5z"/>
<path d="M10145 6080 c3 -5 13 -10 21 -10 8 0 14 -4 14 -9 0 -16 112 -46 158
-42 24 2 12 31 -20 47 -37 20 -184 31 -173 14z"/>
<path d="M11258 5605 l4 -135 -34 18 c-25 14 -34 26 -36 52 -2 19 -12 45 -23
58 l-19 25 0 -51 c0 -28 -5 -85 -11 -128 -10 -72 -9 -80 11 -117 12 -21 20
-40 17 -43 -6 -7 -47 64 -47 82 0 8 -7 14 -15 14 -9 0 -33 9 -55 20 -47 24
-83 26 -100 5 -7 -8 -19 -15 -27 -15 -13 0 -13 -3 -3 -15 7 -8 20 -15 30 -15
9 0 32 -11 51 -25 60 -43 111 -67 145 -67 44 0 36 -14 -34 -63 -43 -30 -52
-40 -38 -43 10 -2 23 1 29 7 6 6 19 11 29 11 26 0 25 -78 -2 -113 -11 -14 -20
-31 -20 -39 1 -8 6 -6 16 7 22 30 47 8 51 -43 3 -41 2 -42 -28 -42 -23 0 -30
-4 -25 -15 3 -9 -3 -19 -15 -26 -27 -14 -16 -23 29 -26 108 -6 612 -15 612
-11 0 15 -26 75 -37 87 -8 7 -11 21 -8 30 7 22 -21 91 -43 107 -11 8 -13 20
-9 42 6 30 5 32 -23 32 -28 0 -44 -23 -21 -32 6 -2 6 -17 1 -38 -7 -31 -11
-30 -14 6 -2 16 -55 112 -66 119 -6 4 -10 16 -10 28 -1 34 -42 92 -65 92 -22
0 -55 44 -55 73 0 10 -5 23 -12 30 -11 11 -14 34 -17 137 -2 44 -25 85 -41 69
-5 -5 -12 -51 -16 -102 -4 -51 -9 -90 -11 -88 -3 2 -4 48 -4 102 1 103 -12
174 -32 174 -9 0 -11 -34 -9 -135z m93 -21 c-5 -16 -10 -21 -10 -12 -1 18 10
51 15 45 2 -1 -1 -16 -5 -33z m122 -321 c-7 -2 -19 -2 -25 0 -7 3 -2 5 12 5
14 0 19 -2 13 -5z m-300 -340 c-7 -2 -19 -2 -25 0 -7 3 -2 5 12 5 14 0 19 -2
13 -5z"/>
<path d="M11331 5694 c0 -11 3 -14 6 -6 3 7 2 16 -1 19 -3 4 -6 -2 -5 -13z"/>
<path d="M9611 5421 c-45 -43 -57 -61 -48 -70 14 -14 59 -14 92 1 33 15 32 25
-5 33 -64 14 -26 42 74 55 43 5 82 13 88 16 20 13 -17 24 -80 24 l-62 0 -59
-59z"/>
<path d="M11940 5284 c0 -8 5 -12 10 -9 6 3 10 10 10 16 0 5 -4 9 -10 9 -5 0
-10 -7 -10 -16z"/>
<path d="M12075 5230 c3 -5 8 -10 11 -10 2 0 4 5 4 10 0 6 -5 10 -11 10 -5 0
-7 -4 -4 -10z"/>
<path d="M11610 5200 c-12 -8 -9 -10 13 -10 16 0 26 4 22 10 -8 12 -16 12 -35
0z"/>
<path d="M9532 5169 c-2 -24 4 -32 37 -49 22 -11 45 -20 51 -20 20 0 9 31 -15
42 -14 6 -25 14 -25 18 0 4 -10 14 -23 23 -22 14 -23 14 -25 -14z"/>
<path d="M11959 5175 c-1 -3 -2 -9 -3 -14 0 -5 -4 -12 -7 -16 -4 -3 -3 -21 1
-40 4 -19 5 -56 3 -82 l-5 -48 25 35 c14 19 23 38 21 42 -3 4 2 20 9 35 8 15
18 43 22 61 6 31 6 32 -29 32 -20 0 -37 -2 -37 -5z"/>
<path d="M9520 5000 c0 -5 5 -10 11 -10 5 0 7 5 4 10 -3 6 -8 10 -11 10 -2 0
-4 -4 -4 -10z"/>
<path d="M10898 4943 c12 -2 32 -2 45 0 12 2 2 4 -23 4 -25 0 -35 -2 -22 -4z"/>
<path d="M11818 4933 c12 -2 32 -2 45 0 12 2 2 4 -23 4 -25 0 -35 -2 -22 -4z"/>
<path d="M9489 4823 c-14 -16 -31 -36 -38 -45 -12 -16 -11 -17 18 -7 27 9 71
55 71 73 0 15 -29 3 -51 -21z"/>
<path d="M9705 4720 c-8 -13 5 -13 25 0 13 8 13 10 -2 10 -9 0 -20 -4 -23 -10z"/>
<path d="M9708 4643 c7 -3 16 -2 19 1 4 3 -2 6 -13 5 -11 0 -14 -3 -6 -6z"/>
<path d="M9719 4610 c-11 -7 -10 -10 4 -16 10 -4 23 -2 28 3 14 14 -13 24 -32
13z"/>
<path d="M9968 4593 c6 -2 18 -2 25 0 6 3 1 5 -13 5 -14 0 -19 -2 -12 -5z"/>
<path d="M9995 4570 c-3 -5 -1 -10 4 -10 6 0 11 5 11 10 0 6 -2 10 -4 10 -3 0
-8 -4 -11 -10z"/>
<path d="M10378 4433 c6 -2 18 -2 25 0 6 3 1 5 -13 5 -14 0 -19 -2 -12 -5z"/>
<path d="M7586 6081 c5 -5 20 -12 34 -15 24 -7 24 -6 6 8 -21 17 -57 23 -40 7z"/>
<path d="M10966 4355 c-9 -26 -7 -32 5 -12 6 10 9 21 6 23 -2 3 -7 -2 -11 -11z"/>
<path d="M6871 7184 c0 -11 3 -14 6 -6 3 7 2 16 -1 19 -3 4 -6 -2 -5 -13z"/>
<path d="M9030 7190 c0 -5 5 -10 10 -10 6 0 10 5 10 10 0 6 -4 10 -10 10 -5 0
-10 -4 -10 -10z"/>
<path d="M350 7046 c28 -17 60 -22 45 -7 -6 5 -23 12 -40 16 l-30 6 25 -15z"/>
<path d="M2780 7050 c-170 -6 -192 -11 -60 -12 252 -2 410 3 410 12 0 10 -71
10 -350 0z"/>
<path d="M11186 7010 c28 -57 44 -71 44 -39 0 23 -44 89 -60 89 -5 0 2 -22 16
-50z"/>
<path d="M442 7012 c-9 -6 -6 -12 12 -20 26 -12 43 -1 31 18 -7 12 -25 13 -43
2z"/>
<path d="M480 6960 c0 -5 5 -10 11 -10 5 0 7 5 4 10 -3 6 -8 10 -11 10 -2 0
-4 -4 -4 -10z"/>
<path d="M11260 6916 c0 -9 5 -16 10 -16 6 0 10 4 10 9 0 6 -4 13 -10 16 -5 3
-10 -1 -10 -9z"/>
<path d="M1085 6910 c-7 -12 94 -12 195 0 57 6 49 7 -62 8 -75 1 -129 -2 -133
-8z"/>
<path d="M372 6893 c37 -2 100 -2 140 0 40 1 10 3 -67 3 -77 0 -110 -1 -73 -3z"/>
<path d="M11262 6860 c0 -14 2 -19 5 -12 2 6 2 18 0 25 -3 6 -5 1 -5 -13z"/>
<path d="M1822 6858 c-9 -3 -37 -26 -61 -51 -42 -44 -43 -47 -31 -77 15 -36 9
-46 -18 -31 -13 7 -31 7 -57 0 -28 -8 -45 -8 -63 1 -21 9 -30 8 -51 -8 -23
-16 -30 -17 -56 -6 -55 24 -254 10 -316 -21 -47 -25 -128 -105 -139 -140 -11
-33 -12 -33 -83 -39 -40 -3 -133 -8 -207 -11 -74 -2 -216 -8 -315 -12 -99 -5
-229 -8 -288 -7 -77 0 -106 -3 -103 -11 2 -7 0 -18 -5 -26 -7 -11 -9 -10 -9 6
-1 30 -12 99 -16 104 -2 2 -4 -67 -4 -153 0 -153 1 -159 23 -176 44 -35 66
-112 116 -415 16 -93 27 -172 25 -174 -8 -8 -95 11 -98 22 -2 7 -14 41 -26 77
-13 36 -26 88 -30 115 -4 28 -8 -1027 -9 -2342 l-1 -2393 90 0 c71 0 90 -3 90
-14 0 -9 -7 -12 -21 -9 -14 4 -30 -4 -52 -24 -18 -16 -49 -40 -69 -52 l-38
-23 0 -226 0 -227 45 -164 c25 -91 55 -207 67 -258 l22 -93 1922 0 c1823 0
1923 1 1927 18 4 16 5 16 6 0 1 -17 19 -18 220 -18 l219 0 6 38 c3 20 11 77
16 127 6 50 15 108 20 130 5 22 9 54 9 70 -1 29 -2 28 -14 -10 -8 -22 -14 -61
-14 -87 -1 -47 -14 -70 -25 -43 -3 8 -1 27 4 41 13 34 13 144 0 124 -5 -8 -10
-10 -10 -4 0 6 9 22 21 35 12 14 19 35 18 54 -1 16 3 41 9 55 6 14 18 86 27
160 8 74 20 170 27 214 9 65 8 80 -3 87 -9 5 -15 4 -18 -4 -9 -28 -47 -52 -83
-53 -21 0 -38 2 -38 6 0 3 20 25 45 50 30 31 44 54 45 72 0 36 -16 44 -24 13
-4 -14 -13 -25 -20 -25 -8 0 -21 -3 -30 -6 -9 -3 -16 -1 -16 6 0 6 5 8 10 5 6
-3 10 0 10 8 0 8 7 17 15 21 8 3 15 12 15 21 0 17 -9 19 -30 5 -30 -19 -55 81
-30 120 7 11 10 5 11 -25 2 -30 3 -33 6 -12 2 15 8 27 12 27 4 0 8 33 8 73 1
49 -1 64 -7 47 -6 -19 -8 -21 -9 -6 -1 10 -8 24 -17 30 -12 9 -13 17 -4 40 7
20 8 32 0 40 -7 7 -10 5 -10 -8 0 -9 -4 -15 -9 -11 -6 3 -6 18 -1 35 5 17 10
62 12 101 3 74 10 91 27 62 9 -16 10 -15 11 6 0 26 25 50 53 51 11 0 24 14 34
38 21 46 20 44 22 87 1 24 6 35 16 35 27 0 16 20 -12 21 -26 1 -25 2 7 10 71
19 163 25 318 20 59 -1 59 -28 0 -34 l-43 -4 45 -1 c30 -2 40 -5 31 -11 -15
-10 -8 -41 9 -41 6 0 9 12 7 28 -2 15 2 39 9 53 l13 26 183 9 c101 5 212 9
248 9 l65 0 10 -50 c6 -27 15 -57 20 -66 15 -24 55 -43 67 -31 6 6 47 -4 111
-25 79 -25 281 -73 313 -73 2 0 4 6 4 13 0 10 -27 18 -85 26 -107 16 -163 33
-208 62 -42 28 -57 80 -57 202 -1 78 -5 108 -29 205 -8 31 -8 49 0 63 9 17 7
21 -10 26 -22 6 -30 33 -10 33 7 0 4 11 -7 27 -17 26 -24 53 -43 148 -4 22
-16 65 -26 95 -10 30 -20 62 -23 70 -3 8 -9 -5 -15 -30 -8 -41 -10 -43 -18
-22 -5 13 -7 28 -3 33 3 5 1 9 -4 9 -9 0 -15 39 -28 165 -6 52 -27 110 -44
120 -14 8 -40 73 -40 97 0 10 -4 16 -10 13 -6 -3 -7 1 -4 9 4 9 1 16 -6 16 -8
0 -10 9 -6 24 6 26 -8 46 -17 23 -16 -42 45 -487 99 -723 13 -60 37 -223 49
-339 5 -52 4 -58 -8 -43 -8 10 -16 16 -18 14 -2 -2 -114 -6 -249 -10 -135 -4
-281 -10 -325 -13 -72 -6 -122 -7 -150 -4 -15 2 -14 63 1 78 16 16 44 17 44 1
0 -30 13 7 17 47 3 35 0 45 -12 45 -9 0 -15 -9 -15 -24 0 -24 -34 -43 -46 -25
-3 5 0 9 6 9 6 0 16 11 22 25 9 19 8 31 -2 49 -15 30 -6 61 15 52 21 -8 55 15
55 36 0 9 4 19 9 22 8 5 16 47 22 106 1 8 9 23 17 33 8 9 13 20 10 23 -8 7
-58 -47 -58 -62 0 -6 -18 -32 -41 -57 -39 -45 -44 -67 -13 -67 8 0 13 -4 10
-9 -3 -4 -16 -6 -28 -4 -31 6 -47 -23 -50 -92 -1 -30 -6 -55 -9 -55 -9 0 -24
-41 -21 -54 2 -5 -2 -22 -7 -37 -8 -24 -7 -29 5 -29 8 0 12 -4 9 -10 -9 -15
-62 -12 -68 4 -7 17 18 40 33 31 6 -4 10 9 10 34 0 21 -3 41 -7 44 -5 2 -2 2
5 1 14 -4 16 15 2 36 -15 22 -59 -35 -60 -77 0 -24 -12 -44 -49 -82 -26 -28
-54 -51 -61 -51 -7 0 -11 -3 -7 -6 15 -15 -89 -90 -187 -134 -59 -26 -170 -63
-254 -85 -188 -48 -526 -70 -668 -43 -56 10 -61 13 -46 25 15 13 14 14 -10 8
-16 -3 -28 -1 -28 4 0 5 10 12 23 14 l22 4 -22 8 c-23 7 -32 25 -13 25 13 0
13 57 -1 65 -5 4 -8 12 -6 18 2 7 -2 27 -10 45 -7 18 -11 37 -8 42 3 5 -1 27
-9 49 -19 56 7 68 42 19 7 -10 18 -18 23 -18 6 0 31 -17 57 -39 26 -21 61 -45
77 -53 17 -8 52 -27 79 -42 67 -38 253 -76 377 -76 103 0 281 27 364 55 61 21
161 71 170 85 3 5 -22 -3 -57 -19 -152 -68 -304 -96 -477 -88 -138 6 -218 25
-328 79 -320 156 -524 623 -575 1318 -12 175 -1 396 21 410 9 5 10 10 3 14
-15 9 -3 38 13 33 6 -3 17 9 24 28 16 45 68 109 74 93 4 -9 6 -7 6 3 1 9 7 22
15 28 20 17 203 21 253 6 23 -7 44 -10 47 -7 4 3 6 0 6 -7 0 -7 10 -21 21 -30
l22 -17 -28 -22 c-34 -27 -26 -28 25 -2 52 26 83 73 84 124 l1 41 -135 5
c-115 4 -132 7 -113 18 12 6 27 12 33 12 15 0 83 52 128 97 18 18 41 33 52 33
10 0 22 5 25 10 3 6 23 10 43 10 42 1 275 47 252 50 -8 1 -21 2 -29 1 -7 -2
-10 2 -6 9 6 9 -2 10 -26 5 -19 -4 -35 -11 -37 -16 -2 -5 -27 -6 -56 -3 -35 4
-61 2 -77 -6 -23 -13 -23 -13 -4 -21 16 -6 17 -8 3 -8 -9 -1 -22 7 -27 17 -6
9 -11 11 -11 5 0 -9 -7 -10 -25 -3 -16 6 -26 6 -30 -1 -4 -5 -15 -7 -25 -4
-12 4 -28 -4 -46 -22 -21 -21 -29 -24 -32 -13 -7 20 -22 29 -39 23 -11 -4 -11
-8 -1 -21 11 -13 10 -15 -9 -10 -14 4 -20 2 -17 -6 3 -7 -12 -10 -47 -9 -50 1
-117 -7 -208 -26 -62 -12 -83 0 -116 70 -16 32 -32 59 -37 59 -4 0 -7 -3 -7
-7 3 -21 -2 -33 -16 -33 -24 0 -17 -14 15 -33 17 -10 30 -22 30 -27 0 -9 -56
-31 -144 -55 -68 -19 -108 -14 -177 20 -44 23 -47 27 -51 70 -2 29 1 45 8 45
6 0 24 10 39 22 25 19 27 20 23 2 -1 -10 -14 -21 -28 -25 -22 -6 -22 -7 -4 -8
12 -1 42 -10 67 -21 44 -20 49 -20 109 -5 35 9 68 18 74 20 8 2 4 20 -13 52
-18 35 -23 58 -20 87 l5 38 -91 -7 c-51 -4 -95 -11 -98 -17 -4 -6 -105 -10
-260 -10 -140 -1 -237 -3 -216 -5 20 -2 36 -7 33 -11 -6 -9 80 -9 90 1 13 12
42 8 48 -8 5 -13 -12 -15 -110 -15 -74 0 -113 4 -109 10 4 6 -6 11 -22 11
l-28 1 30 8 c27 7 26 8 -16 9 -52 1 -109 18 -109 32 0 18 31 22 43 5 11 -14
48 -16 312 -16 l300 -1 0 47 c0 57 2 58 174 74 74 7 117 15 120 23 2 7 21 29
41 50 32 31 45 37 81 38 32 0 39 3 24 8 -11 5 -26 6 -32 4 -7 -3 -13 2 -13 11
0 9 4 16 9 16 6 0 3 21 -6 46 -11 33 -18 42 -25 33 -6 -9 -7 -5 -2 12 3 15 1
30 -5 33 -6 4 -11 18 -11 31 0 28 -18 73 -39 99 -12 13 -15 38 -14 92 2 57 -1
74 -12 74 -7 0 -16 -6 -19 -12 -3 -7 -4 7 -1 32 6 51 65 175 80 169 5 -2 9
-10 7 -16 -2 -7 4 -13 12 -13 8 0 25 -17 37 -37 21 -36 37 -53 49 -53 3 0 32
27 65 61 33 33 77 78 99 99 21 21 36 44 34 51 -3 9 -22 -4 -57 -39 -29 -28
-56 -52 -59 -52 -3 0 -16 10 -29 22 -22 21 -23 21 -43 3 -16 -15 -18 -21 -7
-33 9 -12 9 -16 0 -19 -7 -3 -13 -12 -13 -21 0 -13 -2 -14 -12 -3 -10 11 -10
14 0 18 17 6 15 20 -4 27 -8 3 -12 2 -9 -4 3 -6 -1 -10 -9 -10 -23 0 -20 16 8
37 l24 19 -44 50 c-24 27 -44 52 -44 57 0 4 21 28 48 52 30 29 43 48 36 53 -6
4 -19 48 -28 97 -9 50 -19 102 -22 118 -6 32 -4 32 39 10 42 -21 105 -18 139
7 15 11 33 20 41 20 17 0 50 -101 37 -114 -6 -6 -10 -25 -10 -44 0 -18 -5 -42
-11 -53 -6 -12 -8 -27 -5 -34 4 -11 51 7 193 71 145 65 194 83 213 78 48 -14
75 -13 125 2 66 21 73 29 50 54 -17 19 -18 25 -6 63 7 23 15 57 18 75 3 17 9
32 14 32 5 0 9 12 9 26 0 22 -3 24 -22 19 -31 -9 -45 -30 -53 -75 -11 -63 -21
-66 -143 -46 -132 21 -151 22 -230 13 -45 -5 -61 -4 -56 4 3 6 -4 4 -17 -4
-24 -16 -103 -26 -114 -15 -3 3 -22 2 -41 -2 -31 -7 -34 -6 -29 10 4 13 -3 23
-25 36 -16 10 -30 23 -30 29 0 14 -52 36 -80 33 -29 -4 -52 28 -30 42 23 15
-3 12 -43 -5 -20 -8 -38 -11 -42 -6 -3 5 1 12 7 14 10 4 10 6 0 6 -7 1 -10 6
-6 12 5 8 -1 10 -20 7 -21 -4 -26 -2 -22 9 3 8 6 17 6 19 0 3 13 -2 30 -11 37
-19 47 -19 59 3 8 15 5 17 -31 14 -40 -4 -41 -4 -35 24 3 16 10 45 15 64 l10
35 7 -32 c11 -48 25 -30 25 32 0 44 3 53 15 49 21 -8 19 3 -7 39 -25 34 -24
33 -26 95 -2 30 -6 42 -17 42 -19 0 -19 34 0 124 17 83 49 138 108 193 67 62
125 89 265 123 39 10 41 12 31 33 -27 52 -50 67 -104 67 -29 0 -66 5 -83 11
-39 13 -131 -4 -164 -30 -18 -15 -34 -18 -80 -13 -41 3 -71 0 -103 -13 -44
-16 -47 -16 -72 2 -50 36 -69 43 -110 43 -54 0 -98 -36 -115 -93 -6 -23 -13
-44 -14 -46 -2 -1 -29 13 -61 33 -98 60 -180 66 -248 20 -26 -18 -75 -18 -101
1 -12 8 -25 11 -29 7 -5 -4 -5 -2 -2 5 4 6 3 13 -2 15 -18 7 -22 46 -5 62 22
22 6 40 -49 55 -43 11 -85 11 -115 -1z m797 -89 c34 -12 40 -33 14 -61 -21
-24 -54 -23 -76 2 -23 28 -21 49 6 60 12 5 22 9 23 9 1 1 15 -4 33 -10z m-799
-235 c0 -9 -11 -14 -32 -14 l-33 1 24 19 c24 21 41 19 41 -6z m-202 -177 c28
-29 43 -54 45 -73 2 -29 2 -29 -71 -37 -86 -11 -102 -2 -102 53 0 43 39 100
69 100 9 0 36 -19 59 -43z m507 -37 c3 -5 1 -10 -4 -10 -6 0 -11 5 -11 10 0 6
2 10 4 10 3 0 8 -4 11 -10z m-154 -88 c48 -21 107 -80 127 -127 16 -36 83 -85
117 -85 18 0 28 7 35 24 5 13 22 30 37 38 25 12 28 19 33 78 5 59 7 65 32 74
40 14 83 -8 107 -56 16 -33 18 -45 8 -67 -14 -34 -71 -98 -83 -94 -25 7 -46
-31 -70 -126 -14 -56 -23 -108 -21 -115 3 -8 29 -22 58 -31 42 -14 77 -17 195
-13 94 3 148 8 156 16 10 10 5 11 -22 5 -19 -5 -62 -8 -95 -8 l-60 0 -2 40
c-1 22 -9 54 -17 70 -18 34 -21 65 -6 65 6 0 10 4 10 9 0 5 -9 7 -20 4 -15 -4
-20 0 -20 15 0 11 5 22 11 24 6 2 13 13 14 23 5 38 17 65 31 65 8 0 14 -9 14
-20 0 -10 8 -23 17 -29 16 -8 16 -14 6 -42 -11 -27 -10 -37 1 -55 11 -16 12
-24 3 -34 -9 -10 -9 -11 0 -6 16 9 53 -33 53 -61 0 -13 5 -23 10 -23 6 0 10 5
10 11 0 5 4 7 10 4 21 -13 114 8 137 32 13 12 25 23 27 23 1 0 3 -14 3 -30 0
-34 21 -80 42 -94 11 -7 10 -12 -7 -25 -21 -16 -26 -44 -24 -113 2 -30 7 -38
30 -46 27 -10 27 -10 -10 -11 -20 -1 -40 -5 -43 -11 -9 -15 -22 -12 -29 6 -5
12 -2 15 11 10 16 -6 16 -6 0 12 -9 10 -17 26 -17 35 0 21 -19 22 -27 1 -5
-13 -8 -13 -27 4 -11 10 -32 23 -46 28 -24 10 -268 12 -300 3 -8 -2 -14 3 -15
11 0 8 -10 16 -23 16 -18 1 -21 -2 -16 -20 4 -11 11 -22 15 -24 5 -2 9 -10 9
-18 0 -8 15 -43 33 -77 19 -34 42 -95 52 -136 10 -41 25 -81 35 -91 9 -9 14
-22 12 -29 -2 -7 3 -31 11 -54 16 -43 35 -124 63 -259 18 -86 6 -79 104 -63
16 2 44 2 60 -2 l30 -6 -39 -42 c-46 -50 -66 -86 -75 -137 -9 -52 -37 -53 -29
-1 5 32 4 36 -12 30 -15 -6 -16 -3 -10 20 4 16 9 39 10 53 1 14 6 34 11 45 7
18 7 19 -8 4 -9 -9 -18 -34 -20 -55 -2 -32 -7 -39 -23 -37 -11 1 -24 -5 -28
-13 -5 -9 -16 -12 -33 -8 -24 6 -24 5 -12 -21 8 -18 17 -25 30 -22 23 7 23 -5
-1 -27 -13 -12 -39 -19 -74 -20 -29 -2 -58 -5 -63 -8 -5 -3 -45 -9 -89 -13
-44 -4 -90 -11 -102 -16 -12 -5 -61 -40 -109 -79 -48 -38 -91 -70 -96 -70 -5
0 -18 -10 -27 -22 -10 -12 -27 -23 -37 -24 -10 -1 -36 -6 -56 -9 -49 -10 -50
8 -3 31 35 16 51 43 18 29 -45 -18 -83 -22 -99 -10 -15 11 -12 15 29 44 26 18
47 34 47 37 0 3 -14 3 -31 -1 -17 -4 -37 -8 -43 -9 -6 -1 -18 -6 -26 -11 -38
-25 -63 -34 -73 -28 -5 3 -7 2 -4 -4 8 -13 -69 -44 -90 -36 -14 5 -14 8 3 20
10 7 23 13 30 13 16 0 64 44 64 58 0 10 -81 32 -116 32 -34 0 -5 -25 42 -36
50 -12 37 -19 -26 -14 -30 2 -33 0 -21 -14 12 -14 11 -16 -7 -16 -12 0 -24 -4
-27 -10 -12 -19 -142 -90 -238 -129 -105 -43 -383 -131 -413 -131 -14 0 -29
21 -54 73 -19 39 -49 95 -67 124 -18 29 -33 58 -33 65 0 22 90 58 145 58 76 1
215 34 215 52 0 5 -8 7 -18 4 -9 -3 -31 -8 -47 -10 -17 -2 -54 -9 -82 -15 -70
-14 -95 -5 -54 20 17 10 31 23 31 29 0 6 24 22 53 35 55 26 52 29 -28 26 -40
-1 -47 0 -32 9 10 7 43 14 73 17 68 7 81 23 20 23 -32 0 -44 4 -41 13 4 8 22
11 53 10 26 -2 83 -2 127 -2 93 0 284 -26 332 -46 18 -8 44 -26 57 -40 22 -23
33 -26 157 -36 161 -12 185 -13 241 -4 80 12 136 28 159 47 24 18 23 18 -20 3
-24 -8 -53 -15 -65 -14 -14 1 -9 4 14 11 33 9 100 69 100 89 0 5 9 9 19 9 25
0 38 20 20 31 -10 6 -7 8 9 6 12 0 22 -6 22 -12 0 -17 -39 -75 -55 -81 -8 -4
-15 -11 -15 -17 0 -7 4 -7 12 1 7 7 19 12 28 12 8 0 39 25 68 55 42 43 60 55
85 56 29 1 30 2 8 8 l-24 7 25 16 c29 19 149 43 178 35 11 -3 22 -1 25 3 9 15
-57 30 -129 30 -70 1 -125 21 -100 38 11 8 12 247 0 259 -5 5 -10 -28 -7 -49
0 -4 -8 -26 -18 -50 l-19 -43 -12 33 c-7 17 -17 32 -23 32 -8 0 -8 3 0 11 16
16 -5 49 -26 42 -11 -3 -12 -2 -4 4 13 9 26 153 14 153 -4 0 -17 -11 -29 -25
-13 -14 -27 -23 -32 -20 -20 12 -11 -127 11 -175 16 -35 19 -55 13 -96 -4 -35
-2 -54 6 -59 8 -5 5 -11 -11 -19 -12 -6 -34 -33 -48 -61 -27 -51 -116 -124
-153 -125 -9 0 -23 -6 -30 -13 -65 -61 -168 -99 -263 -95 -81 3 -71 19 17 29
35 3 83 15 108 26 25 11 53 23 63 26 14 5 17 13 11 29 -3 13 -11 25 -15 26
-15 6 -10 32 6 38 8 4 12 10 9 15 -3 5 0 9 5 9 21 0 11 20 -18 35 -18 9 -41
12 -60 9 -24 -5 -31 -3 -31 10 0 8 -11 18 -25 22 -26 6 -35 37 -14 49 6 4 8
13 5 21 -3 7 0 16 5 20 7 4 7 10 1 16 -7 7 -2 23 15 49 22 33 24 43 15 66 -11
30 -11 161 0 178 3 6 5 35 4 65 -1 30 2 60 7 66 4 7 3 40 -2 75 -6 34 -8 73
-5 85 7 27 -11 40 -32 23 -10 -8 -12 -15 -4 -23 13 -13 13 -75 -1 -115 -8 -21
-8 -35 -1 -44 6 -7 7 -27 3 -47 -4 -19 -4 -55 0 -79 5 -35 3 -47 -12 -62 -11
-11 -14 -19 -9 -19 6 0 10 -6 9 -12 -1 -7 1 -21 6 -31 4 -10 3 -29 -4 -43 -6
-14 -11 -47 -11 -74 0 -27 -4 -52 -10 -55 -5 -3 -10 -28 -10 -54 0 -66 -10
-72 -100 -56 -41 7 -80 10 -87 8 -7 -3 -19 0 -27 6 -8 7 -20 10 -27 9 -8 -2
-15 11 -19 32 -3 19 -12 45 -18 57 -11 20 -22 82 -26 143 -1 22 4 25 37 28 20
2 37 7 37 13 0 15 13 10 43 -16 29 -24 29 -24 50 -4 11 10 24 19 29 19 4 0 8
4 8 8 0 5 -10 8 -22 8 -17 -1 -22 4 -20 17 2 11 -4 17 -16 17 -22 0 -24 46 -2
60 11 7 6 10 -20 10 -33 1 -34 2 -11 11 14 5 31 7 38 5 22 -9 15 18 -9 33 -16
10 -23 10 -26 2 -4 -13 -22 -5 -22 10 0 6 5 7 10 4 6 -3 10 5 10 18 0 30 26
43 39 20 8 -14 12 -15 25 -4 23 19 20 34 -4 21 -15 -8 -20 -8 -20 3 0 19 21
37 42 37 10 0 17 6 16 13 -2 6 9 13 23 15 16 2 32 13 39 28 14 25 5 48 -10 25
-4 -8 -25 -16 -46 -18 -33 -3 -36 -2 -24 12 7 8 18 15 25 15 8 0 15 3 17 8 2
4 20 20 41 35 40 30 41 47 1 47 -25 0 -25 0 -6 28 10 15 23 36 29 47 6 12 21
20 37 20 33 1 60 37 52 70 -9 36 -45 65 -82 65 -36 0 -52 23 -32 47 9 11 9 16
-3 24 -8 5 -9 9 -4 9 6 1 -6 6 -25 13 -41 14 -71 60 -52 79 15 15 80 -5 99
-31 17 -23 30 -5 46 62 13 57 13 58 77 90 78 39 131 44 191 19z m179 -27 c0
-12 -29 -3 -34 11 -11 29 -6 34 14 14 11 -11 20 -22 20 -25z m725 -25 c3 -5 1
-10 -4 -10 -6 0 -11 5 -11 10 0 6 2 10 4 10 3 0 8 -4 11 -10z m681 -518 c7 -9
14 -20 14 -23 0 -11 -102 -49 -199 -75 -114 -29 -114 -29 -105 -1 4 12 8 31 9
42 1 11 3 23 4 28 0 4 10 7 20 7 11 0 21 5 23 10 11 35 209 45 234 12z m-2833
-197 c13 -5 17 -18 17 -49 -1 -22 2 -56 6 -74 6 -32 5 -33 -22 -30 -16 2 -28
8 -27 15 1 6 -4 14 -12 17 -8 3 -15 2 -15 -2 0 -4 -11 -8 -25 -8 -14 -1 -32
-5 -42 -8 -14 -6 -14 -8 3 -20 24 -18 19 -22 -33 -30 -41 -6 -41 -6 -64 41
-12 25 -35 60 -50 77 -24 28 -34 54 -30 79 1 10 269 3 294 -8z m247 -14 c0 -5
-13 -38 -29 -73 -34 -76 -51 -150 -51 -219 0 -57 -19 -64 -34 -13 -4 16 -12
37 -17 46 -7 13 -5 16 6 12 12 -5 15 6 15 60 0 36 4 66 9 66 4 0 23 29 41 65
18 36 39 65 46 65 8 0 14 -4 14 -9z m1630 -53 c0 -18 -2 -20 -9 -8 -6 8 -7 18
-5 22 9 14 14 9 14 -14z m-1399 -20 c7 -13 11 -23 9 -23 -13 0 75 -118 95
-127 28 -13 27 -10 30 -59 1 -21 6 -45 10 -55 4 -11 6 -47 5 -81 -1 -34 3 -64
9 -68 6 -3 11 -14 11 -25 0 -13 -5 -17 -20 -13 -11 3 -20 12 -20 19 0 14 -11
18 -41 15 -9 -1 -22 5 -29 14 -7 9 -29 15 -52 15 -40 0 -77 28 -78 58 0 7 -4
11 -8 8 -12 -7 -28 44 -53 177 -17 90 -20 120 -11 129 9 9 12 9 12 -1 0 -7 4
-10 9 -7 9 6 41 -52 41 -73 0 -6 4 -11 8 -11 13 0 72 -86 72 -105 0 -9 6 -23
14 -30 11 -12 15 -10 24 9 9 21 8 23 -9 19 -21 -6 -25 7 -9 23 8 8 6 15 -5 24
-8 7 -15 21 -15 31 0 10 -4 21 -10 24 -5 3 -10 15 -10 26 0 10 -3 19 -7 19 -5
0 -9 20 -11 45 -3 51 18 62 39 23z m234 -17 c3 -6 -3 -15 -14 -20 -26 -14 -31
-14 -31 3 0 21 34 34 45 17z m1077 -23 c-7 -7 -12 -8 -12 -2 0 14 12 26 19 19
2 -3 -1 -11 -7 -17z m-1207 -18 c3 -6 -1 -7 -9 -4 -18 7 -21 14 -7 14 6 0 13
-4 16 -10z m-565 -28 c0 -12 -30 -36 -63 -50 -42 -18 -137 -16 -137 3 0 12 13
15 58 15 37 0 69 7 92 19 41 22 50 24 50 13z m196 -27 c4 -8 11 -15 16 -15 6
0 8 7 4 15 -12 33 15 12 30 -22 35 -82 34 -81 13 -76 -12 4 -18 11 -15 20 3 7
0 13 -7 12 -39 -5 -67 23 -67 66 0 20 19 19 26 0z m2019 -51 c-16 -17 -18 -17
-36 7 -36 46 -12 74 30 34 23 -22 23 -24 6 -41z m-1457 32 c3 -12 -1 -17 -10
-14 -7 3 -15 13 -16 22 -3 12 1 17 10 14 7 -3 15 -13 16 -22z m1042 -15 c0 -6
-4 -13 -10 -16 -5 -3 -10 1 -10 9 0 9 5 16 10 16 6 0 10 -4 10 -9z m-1916 -31
c4 -5 3 -24 -3 -43 -6 -18 -9 -41 -5 -51 8 -21 -4 -86 -16 -86 -22 0 -50 80
-50 139 l0 61 33 -7 c17 -3 36 -9 41 -13z m2382 -17 c-7 -7 -26 7 -26 19 0 6
6 6 15 -2 9 -7 13 -15 11 -17z m-36 -3 c0 -5 -5 -10 -11 -10 -5 0 -7 5 -4 10
3 6 8 10 11 10 2 0 4 -4 4 -10z m-1952 -65 c12 -13 18 -26 14 -29 -11 -6 -25
5 -40 32 -16 29 -1 28 26 -3z m2041 -36 c-12 -11 -24 -17 -26 -15 -7 7 31 43
40 39 4 -3 -2 -13 -14 -24z m-2351 -16 c-10 -2 -28 -2 -40 0 -13 2 -5 4 17 4
22 1 32 -1 23 -4z m252 -67 c0 -13 7 -27 16 -30 11 -4 14 -13 10 -31 -4 -14
-2 -25 4 -25 5 0 10 -5 10 -11 0 -6 -10 -9 -22 -7 -13 2 -21 7 -20 12 2 5 -2
13 -10 17 -11 7 -10 11 2 19 10 6 11 10 3 10 -8 0 -13 14 -13 35 0 19 5 35 10
35 6 0 10 -11 10 -24z m1397 -92 c-3 -3 -12 -4 -19 -1 -8 3 -5 6 6 6 11 1 17
-2 13 -5z m-655 -56 c-12 -12 -25 -18 -29 -14 -4 5 -2 11 5 13 7 3 18 11 25
18 7 7 14 11 16 9 3 -3 -5 -14 -17 -26z m-677 2 c-3 -5 -12 -10 -20 -10 -8 0
-17 5 -20 10 -4 6 5 10 20 10 15 0 24 -4 20 -10z m317 -24 c87 -23 158 -61
158 -85 0 -11 -14 -13 -68 -9 -86 6 -157 43 -114 59 13 6 9 10 -20 23 -67 29
-43 35 44 12z m1525 -37 c10 -38 0 -57 -12 -20 -3 10 -14 26 -25 36 -26 24
-25 33 3 28 17 -3 26 -15 34 -44z m-1187 27 c0 -3 -4 -8 -10 -11 -5 -3 -10 -1
-10 4 0 6 5 11 10 11 6 0 10 -2 10 -4z m66 -46 c32 -12 23 -25 -24 -35 -30 -6
-32 -5 -28 17 3 13 5 24 5 26 2 5 21 2 47 -8z m324 3 c0 -13 -45 -73 -55 -73
-5 0 -23 -7 -40 -16 -16 -9 -55 -18 -85 -20 l-55 -5 39 20 c22 12 43 21 47 21
4 0 36 18 70 39 65 40 79 46 79 34z m-407 -23 c16 -19 16 -20 -6 -20 -12 0
-39 -2 -60 -3 -21 -2 -36 1 -34 6 2 8 50 30 77 36 3 0 13 -8 23 -19z m-953
-25 c0 -18 -5 -25 -20 -25 -20 0 -28 28 -13 43 15 16 33 6 33 -18z m22 -89 c0
-35 -15 -66 -33 -66 -9 0 -29 64 -29 92 0 17 38 30 54 17 4 -4 8 -23 8 -43z
m2181 -77 c5 -20 3 -21 -40 -15 -25 3 -56 6 -69 6 -13 0 -24 4 -24 9 0 11 29
18 86 20 35 1 43 -3 47 -20z m-155 -14 c-7 -7 -67 8 -63 16 3 4 19 3 36 -3 16
-6 29 -12 27 -13z m-798 -143 c0 -13 -32 -39 -57 -46 -32 -10 -29 8 5 33 28
21 52 27 52 13z m396 -174 c-6 10 1 13 30 10 22 -2 38 -7 37 -13 -3 -12 -103
-19 -103 -7 0 17 13 22 28 9 13 -10 14 -9 8 1z m244 2 c0 -5 -12 -10 -26 -10
-14 0 -23 4 -19 10 3 6 15 10 26 10 10 0 19 -4 19 -10z m99 -526 c-14 -17 -25
-18 -32 -1 -3 7 5 13 20 13 19 2 22 -1 12 -12z m-664 -454 c17 -34 20 -60 5
-60 -6 0 -20 -9 -32 -20 -24 -22 -43 -26 -53 -10 -3 6 3 10 13 10 30 0 45 25
40 70 -4 47 6 51 27 10z m-45 -140 c-20 -13 -43 -13 -35 0 3 6 16 10 28 10 18
0 19 -2 7 -10z m-126 -35 c4 -13 2 -14 -14 -5 -23 13 -26 20 -6 20 8 0 16 -7
20 -15z m167 -26 c6 -10 1 -20 -14 -31 -17 -14 -19 -20 -9 -27 8 -4 12 -17 10
-27 -2 -15 -12 -18 -53 -18 -46 1 -47 0 -8 -3 36 -3 44 -8 49 -30 5 -18 2 -30
-9 -38 -9 -7 -14 -15 -10 -18 3 -4 1 -7 -6 -7 -6 0 -11 -8 -9 -17 2 -13 -5
-19 -26 -21 -21 -3 -26 0 -21 10 3 7 0 5 -8 -4 -7 -10 -32 -20 -55 -24 -22 -3
-43 -13 -46 -20 -3 -8 -17 -14 -31 -14 -40 0 -33 36 10 51 48 18 44 29 -10 27
-25 0 -48 2 -52 5 -3 4 6 7 21 7 41 0 70 18 56 35 -8 10 -8 19 -1 34 9 17 16
18 43 10 47 -13 49 -12 37 18 -12 33 2 53 25 34 16 -13 36 -7 36 10 0 6 -13
24 -30 41 -49 48 -41 58 36 43 36 -7 70 -19 75 -26z m-191 -79 c0 -5 -4 -10
-10 -10 -5 0 -10 5 -10 10 0 6 5 10 10 10 6 0 10 -4 10 -10z m30 -221 c0 -5
-13 -9 -30 -9 -32 0 -41 16 -12 22 21 5 42 -1 42 -13z m-110 -19 c-20 -6 -21
-8 -5 -9 14 -1 16 -4 8 -12 -7 -7 -24 -8 -42 -4 -26 6 -30 9 -20 21 6 8 28 14
48 13 33 -1 34 -2 11 -9z m120 -20 c-34 -27 -74 -47 -110 -55 -49 -11 -34 2
30 26 33 12 65 28 71 35 6 8 17 14 23 14 6 0 0 -9 -14 -20z m-470 -50 c-24
-15 -36 -11 -14 4 10 8 21 12 24 10 2 -3 -2 -9 -10 -14z m4007 -142 c-3 -8 -6
-5 -6 6 -1 11 2 17 5 13 3 -3 4 -12 1 -19z m-687 -193 c0 -5 -5 -3 -10 5 -5 8
-10 20 -10 25 0 6 5 3 10 -5 5 -8 10 -19 10 -25z m-100 -155 c0 -5 -4 -10 -10
-10 -5 0 -10 5 -10 10 0 6 5 10 10 10 6 0 10 -4 10 -10z m-3210 -293 c0 -10
-4 -15 -10 -12 -5 3 -10 18 -10 33 0 21 2 24 10 12 5 -8 10 -23 10 -33z m3060
-142 c0 -14 -4 -25 -10 -25 -5 0 -10 11 -10 25 0 14 5 25 10 25 6 0 10 -11 10
-25z m-3016 -15 c29 -11 56 -57 56 -97 0 -16 -9 -47 -20 -68 -12 -22 -21 -52
-22 -66 -1 -19 -6 -25 -17 -23 -9 1 -33 6 -55 9 -21 4 -36 9 -33 12 3 3 -2 13
-11 24 -9 10 -25 40 -36 66 -10 26 -24 61 -31 78 -12 26 -12 32 2 47 22 24
122 35 167 18z m2872 -222 c-6 -67 -10 -81 -35 -106 -21 -20 -31 -43 -37 -78
-6 -42 -8 -45 -16 -25 -5 15 -4 28 3 37 6 7 12 28 13 46 2 18 4 39 5 46 0 6 8
12 16 12 16 0 28 24 38 75 l6 30 -12 -27 c-13 -34 -25 -37 -21 -5 13 96 15 99
31 85 13 -10 14 -26 9 -90z m4 -128 c0 -5 -5 -10 -11 -10 -5 0 -7 5 -4 10 3 6
8 10 11 10 2 0 4 -4 4 -10z m-13 -42 c-3 -8 -6 -5 -6 6 -1 11 2 17 5 13 3 -3
4 -12 1 -19z m-36 -45 c-14 -48 -14 -66 -1 -58 6 3 10 18 11 33 l1 27 8 -25
c8 -24 8 -23 9 8 1 17 5 32 11 32 11 0 2 -148 -10 -165 -4 -5 -15 -36 -24 -67
-10 -32 -19 -58 -20 -58 -1 0 -1 29 -1 65 0 52 3 64 14 60 11 -4 12 -3 1 10
-17 21 -28 19 -33 -7 l-4 -23 -2 23 c0 12 8 30 18 39 20 17 19 39 -1 27 -6 -4
-8 1 -5 12 4 11 9 33 12 49 11 52 17 67 22 62 2 -3 0 -22 -6 -44z m104 7 c3
-5 1 -10 -4 -10 -6 0 -11 5 -11 10 0 6 2 10 4 10 3 0 8 -4 11 -10z m-158 -112
c-3 -7 -5 -2 -5 12 0 14 2 19 5 13 2 -7 2 -19 0 -25z m-21 -103 c-18 -65 -32
-89 -22 -35 13 67 30 125 34 109 1 -8 -4 -41 -12 -74z m-50 -238 c-15 -67 -35
-162 -46 -212 -11 -49 -26 -124 -35 -165 -12 -66 -68 -327 -82 -387 -7 -30
-22 -20 -16 11 6 30 -16 45 -32 23 -7 -9 -15 -14 -18 -10 -12 12 -7 22 13 28
11 3 20 11 20 16 0 5 -9 9 -20 9 -11 0 -20 -4 -20 -10 0 -5 -8 -6 -17 -3 -9 4
-12 8 -6 10 6 2 9 13 6 23 -3 11 0 20 6 20 6 0 11 -8 11 -17 0 -16 2 -16 11
-3 8 11 12 12 16 3 9 -25 21 -12 28 30 8 44 24 64 37 44 4 -7 7 6 7 28 0 22
-3 34 -6 28 -2 -7 -9 -13 -14 -13 -6 0 -6 7 0 19 6 10 7 35 4 56 -4 28 -3 36
6 31 6 -4 8 -12 5 -18 -4 -6 -1 -9 7 -6 18 6 28 57 17 81 -6 12 -3 26 12 47
12 16 20 35 19 42 -2 7 0 22 4 33 3 11 8 39 11 62 3 23 9 50 14 60 11 21 41
161 39 183 -1 20 37 102 41 89 2 -5 -8 -65 -22 -132z m101 118 c0 -8 -4 -12
-9 -9 -5 3 -6 10 -3 15 9 13 12 11 12 -6z m-4018 -210 c-1 -20 -21 42 -35 108
-23 110 -15 111 12 2 13 -55 23 -104 23 -110z m3880 117 c0 -15 -4 -36 -8 -47
-8 -19 -8 -19 -15 2 -4 12 -2 31 4 43 8 14 8 20 0 20 -6 0 -8 5 -5 10 11 17
25 0 24 -28z m326 17 c11 -16 0 -21 -31 -13 -25 6 -26 8 -9 15 28 11 33 10 40
-2z m45 -19 c0 -5 -5 -10 -11 -10 -5 0 -7 5 -4 10 3 6 8 10 11 10 2 0 4 -4 4
-10z m-60 -56 c0 -8 -4 -14 -10 -14 -5 0 -10 9 -10 21 0 11 5 17 10 14 6 -3
10 -13 10 -21z m-340 -26 c0 -10 -4 -18 -8 -18 -5 0 -9 14 -9 30 0 20 3 26 9
18 4 -7 8 -21 8 -30z m-64 -25 c-10 -10 -19 5 -10 18 6 11 8 11 12 0 2 -7 1
-15 -2 -18z m379 -35 c-4 -18 -12 -40 -17 -48 -6 -10 -7 -6 -3 15 3 17 6 38 6
48 0 9 5 17 10 17 7 0 8 -13 4 -32z m-360 12 c3 -5 1 -10 -4 -10 -6 0 -11 5
-11 10 0 6 2 10 4 10 3 0 8 -4 11 -10z m33 -31 c-7 -19 -14 -27 -20 -21 -6 6
-3 17 8 31 24 27 25 27 12 -10z m382 -13 c0 -5 -7 -1 -15 10 -8 10 -14 24 -14
29 0 6 6 1 14 -9 8 -11 15 -24 15 -30z m-4195 -52 c7 -33 12 -60 10 -62 -3 -4
-14 31 -30 103 -4 16 -4 27 0 23 3 -3 12 -32 20 -64z m3755 41 c0 -8 -4 -15
-10 -15 -5 0 -10 7 -10 15 0 8 5 15 10 15 6 0 10 -7 10 -15z m400 -26 c-7 -11
-14 -18 -17 -15 -8 8 5 36 17 36 7 0 7 -6 0 -21z m-365 1 c3 -5 1 -10 -4 -10
-6 0 -11 5 -11 10 0 6 2 10 4 10 3 0 8 -4 11 -10z m-113 -92 c-3 -34 -12 -73
-19 -87 -14 -24 -14 -21 -10 44 6 74 14 105 27 105 5 0 6 -28 2 -62z m385 -15
c-3 -10 -5 -2 -5 17 0 19 2 27 5 18 2 -10 2 -26 0 -35z m-407 -118 c0 -8 -7
-15 -16 -15 -14 0 -14 3 -4 15 7 8 14 15 16 15 2 0 4 -7 4 -15z m107 -17 c-3
-7 -5 -2 -5 12 0 14 2 19 5 13 2 -7 2 -19 0 -25z m-210 -30 c-3 -8 -6 -5 -6 6
-1 11 2 17 5 13 3 -3 4 -12 1 -19z m83 -62 c0 -3 -4 -8 -10 -11 -5 -3 -10 -1
-10 4 0 6 5 11 10 11 6 0 10 -2 10 -4z m27 -88 c-2 -13 -4 -3 -4 22 0 25 2 35
4 23 2 -13 2 -33 0 -45z m36 2 c-7 -28 -13 -25 -13 6 0 14 4 23 9 20 5 -3 7
-15 4 -26z m-196 -12 c-3 -8 -6 -5 -6 6 -1 11 2 17 5 13 3 -3 4 -12 1 -19z
m-10 -50 c-3 -8 -6 -5 -6 6 -1 11 2 17 5 13 3 -3 4 -12 1 -19z m654 -65 c-9
-15 -10 -13 -11 14 0 17 3 40 8 50 5 14 8 11 10 -14 2 -18 -1 -41 -7 -50z
m-616 7 c3 -5 -1 -10 -10 -10 -8 0 -18 -7 -21 -15 -7 -17 -24 -10 -24 10 0 12
13 19 42 24 4 0 10 -3 13 -9z m115 0 c0 -5 -19 -9 -42 -9 -40 1 -41 2 -13 9
44 11 55 11 55 0z m490 -70 c-5 -22 -8 -27 -9 -13 -1 21 9 56 14 51 2 -2 0
-19 -5 -38z"/>
<path d="M2253 5983 c-35 -5 -39 -13 -22 -45 11 -20 11 -19 40 8 28 27 38 46
22 42 -5 0 -23 -3 -40 -5z"/>
<path d="M1715 5750 c3 -5 11 -10 16 -10 6 0 7 5 4 10 -3 6 -11 10 -16 10 -6
0 -7 -4 -4 -10z"/>
<path d="M2251 5745 c19 -19 79 -31 79 -16 0 6 -12 13 -27 17 -16 3 -37 8 -48
11 -18 5 -19 4 -4 -12z"/>
<path d="M1707 5710 c-16 -19 -16 -20 2 -20 21 0 44 23 34 33 -10 11 -17 8
-36 -13z"/>
<path d="M2780 5632 c0 -5 7 -9 15 -9 8 0 15 4 15 9 0 4 -7 8 -15 8 -8 0 -15
-4 -15 -8z"/>
<path d="M2051 5570 c-2 -30 -1 -82 0 -115 2 -33 3 -79 3 -102 0 -25 5 -43 12
-43 7 0 9 18 7 53 -17 228 -20 260 -22 207z"/>
<path d="M2096 5432 c-8 -13 5 -82 15 -82 5 0 9 20 9 45 0 41 -11 58 -24 37z"/>
<path d="M1583 5283 c-13 -2 -23 -9 -23 -14 0 -13 22 -10 44 6 20 15 19 16
-21 8z"/>
<path d="M2060 5250 c0 -19 3 -21 12 -12 9 9 9 15 0 24 -9 9 -12 7 -12 -12z"/>
<path d="M2066 5123 c3 -27 10 -52 15 -58 6 -5 8 5 5 25 -3 19 -5 45 -5 58 -1
12 -6 22 -12 22 -7 0 -8 -16 -3 -47z"/>
<path d="M2435 4849 c33 -11 71 -30 84 -42 l25 -22 -22 31 c-15 22 -35 35 -66
43 -73 18 -86 12 -21 -10z"/>
<path d="M2407 4813 c-3 -5 19 -18 49 -29 57 -22 68 -20 31 7 -27 19 -74 32
-80 22z"/>
<path d="M2601 4754 c0 -11 3 -14 6 -6 3 7 2 16 -1 19 -3 4 -6 -2 -5 -13z"/>
<path d="M1536 4611 c-5 -7 6 -11 32 -11 21 0 81 -3 133 -6 78 -4 91 -3 74 7
-27 17 -230 25 -239 10z"/>
<path d="M1920 4610 c-12 -8 -9 -10 13 -10 15 0 27 5 27 10 0 13 -20 13 -40 0z"/>
<path d="M1395 4600 c-27 -5 -77 -9 -110 -9 -49 -1 -69 -7 -109 -32 -27 -17
-45 -34 -40 -39 5 -5 65 -4 134 1 109 9 130 14 162 36 21 14 43 32 49 39 13
16 -2 17 -86 4z m5 -30 c0 -13 -44 -24 -100 -24 -52 -1 -69 16 -25 25 48 11
125 10 125 -1z"/>
<path d="M622 5451 c-49 -14 -53 -18 -47 -41 8 -32 11 -34 30 -27 8 4 15 17
15 31 0 16 7 25 21 29 14 4 19 2 15 -8 -2 -7 2 -16 10 -19 12 -5 14 -1 9 15
-6 19 -5 20 14 9 12 -6 19 -16 15 -22 -4 -6 -1 -9 6 -6 25 8 22 27 -7 41 -24
12 -35 12 -81 -2z"/>
<path d="M4301 1204 c0 -11 3 -14 6 -6 3 7 2 16 -1 19 -3 4 -6 -2 -5 -13z"/>
<path d="M4031 334 c0 -11 3 -14 6 -6 3 7 2 16 -1 19 -3 4 -6 -2 -5 -13z"/>
<path d="M4001 204 c0 -11 3 -14 6 -6 3 7 2 16 -1 19 -3 4 -6 -2 -5 -13z"/>
<path d="M11210 6784 c0 -8 7 -14 15 -14 8 0 18 0 22 -1 21 -2 10 19 -12 23
-17 4 -25 1 -25 -8z"/>
<path d="M11260 6714 c0 -14 4 -23 9 -19 11 6 10 45 -1 45 -4 0 -8 -12 -8 -26z"/>
<path d="M11220 6589 c0 -5 5 -7 10 -4 6 3 10 8 10 11 0 2 -4 4 -10 4 -5 0
-10 -5 -10 -11z"/>
<path d="M11510 6589 c0 -5 5 -7 10 -4 6 3 10 8 10 11 0 2 -4 4 -10 4 -5 0
-10 -5 -10 -11z"/>
<path d="M11508 6423 c12 -2 30 -2 40 0 9 3 -1 5 -23 4 -22 0 -30 -2 -17 -4z"/>
<path d="M5160 6410 c0 -5 5 -10 11 -10 5 0 7 5 4 10 -3 6 -8 10 -11 10 -2 0
-4 -4 -4 -10z"/>
<path d="M2881 6314 c0 -11 3 -14 6 -6 3 7 2 16 -1 19 -3 4 -6 -2 -5 -13z"/>
<path d="M3180 5951 c0 -26 181 -144 196 -128 3 3 -23 19 -58 36 -35 16 -81
46 -101 66 -20 20 -37 32 -37 26z"/>
<path d="M2910 5939 c0 -5 5 -7 10 -4 6 3 10 8 10 11 0 2 -4 4 -10 4 -5 0 -10
-5 -10 -11z"/>
<path d="M6213 5899 c-26 -14 -53 -66 -53 -104 0 -39 59 -95 99 -95 66 0 111
46 111 113 0 53 -34 88 -90 93 -25 2 -55 -1 -67 -7z"/>
<path d="M2940 5890 c0 -5 5 -10 10 -10 6 0 10 5 10 10 0 6 -4 10 -10 10 -5 0
-10 -4 -10 -10z"/>
<path d="M3817 5763 c-10 -10 -8 -33 2 -33 6 0 9 9 8 20 -1 23 -1 22 -10 13z"/>
<path d="M3822 5700 c0 -14 2 -19 5 -12 2 6 2 18 0 25 -3 6 -5 1 -5 -13z"/>
<path d="M3075 5460 c-3 -11 -10 -20 -15 -20 -5 0 -7 -7 -4 -15 4 -8 12 -15
20 -15 17 0 18 -17 2 -23 -7 -3 -3 -6 9 -6 16 -1 21 3 17 14 -4 8 -2 15 4 15
6 0 13 -6 15 -12 4 -10 6 -10 6 0 1 8 -8 16 -19 19 -17 5 -30 43 -14 43 3 0
33 -28 66 -62 32 -35 52 -51 43 -35 -10 15 -20 27 -24 27 -3 0 -19 20 -36 45
-32 48 -60 58 -70 25z"/>
<path d="M3122 5360 c-11 -18 -10 -19 13 -8 13 6 22 15 19 19 -8 14 -18 11
-32 -11z"/>
<path d="M3398 5318 c-44 -23 -45 -28 -18 -143 16 -73 19 -77 25 -48 8 34 27
45 103 62 24 5 46 12 49 14 6 7 -26 107 -40 125 -14 18 -76 13 -119 -10z"/>
<path d="M3070 5320 c0 -5 5 -10 11 -10 5 0 7 5 4 10 -3 6 -8 10 -11 10 -2 0
-4 -4 -4 -10z"/>
<path d="M3176 5295 c-11 -8 -26 -15 -34 -15 -21 0 -82 -31 -82 -41 0 -5 14
-25 32 -44 34 -39 58 -34 58 12 0 16 13 36 35 56 19 17 35 34 35 39 0 13 -23
9 -44 -7z"/>
<path d="M3035 5220 c-3 -5 -1 -10 4 -10 6 0 11 5 11 10 0 6 -2 10 -4 10 -3 0
-8 -4 -11 -10z"/>
<path d="M3250 5110 c0 -47 73 -135 120 -145 19 -4 30 -13 32 -27 6 -40 28
-32 28 10 0 37 -19 69 -33 56 -12 -12 -85 40 -108 77 -24 38 -39 49 -39 29z"/>
<path d="M6756 4772 l-19 -27 26 24 c28 26 32 31 20 31 -5 0 -17 -13 -27 -28z"/>
<path d="M5726 4613 c-24 -21 -45 -41 -45 -45 -1 -11 46 -21 64 -14 21 8 19
36 -2 37 -14 0 -15 2 -3 6 20 7 50 34 50 45 0 16 -19 7 -64 -29z"/>
<path d="M3980 4590 c14 -10 27 -16 30 -13 6 6 -30 33 -44 33 -6 0 0 -9 14
-20z"/>
<path d="M5792 4590 c-17 -17 -20 -25 -12 -40 21 -40 13 -57 -30 -58 -33 -2
-40 1 -40 18 0 10 -8 23 -17 28 -13 8 -23 2 -45 -25 -15 -20 -25 -39 -23 -44
3 -4 1 -10 -5 -14 -18 -11 -11 -23 25 -45 36 -22 57 -19 85 14 10 14 10 16 -6
16 -15 0 -16 2 -5 13 11 10 14 10 18 0 3 -7 11 -13 18 -13 7 0 16 6 19 13 3 6
4 -15 1 -48 -12 -146 -11 -178 8 -199 18 -21 18 -21 12 4 l-6 25 18 -21 c32
-36 97 -72 174 -96 60 -18 97 -23 194 -23 66 0 133 4 148 8 26 7 27 10 21 43
l-6 35 82 -2 83 -3 34 39 c33 38 35 43 29 95 -3 30 -9 78 -14 105 -6 28 -8 52
-6 54 2 3 18 -8 34 -24 29 -27 30 -28 30 -7 0 19 -80 122 -102 130 -4 2 -8
-15 -8 -37 0 -69 -53 -99 -190 -106 -41 -2 -65 -2 -52 1 15 4 22 11 18 20 -5
13 7 18 41 17 7 0 11 2 10 6 -4 12 54 61 73 61 11 0 20 5 20 11 0 7 -12 9 -32
5 -147 -27 -322 -14 -434 34 -94 40 -104 39 -104 -7 0 -28 -3 -34 -10 -23 -5
8 -10 25 -10 38 0 27 -10 28 -38 2z m253 -84 c-3 -27 4 -41 25 -49 11 -4 9 -6
-5 -6 -12 -1 -26 -6 -33 -13 -13 -13 -13 -11 -16 60 -1 23 3 32 15 32 11 0 15
-7 14 -24z"/>
<path d="M5745 4520 c3 -5 10 -10 16 -10 5 0 9 5 9 10 0 6 -7 10 -16 10 -8 0
-12 -4 -9 -10z"/>
<path d="M6947 4439 c-20 -26 -57 -60 -82 -76 -45 -29 -56 -43 -31 -43 28 0
117 84 145 138 21 40 8 32 -32 -19z"/>
<path d="M5736 4317 c3 -10 9 -15 12 -12 3 3 0 11 -7 18 -10 9 -11 8 -5 -6z"/>
<path d="M6866 4231 c-4 -5 -3 -16 0 -25 4 -11 1 -16 -10 -16 -20 0 -20 -5 0
-35 9 -14 26 -25 37 -25 20 0 20 1 -3 25 l-24 25 29 30 29 30 -27 0 c-14 0
-28 -4 -31 -9z"/>
<path d="M4664 4199 c-7 -12 12 -29 34 -29 19 0 14 18 -7 30 -14 7 -22 7 -27
-1z"/>
<path d="M3600 4161 c0 -6 5 -13 10 -16 6 -3 10 1 10 9 0 9 -4 16 -10 16 -5 0
-10 -4 -10 -9z"/>
<path d="M3850 4140 c-9 -6 -10 -10 -3 -10 6 0 15 5 18 10 8 12 4 12 -15 0z"/>
<path d="M6445 4099 c-4 -12 1 -42 10 -67 9 -26 28 -78 42 -117 48 -136 63
-163 94 -167 25 -4 29 -1 29 18 0 12 -6 29 -13 36 -17 17 -57 100 -57 119 0 8
-6 21 -12 27 -8 8 -9 15 -3 20 17 12 16 110 -1 116 -9 3 -12 11 -9 17 4 6 13
8 21 5 8 -3 14 -1 14 4 0 6 -24 10 -54 10 -47 0 -56 -3 -61 -21z"/>
<path d="M6648 4093 c7 -3 16 -2 19 1 4 3 -2 6 -13 5 -11 0 -14 -3 -6 -6z"/>
<path d="M6384 3980 c3 -14 9 -43 12 -65 4 -22 11 -45 16 -52 5 -7 7 -17 3
-23 -3 -5 -1 -10 4 -10 6 0 11 -10 11 -23 0 -13 4 -27 9 -32 5 -6 14 -26 19
-45 20 -68 64 -185 78 -207 13 -21 22 -23 119 -23 63 0 105 4 105 10 0 6 -39
10 -96 9 -73 0 -100 3 -112 14 -8 9 -47 115 -87 237 -41 122 -77 225 -81 228
-4 4 -4 -4 0 -18z"/>
<path d="M6814 3860 c13 -46 28 -80 36 -80 5 0 0 20 -9 45 -19 49 -37 74 -27
35z"/>
<path d="M5222 3808 c6 -17 36 -34 45 -24 4 4 -1 14 -11 22 -24 17 -39 18 -34
2z"/>
<path d="M6788 3733 c7 -3 16 -2 19 1 4 3 -2 6 -13 5 -11 0 -14 -3 -6 -6z"/>
<path d="M6200 3614 c-37 -16 -70 -42 -70 -55 0 -23 59 -36 155 -34 156 4 204
42 106 84 -59 25 -140 27 -191 5z"/>
<path d="M7400 3605 c-14 -8 -20 -14 -15 -14 6 0 21 6 35 14 14 8 21 14 15 14
-5 0 -21 -6 -35 -14z"/>
<path d="M6430 3493 c-33 -23 -40 -33 -40 -65 0 -17 -12 -39 -31 -59 -27 -27
-30 -36 -24 -68 9 -49 18 -56 55 -41 76 31 120 97 120 178 0 70 -29 90 -80 55z"/>
<path d="M6778 3503 c7 -3 16 -2 19 1 4 3 -2 6 -13 5 -11 0 -14 -3 -6 -6z"/>
<path d="M6970 3499 c-20 -6 -17 -7 18 -8 23 -1 42 1 42 3 0 9 -37 12 -60 5z"/>
<path d="M6090 3485 c-17 -20 -6 -87 22 -137 28 -50 88 -90 135 -92 l38 -1 -3
45 c-2 28 -9 50 -20 58 -42 31 -53 44 -59 73 -8 44 -89 83 -113 54z m70 -34
c0 -6 -4 -13 -10 -16 -5 -3 -10 1 -10 9 0 9 5 16 10 16 6 0 10 -4 10 -9z"/>
<path d="M6264 3482 c-15 -10 -25 -45 -16 -58 16 -24 51 -35 74 -23 l21 12
-24 13 c-22 11 -22 13 -5 20 11 4 21 2 27 -7 7 -11 9 -9 9 7 0 11 -5 25 -12
32 -13 13 -57 16 -74 4z"/>
<path d="M7060 3480 c36 -12 80 -12 80 0 0 6 -24 10 -52 9 -42 -1 -48 -3 -28
-9z"/>
<path d="M7310 3115 c7 -8 16 -12 21 -9 13 8 1 24 -18 24 -13 0 -13 -3 -3 -15z"/>
<path d="M5193 3048 c-18 -24 -24 -38 -16 -38 10 0 36 40 30 46 -2 3 -9 -1
-14 -8z"/>
<path d="M5145 2991 c-3 -5 -1 -12 5 -16 5 -3 10 1 10 9 0 18 -6 21 -15 7z"/>
<path d="M5596 2730 c2 -151 4 -396 5 -545 1 -307 2 -325 32 -325 16 0 18 3 9
12 -8 8 -12 49 -12 118 0 97 -9 348 -30 825 -8 178 -8 172 -4 -85z"/>
<path d="M5050 2860 c-8 -5 -11 -12 -7 -16 4 -4 13 -2 19 4 15 15 7 24 -12 12z"/>
<path d="M4996 2786 c-14 -19 -26 -38 -26 -43 0 -4 -8 -13 -19 -20 -16 -10
-66 -83 -56 -83 15 0 35 15 35 26 0 8 5 14 10 14 6 0 10 -5 10 -11 0 -5 4 -8
9 -4 6 3 14 -2 20 -12 9 -16 12 -15 36 11 l27 29 -23 13 -24 13 30 2 30 1 -27
11 c-16 6 -28 15 -28 20 0 5 6 7 14 4 19 -8 53 17 38 27 -7 4 -12 1 -12 -6 0
-10 -2 -10 -9 1 -5 8 -7 20 -4 28 9 23 -4 14 -31 -21z m-11 -87 c4 -11 4 -23
1 -26 -8 -9 -36 17 -36 33 0 22 28 16 35 -7z"/>
<path d="M5060 2641 c0 -89 15 -111 77 -111 54 0 64 17 28 47 l-27 24 21 23
c11 12 21 30 21 39 0 9 5 17 10 17 6 0 10 7 10 15 0 13 -4 14 -21 4 -21 -11
-65 -8 -101 6 -16 6 -18 0 -18 -64z m65 -30 c-4 -13 2 -25 20 -39 14 -11 21
-23 16 -26 -5 -4 -12 -2 -16 4 -4 6 -11 8 -16 4 -5 -3 -8 -2 -7 3 1 4 -3 18
-10 31 -13 23 -9 42 9 42 6 0 8 -9 4 -19z m-35 -31 c0 -5 -2 -10 -4 -10 -3 0
-8 5 -11 10 -3 6 -1 10 4 10 6 0 11 -4 11 -10z"/>
<path d="M5216 2674 c4 -22 2 -34 -5 -34 -6 0 -11 -12 -11 -26 0 -14 -4 -22
-10 -19 -6 3 -7 -1 -4 -9 9 -23 24 -9 24 22 0 19 3 23 11 15 9 -9 9 -24 -1
-60 -8 -26 -18 -51 -23 -54 -5 -4 -3 -15 4 -27 13 -20 13 -20 26 5 7 14 12 35
11 47 -1 12 4 40 11 63 18 54 8 108 -19 110 -18 2 -20 -2 -14 -33z m34 -44 c0
-5 -4 -10 -10 -10 -5 0 -10 5 -10 10 0 6 5 10 10 10 6 0 10 -4 10 -10z"/>
<path d="M7528 2693 c6 -2 18 -2 25 0 6 3 1 5 -13 5 -14 0 -19 -2 -12 -5z"/>
<path d="M4965 2610 c5 -23 3 -35 -6 -41 -10 -6 -8 -9 9 -9 12 0 22 6 22 14 0
8 3 21 6 29 3 10 -3 20 -16 27 -21 11 -22 10 -15 -20z"/>
<path d="M4841 2567 c-13 -21 -12 -21 5 -5 10 10 16 20 13 22 -3 3 -11 -5 -18
-17z"/>
<path d="M6761 2563 c-1 -27 -8 -28 -35 -8 -29 22 -36 19 -35 -17 0 -30 1 -31
9 -10 8 19 13 21 29 12 30 -15 34 -28 11 -35 -23 -7 -26 -21 -7 -27 17 -7 113
27 110 38 -1 5 -17 11 -35 14 -24 4 -34 12 -39 30 -7 24 -7 24 -8 3z"/>
<path d="M5270 2536 c0 -14 4 -27 8 -30 5 -3 6 8 4 25 -5 35 -12 38 -12 5z"/>
<path d="M6510 2548 c0 -4 5 -19 12 -33 12 -28 28 -33 28 -10 0 18 27 20 32 3
5 -15 28 -1 28 17 0 8 -6 12 -14 9 -8 -3 -17 -1 -21 5 -9 16 -25 13 -25 -4 0
-20 -17 -19 -29 3 -6 9 -11 14 -11 10z"/>
<path d="M5044 2510 c-1 -29 0 -30 42 -28 42 1 62 16 27 20 -10 0 -25 2 -33 2
-8 1 -14 9 -12 19 2 9 -3 17 -10 17 -8 0 -13 -13 -14 -30z"/>
<path d="M4846 2521 c-4 -7 -5 -15 -2 -18 9 -9 19 4 14 18 -4 11 -6 11 -12 0z"/>
<path d="M6375 2500 c-16 -32 -16 -33 9 -24 8 3 12 12 9 20 -3 8 -1 14 5 14 5
0 12 -7 16 -15 3 -8 13 -15 22 -15 15 0 14 4 -6 25 -30 32 -36 31 -55 -5z"/>
<path d="M5145 2500 c-3 -5 1 -10 9 -10 9 0 16 5 16 10 0 6 -4 10 -9 10 -6 0
-13 -4 -16 -10z"/>
<path d="M6208 2505 c-2 -3 -3 -18 0 -35 4 -26 7 -29 31 -24 47 10 51 13 51
39 0 22 -4 25 -38 25 -21 0 -41 -2 -44 -5z m70 -22 c-2 -11 -14 -19 -31 -21
-22 -3 -27 1 -27 17 0 17 6 21 31 21 24 0 30 -4 27 -17z"/>
<path d="M6034 2476 c-10 -27 15 -57 44 -54 23 3 27 8 29 36 1 30 -1 32 -33
32 -21 0 -37 -6 -40 -14z"/>
<path d="M5158 2473 c7 -3 16 -2 19 1 4 3 -2 6 -13 5 -11 0 -14 -3 -6 -6z"/>
<path d="M5068 2453 c-25 -4 -28 -8 -26 -44 2 -46 5 -48 18 -14 10 27 30 34
30 10 0 -12 7 -14 28 -9 37 9 40 14 9 14 -30 0 -35 11 -13 30 12 9 22 6 53
-14 47 -32 53 -32 53 0 0 23 -2 25 -16 13 -11 -9 -17 -10 -23 -1 -8 13 -74 22
-113 15z"/>
<path d="M5185 2380 c-3 -5 -1 -10 4 -10 6 0 11 5 11 10 0 6 -2 10 -4 10 -3 0
-8 -4 -11 -10z"/>
<path d="M6425 2365 c-44 -8 -86 -14 -93 -14 -10 -1 -12 -10 -7 -33 4 -18 8
-34 9 -35 3 -4 238 27 246 32 4 2 5 18 2 35 -4 27 -7 30 -41 29 -20 -1 -72 -7
-116 -14z m113 -22 c-5 -26 -38 -29 -38 -4 0 15 6 21 21 21 14 0 19 -5 17 -17z
m-70 -10 c-4 -22 -22 -20 -26 1 -2 10 3 16 13 16 10 0 15 -7 13 -17z m-62 -4
c10 -17 -13 -36 -27 -22 -12 12 -4 33 11 33 5 0 12 -5 16 -11z"/>
<path d="M5140 2350 c0 -5 9 -10 21 -10 11 0 17 5 14 10 -3 6 -13 10 -21 10
-8 0 -14 -4 -14 -10z"/>
<path d="M3798 2313 c-26 -31 -90 -153 -86 -165 4 -10 94 125 110 164 9 23 -4
23 -24 1z"/>
<path d="M4650 2221 c0 -5 7 -11 15 -15 8 -3 15 -12 15 -21 0 -18 12 -19 28
-3 18 18 15 28 -8 28 -11 0 -20 5 -20 10 0 6 -7 10 -15 10 -8 0 -15 -4 -15 -9z"/>
<path d="M6627 2223 c-3 -5 5 -8 18 -8 13 0 21 3 18 8 -2 4 -10 7 -18 7 -8 0
-16 -3 -18 -7z"/>
<path d="M6500 2196 c0 -2 7 -6 15 -10 8 -3 15 -1 15 4 0 6 -7 10 -15 10 -8 0
-15 -2 -15 -4z"/>
<path d="M3670 2120 c0 -5 5 -10 10 -10 6 0 10 5 10 10 0 6 -4 10 -10 10 -5 0
-10 -4 -10 -10z"/>
<path d="M7100 2090 c0 -40 2 -45 20 -45 17 -1 34 20 44 53 7 20 4 22 -28 22
-33 0 -36 -2 -36 -30z"/>
<path d="M3686 2082 c-19 -38 -13 -102 14 -135 15 -18 20 -19 34 -8 23 19 21
72 -3 78 -25 6 -35 32 -16 39 19 8 19 15 1 39 -13 18 -14 17 -30 -13z"/>
<path d="M7813 2089 c4 -13 7 -30 7 -36 0 -7 7 -13 15 -13 24 0 19 47 -6 61
-20 10 -21 9 -16 -12z"/>
<path d="M7397 2072 c-7 -11 4 -62 13 -62 12 0 19 26 13 49 -5 21 -18 27 -26
13z"/>
<path d="M3840 2061 c0 -6 9 -16 20 -23 11 -7 20 -20 20 -28 0 -13 1 -13 10 0
14 22 13 24 -20 43 -16 10 -30 13 -30 8z"/>
<path d="M4640 2016 c0 -9 5 -16 10 -16 6 0 10 4 10 9 0 6 -4 13 -10 16 -5 3
-10 -1 -10 -9z"/>
<path d="M4039 1980 c-13 -23 -31 -40 -43 -42 -13 -2 -21 -10 -21 -23 0 -15
-7 -20 -28 -20 -19 -1 -26 3 -22 13 2 7 1 10 -4 7 -5 -3 -12 -1 -16 5 -7 12
-26 -4 -44 -38 -10 -20 -9 -23 11 -31 24 -9 108 14 108 30 0 4 11 14 24 21 20
10 76 94 76 114 0 17 -22 -3 -41 -36z"/>
<path d="M3784 1992 c-12 -9 -25 -27 -28 -39 -6 -18 -1 -25 24 -38 40 -21 56
-15 77 30 18 38 16 45 -16 48 -11 1 -21 5 -21 9 0 13 -13 9 -36 -10z"/>
<path d="M4693 1860 c3 -11 1 -20 -4 -20 -5 0 -9 -12 -9 -27 0 -37 17 -18 25
30 5 26 4 37 -5 37 -7 0 -10 -8 -7 -20z"/>
<path d="M5391 1854 c0 -11 3 -14 6 -6 3 7 2 16 -1 19 -3 4 -6 -2 -5 -13z"/>
<path d="M4768 1853 c7 -3 16 -2 19 1 4 3 -2 6 -13 5 -11 0 -14 -3 -6 -6z"/>
<path d="M4790 1831 c0 -6 5 -13 10 -16 6 -3 10 1 10 9 0 9 -4 16 -10 16 -5 0
-10 -4 -10 -9z"/>
<path d="M5315 1830 c-7 -12 2 -30 16 -30 12 0 12 27 0 35 -5 3 -12 1 -16 -5z"/>
<path d="M5391 1792 c-1 -27 13 -58 42 -89 31 -35 41 -27 13 10 -13 17 -31 48
-39 67 -13 30 -15 31 -16 12z"/>
<path d="M4761 1774 c0 -11 3 -14 6 -6 3 7 2 16 -1 19 -3 4 -6 -2 -5 -13z"/>
<path d="M4694 1755 c-3 -8 -4 -20 -2 -27 3 -7 7 -1 10 15 6 29 1 36 -8 12z"/>
<path d="M4863 1724 c-3 -8 -1 -20 6 -27 8 -8 11 -4 11 16 0 30 -7 35 -17 11z"/>
<path d="M6460 1703 c-19 -1 -124 -15 -232 -29 -108 -15 -204 -24 -212 -21 -9
4 -13 13 -10 21 3 8 1 17 -5 21 -6 3 -11 2 -11 -3 0 -5 -12 -8 -27 -6 l-28 4
28 -12 c33 -14 36 -37 5 -39 -13 -1 -32 -3 -43 -4 -11 -1 -65 -3 -120 -5
l-100 -3 114 -8 c63 -5 121 -11 128 -13 7 -3 13 -17 13 -32 l0 -27 73 7 c39 4
87 9 105 11 39 4 52 13 33 24 -9 6 -7 10 8 14 13 3 24 -1 30 -10 5 -10 28 -18
59 -21 52 -5 301 19 270 26 -32 6 -20 25 12 19 16 -4 32 -2 35 3 3 6 32 10 63
11 31 1 68 4 82 8 45 13 -52 18 -282 16 -229 -3 -282 8 -102 20 59 4 125 13
148 20 41 13 33 15 -34 8z"/>
<path d="M7229 1670 c-36 -35 -54 -66 -50 -86 1 -7 -9 -15 -21 -19 -21 -7 -22
-8 -4 -12 11 -3 26 -11 34 -19 7 -8 28 -14 45 -14 22 0 28 -3 20 -11 -5 -5
-58 -13 -117 -16 -94 -5 -106 -4 -106 11 0 19 -16 21 -23 3 -12 -32 9 -39 102
-35 100 3 121 -9 49 -29 -39 -11 -40 -12 -8 -8 159 19 376 28 451 19 46 -6 92
-8 103 -4 28 10 135 -9 178 -31 27 -14 38 -26 38 -41 0 -12 12 -33 27 -46 l28
-23 14 30 c11 24 12 34 3 43 -9 9 -12 9 -12 -3 0 -9 -7 -16 -16 -16 -11 0 -14
7 -11 26 5 23 -14 65 -80 186 -6 11 -17 34 -23 50 l-13 30 -9 -32 c-4 -18 -12
-48 -16 -65 -7 -28 -13 -33 -49 -40 -23 -4 -138 -8 -255 -10 l-212 -3 -9 45
c-4 25 -11 70 -15 100 l-7 55 -36 -35z"/>
<path d="M7840 1685 c0 -8 5 -15 10 -15 6 0 10 7 10 15 0 8 -4 15 -10 15 -5 0
-10 -7 -10 -15z"/>
<path d="M4545 1680 c3 -5 8 -10 11 -10 2 0 4 5 4 10 0 6 -5 10 -11 10 -5 0
-7 -4 -4 -10z"/>
<path d="M5332 1624 c2 -12 19 -16 63 -19 53 -3 56 -2 25 7 -19 5 -48 13 -63
18 -23 7 -28 6 -25 -6z"/>
<path d="M5540 1620 c0 -5 7 -10 15 -10 8 0 15 5 15 10 0 6 -7 10 -15 10 -8 0
-15 -4 -15 -10z"/>
<path d="M4642 1575 c0 -16 2 -22 5 -12 2 9 2 23 0 30 -3 6 -5 -1 -5 -18z"/>
<path d="M4671 1584 c0 -11 3 -14 6 -6 3 7 2 16 -1 19 -3 4 -6 -2 -5 -13z"/>
<path d="M5016 1591 c-4 -5 -2 -12 3 -15 5 -4 12 -2 15 3 4 5 2 12 -3 15 -5 4
-12 2 -15 -3z"/>
<path d="M5916 1582 c-2 -4 -1 -14 5 -22 7 -12 9 -10 9 8 0 23 -5 28 -14 14z"/>
<path d="M4858 1533 c-28 -32 -35 -57 -43 -135 -6 -66 -4 -79 9 -84 9 -3 16
-17 16 -31 0 -20 -2 -22 -13 -11 -8 7 -16 20 -20 28 -3 8 -6 -1 -6 -22 -1 -20
4 -38 11 -40 7 -3 8 -10 4 -17 -7 -11 -10 -11 -17 0 -6 10 -9 8 -9 -8 0 -13 4
-23 8 -23 9 0 42 -64 42 -80 0 -5 -7 -7 -15 -4 -25 10 -20 -61 6 -79 16 -11
21 -26 22 -66 0 -28 -2 -53 -6 -57 -11 -11 -37 4 -47 28 -9 20 -10 19 -4 -7 3
-16 10 -32 15 -36 5 -3 -2 -19 -16 -35 -18 -20 -25 -39 -23 -61 1 -18 -1 -35
-5 -39 -13 -13 -7 -41 13 -59 25 -22 36 -14 20 15 -10 20 -10 21 8 11 10 -6
27 -22 36 -36 24 -37 40 -21 33 35 -3 25 -2 63 3 83 5 22 4 39 -2 43 -5 3 -8
13 -6 21 3 15 78 28 78 13 0 -4 42 -11 93 -15 79 -7 87 -9 57 -16 -19 -5 -61
-10 -92 -11 -46 -2 -55 -5 -43 -14 15 -12 235 -10 315 2 19 2 72 7 118 11 81
5 82 5 83 -18 l1 -24 8 25 c8 22 9 21 7 -10 -2 -27 -8 -38 -29 -48 -16 -7 -28
-19 -28 -26 0 -8 -14 -19 -31 -26 -25 -11 -28 -15 -15 -22 9 -5 21 -6 26 -3
18 11 82 -15 76 -31 -4 -11 5 -14 39 -14 46 0 60 14 25 25 -12 4 -19 15 -19
28 1 12 -7 59 -16 105 -15 76 -15 87 -1 123 9 21 14 39 11 39 -2 0 -26 -5 -54
-11 -46 -10 -50 -13 -53 -42 -3 -30 -6 -32 -53 -39 -63 -9 -75 -5 -75 27 0 23
-3 25 -51 25 -28 0 -97 10 -152 22 -56 12 -118 21 -139 20 -56 -2 -69 26 -73
158 -3 86 -1 111 11 120 7 7 14 26 14 42 0 25 3 28 20 23 12 -4 28 -1 35 5 14
12 39 15 165 24 30 2 100 9 155 15 62 7 148 9 226 5 74 -4 129 -3 132 3 5 8
-130 18 -230 16 -24 0 -43 3 -43 7 0 13 99 21 120 10 27 -14 178 -2 209 17 43
28 211 30 211 3 0 -5 -11 -12 -25 -15 -14 -3 -37 -8 -52 -11 -19 -4 -23 -8
-14 -14 11 -6 10 -10 -4 -17 -16 -9 -16 -10 1 -17 9 -4 22 -2 28 4 21 21 88 8
79 -16 -8 -21 -152 -20 -179 2 -14 11 -15 14 -3 11 9 -3 22 -1 30 4 9 6 3 8
-18 5 -18 -2 -33 -1 -33 3 0 3 -15 7 -33 8 -31 2 -31 1 16 -23 27 -14 46 -30
44 -37 -2 -7 -1 -19 4 -28 7 -13 20 -15 76 -11 37 2 76 5 86 5 9 1 17 5 17 10
0 4 5 5 10 2 11 -7 6 56 -9 135 l-7 35 -105 -1 c-75 -1 -112 -6 -134 -18 -20
-10 -55 -16 -102 -16 -127 0 -74 26 65 32 24 1 41 6 39 12 -6 17 -167 7 -199
-12 -16 -9 -28 -20 -28 -24 0 -5 -24 -8 -52 -7 -29 1 -113 -1 -187 -4 -120 -5
-136 -8 -157 -28 -27 -26 -73 -31 -92 -12 -11 11 -8 13 15 13 15 0 37 8 48 16
19 15 17 15 -32 11 -47 -4 -51 -3 -56 19 -2 13 1 28 6 33 8 8 1 14 -21 22 -19
6 -32 18 -32 27 0 15 2 15 10 2 8 -12 10 -12 10 -1 0 13 -27 40 -41 41 -3 0
-13 -8 -21 -17z m288 -153 c8 0 14 -4 14 -10 0 -17 -47 -11 -54 6 -5 12 -2 15
10 10 8 -3 22 -6 30 -6z m204 0 c-19 -13 -30 -13 -30 0 0 6 10 10 23 10 18 0
19 -2 7 -10z m-500 -10 c0 11 3 11 11 -3 8 -13 8 -22 1 -29 -15 -15 -32 -1
-32 25 0 18 2 19 10 7 9 -13 10 -13 10 0z m380 0 c-20 -13 -40 -13 -40 0 0 6
12 10 28 10 21 0 24 -2 12 -10z m77 4 c-3 -3 -12 -4 -19 -1 -8 3 -5 6 6 6 11
1 17 -2 13 -5z m188 -494 c3 -5 -1 -10 -10 -10 -9 0 -13 5 -10 10 3 6 8 10 10
10 2 0 7 -4 10 -10z m-640 -80 c3 -5 1 -10 -4 -10 -6 0 -11 5 -11 10 0 6 2 10
4 10 3 0 8 -4 11 -10z"/>
<path d="M5005 1530 c-3 -5 -1 -10 4 -10 6 0 11 5 11 10 0 6 -2 10 -4 10 -3 0
-8 -4 -11 -10z"/>
<path d="M7090 1530 c0 -5 7 -7 15 -4 8 4 15 8 15 10 0 2 -7 4 -15 4 -8 0 -15
-4 -15 -10z"/>
<path d="M4491 1504 c0 -11 3 -14 6 -6 3 7 2 16 -1 19 -3 4 -6 -2 -5 -13z"/>
<path d="M4666 1503 c-4 -9 -2 -21 4 -27 7 -7 10 -2 10 17 0 31 -5 34 -14 10z"/>
<path d="M4772 1460 c0 -14 2 -19 5 -12 2 6 2 18 0 25 -3 6 -5 1 -5 -13z"/>
<path d="M4627 1454 c-4 -4 -7 -19 -6 -33 l0 -26 10 24 c10 26 8 47 -4 35z"/>
<path d="M4482 1405 c0 -16 2 -22 5 -12 2 9 2 23 0 30 -3 6 -5 -1 -5 -18z"/>
<path d="M4637 1370 c-7 -26 9 -35 28 -16 14 13 13 16 -4 25 -15 9 -20 7 -24
-9z"/>
<path d="M5768 1373 c6 -2 18 -2 25 0 6 3 1 5 -13 5 -14 0 -19 -2 -12 -5z"/>
<path d="M4431 1344 c0 -11 3 -14 6 -6 3 7 2 16 -1 19 -3 4 -6 -2 -5 -13z"/>
<path d="M4460 1316 c0 -25 -4 -48 -10 -51 -5 -3 -10 -26 -10 -51 0 -42 -12
-59 -23 -31 -3 6 -6 -3 -6 -21 -1 -29 2 -33 21 -30 14 2 24 11 26 23 2 11 6
27 9 35 3 8 5 19 4 24 -1 6 6 27 15 48 21 46 46 47 55 3 6 -28 7 -28 9 -5 1
14 4 19 7 12 2 -6 9 -10 14 -6 12 7 12 54 -1 54 -5 0 -10 -7 -10 -16 0 -12 -5
-11 -19 7 -17 21 -22 22 -41 11 -20 -12 -20 -11 -11 7 15 27 14 31 -9 31 -17
0 -20 -7 -20 -44z"/>
<path d="M4605 1313 c-3 -27 -8 -63 -11 -81 -4 -23 -2 -32 5 -27 7 4 11 -4 11
-19 0 -14 5 -26 11 -26 8 0 9 12 3 38 -5 20 -8 65 -7 100 3 74 -3 81 -12 15z"/>
<path d="M4761 1344 c0 -11 3 -14 6 -6 3 7 2 16 -1 19 -3 4 -6 -2 -5 -13z"/>
<path d="M4680 1295 c0 -8 -5 -15 -12 -15 -9 0 -9 -3 -1 -11 6 -6 16 -8 22 -5
14 9 14 46 1 46 -5 0 -10 -7 -10 -15z"/>
<path d="M7976 1238 c-7 -40 5 -71 18 -49 4 6 3 11 -3 11 -6 0 -8 7 -4 16 5
14 8 12 20 -9 18 -36 8 -54 -34 -60 -20 -4 -80 -20 -132 -36 -53 -16 -114 -33
-136 -38 -36 -7 -40 -11 -40 -38 0 -29 -1 -30 -53 -33 -58 -3 -79 7 -84 41 -2
18 -12 23 -53 29 -27 4 -66 10 -85 13 l-35 7 27 -21 c14 -12 37 -22 50 -22 17
-1 18 -3 6 -6 -20 -5 -23 -18 -8 -28 6 -3 10 -16 10 -29 0 -29 10 -39 27 -25
8 7 34 10 63 7 64 -6 230 24 245 45 6 9 35 25 64 36 29 11 68 32 88 47 45 34
56 28 98 -52 63 -119 111 -189 133 -192 37 -6 125 65 94 76 -22 7 -60 49 -71
79 -7 18 -21 35 -30 38 -18 6 -41 49 -41 77 0 11 -6 18 -12 17 -29 -3 -36 3
-42 36 -5 24 -11 32 -21 29 -11 -4 -16 5 -21 35 -8 53 -30 53 -38 -1z"/>
<path d="M4752 1220 c0 -14 2 -19 5 -12 2 6 2 18 0 25 -3 6 -5 1 -5 -13z"/>
<path d="M5783 1217 c1 -5 6 -8 10 -8 4 1 41 1 82 1 46 0 75 4 75 11 0 7 -30
9 -85 7 -47 -2 -84 -7 -82 -11z"/>
<path d="M4536 1204 c-3 -9 -6 -29 -6 -44 0 -16 -5 -32 -12 -36 -8 -5 -9 2 -5
24 4 19 2 32 -3 32 -14 0 -13 -74 1 -104 14 -31 29 -24 29 13 0 15 4 31 9 37
15 17 21 94 6 94 -7 0 -16 -7 -19 -16z m11 -26 c-3 -8 -6 -5 -6 6 -1 11 2 17
5 13 3 -3 4 -12 1 -19z"/>
<path d="M4635 1200 c4 -6 11 -8 16 -5 14 9 11 15 -7 15 -8 0 -12 -5 -9 -10z"/>
<path d="M7065 1200 c4 -6 11 -8 16 -5 14 9 11 15 -7 15 -8 0 -12 -5 -9 -10z"/>
<path d="M5884 1145 c-10 -8 -14 -15 -8 -15 5 0 14 4 20 9 5 5 25 11 44 14
l35 4 -36 1 c-19 1 -44 -5 -55 -13z"/>
<path d="M6248 1103 c7 -3 16 -2 19 1 4 3 -2 6 -13 5 -11 0 -14 -3 -6 -6z"/>
<path d="M4560 1090 c0 -5 5 -10 10 -10 6 0 10 5 10 10 0 6 -4 10 -10 10 -5 0
-10 -4 -10 -10z"/>
<path d="M8196 1050 c3 -14 10 -29 15 -34 14 -16 10 6 -7 34 l-15 25 7 -25z"/>
<path d="M8230 986 c0 -8 5 -18 10 -21 6 -3 10 1 10 9 0 8 -4 18 -10 21 -5 3
-10 -1 -10 -9z"/>
<path d="M4552 930 c0 -19 2 -27 5 -17 2 9 2 25 0 35 -3 9 -5 1 -5 -18z"/>
<path d="M4541 864 c0 -11 3 -14 6 -6 3 7 2 16 -1 19 -3 4 -6 -2 -5 -13z"/>
<path d="M8266 861 c-8 -13 4 -43 16 -39 5 2 9 7 9 11 -1 4 -1 14 -1 22 0 17
-16 20 -24 6z"/>
<path d="M6488 828 c3 -13 17 -41 30 -63 14 -22 25 -45 25 -52 0 -13 51 -23
67 -13 5 3 -8 16 -30 29 -22 12 -40 28 -40 36 0 16 -42 84 -52 85 -3 0 -4 -10
0 -22z"/>
<path d="M8260 804 c0 -3 10 -14 23 -25 19 -16 20 -20 7 -29 -13 -8 -10 -14
18 -36 17 -14 32 -30 32 -35 0 -11 -27 -12 -32 -1 -1 4 -18 15 -35 25 -51 28
-30 -2 28 -42 37 -25 48 -38 44 -52 -4 -12 2 -23 20 -35 14 -9 23 -19 21 -22
-3 -3 -12 1 -21 8 -9 7 -19 10 -23 6 -4 -4 4 -16 18 -27 14 -10 32 -26 41 -35
13 -12 18 -13 22 -2 3 7 6 3 6 -9 1 -13 5 -23 9 -23 9 0 45 -70 39 -76 -2 -2
-17 12 -35 30 -22 24 -38 33 -52 29 -13 -3 -20 0 -20 8 -1 13 -80 107 -80 95
0 -4 10 -23 23 -44 12 -21 27 -47 33 -57 6 -11 20 -24 32 -30 12 -5 22 -15 22
-22 0 -7 8 -13 18 -13 11 0 26 -8 36 -18 15 -18 76 -135 76 -149 0 -10 -35 40
-55 80 -21 40 -50 67 -72 67 -10 0 -9 -6 3 -25 9 -14 12 -25 8 -25 -5 0 4 -11
20 -24 17 -13 35 -39 41 -57 7 -19 17 -34 23 -34 5 0 14 -3 18 -7 4 -4 13 -3
21 3 8 8 13 8 13 1 0 -6 -5 -12 -12 -14 -9 -3 -9 -18 2 -62 7 -31 17 -59 22
-62 4 -3 8 -18 8 -35 0 -27 3 -29 35 -29 24 0 35 5 35 15 0 8 5 15 11 15 6 0
9 -6 6 -13 -3 -8 4 -14 19 -15 29 -2 30 2 4 43 -17 28 -18 34 -5 39 8 3 15 10
15 17 0 6 -7 9 -15 5 -19 -7 -45 20 -52 55 -3 16 -10 26 -15 23 -10 -7 -28 13
-28 31 0 6 5 3 10 -5 8 -13 10 -13 10 2 0 9 -12 26 -27 38 -16 12 -22 18 -15
15 9 -5 12 -1 10 11 -4 23 -17 38 -42 47 -13 5 -17 13 -12 31 4 18 -9 54 -50
133 -31 59 -65 117 -75 129 -11 11 -17 23 -13 26 7 7 -55 142 -67 146 -5 2 -7
8 -3 13 3 5 -6 9 -20 9 -14 0 -26 -3 -26 -6z m63 -68 c4 -10 1 -13 -9 -9 -7 3
-14 9 -14 14 0 14 17 10 23 -5z m281 -622 c3 -8 2 -12 -4 -9 -6 3 -10 10 -10
16 0 14 7 11 14 -7z m39 -67 c-7 -12 -33 13 -33 31 0 13 3 12 19 -4 10 -10 16
-23 14 -27z m-43 -7 c0 -11 -2 -20 -4 -20 -2 0 -6 9 -9 20 -3 11 -1 20 4 20 5
0 9 -9 9 -20z"/>
<path d="M8240 771 c0 -5 7 -11 15 -15 8 -3 15 -1 15 3 0 5 -7 11 -15 15 -8 3
-15 1 -15 -3z"/>
<path d="M4521 704 c0 -11 3 -14 6 -6 3 7 2 16 -1 19 -3 4 -6 -2 -5 -13z"/>
<path d="M6445 700 c-3 -5 -1 -10 4 -10 6 0 11 5 11 10 0 6 -2 10 -4 10 -3 0
-8 -4 -11 -10z"/>
<path d="M4746 668 c11 -13 26 -34 33 -48 7 -14 33 -47 57 -74 29 -30 43 -53
40 -63 -3 -8 -11 -70 -17 -136 -15 -170 -18 -187 -34 -187 -8 0 -15 -4 -15
-10 0 -5 5 -10 10 -10 12 0 3 -49 -11 -64 -5 -6 -9 -25 -9 -43 l0 -33 266 0
c217 0 268 3 280 14 8 8 14 19 14 25 0 6 15 11 33 11 17 0 43 3 56 7 23 6 24
4 18 -25 l-6 -32 203 0 203 0 11 25 c6 14 16 25 22 25 15 0 50 33 50 47 0 7 6
13 13 14 6 0 32 2 56 4 55 4 72 19 45 40 -18 13 -18 14 8 9 20 -3 30 1 38 16
6 11 25 27 42 36 22 11 27 18 18 24 -9 6 -7 11 9 20 13 6 27 25 33 41 8 22 15
28 28 24 19 -6 72 39 84 71 4 11 14 15 31 12 17 -4 25 -1 25 8 0 8 -8 14 -17
14 -13 0 -14 3 -5 12 10 10 17 10 33 0 21 -13 21 -12 18 49 l-4 63 35 3 c19 2
37 8 38 13 5 14 23 12 42 -5 10 -9 25 -13 34 -9 29 11 11 29 -32 32 -38 3 -42
5 -41 30 1 17 3 21 6 10 4 -15 15 -18 66 -17 l62 1 -43 10 c-24 5 -42 12 -39
14 3 3 33 7 66 8 34 2 65 6 68 10 9 8 -51 8 -267 -4 -102 -5 -234 -12 -295
-15 -60 -2 -186 -9 -280 -14 -193 -11 -667 -26 -795 -25 -92 0 -170 19 -200
46 -12 11 -20 13 -22 6 -3 -7 -12 -4 -24 9 -10 11 -28 23 -39 27 -19 7 -19 7
1 -16z m1699 -66 c16 -5 13 -7 -15 -12 -35 -5 -80 8 -80 24 0 8 55 2 95 -12z
m-670 -14 c18 -8 31 -8 50 0 20 9 23 9 18 -3 -3 -10 -19 -15 -43 -15 -21 0
-41 -6 -43 -12 -3 -7 -6 -3 -6 9 -1 12 -9 24 -18 26 -16 4 -17 5 -1 6 9 0 29
-4 43 -11z m-118 -4 c-3 -3 -12 -4 -19 -1 -8 3 -5 6 6 6 11 1 17 -2 13 -5z
m340 0 c-3 -3 -12 -4 -19 -1 -8 3 -5 6 6 6 11 1 17 -2 13 -5z m126 -1 c-7 -2
-21 -2 -30 0 -10 3 -4 5 12 5 17 0 24 -2 18 -5z m-827 -12 c-3 -5 -15 -7 -26
-4 -28 7 -25 13 6 13 14 0 23 -4 20 -9z m101 -11 c15 0 24 -3 20 -6 -9 -9 -97
6 -97 16 0 6 11 5 26 0 14 -6 37 -10 51 -10z m298 -9 c-6 -5 -25 10 -25 20 0
5 6 4 14 -3 8 -7 12 -15 11 -17z m225 19 c0 -5 -11 -10 -24 -10 -14 0 -28 5
-31 10 -4 6 7 10 24 10 17 0 31 -4 31 -10z m-801 -16 c10 -9 -35 -3 -49 6 -11
8 -7 9 15 4 17 -4 32 -8 34 -10z m1246 -30 c-5 -31 -4 -36 9 -31 9 4 16 5 16
3 0 -3 3 -13 6 -23 5 -15 4 -15 -5 -3 -8 12 -13 12 -23 2 -25 -25 -39 -14 -33
26 9 53 13 62 26 62 8 0 9 -12 4 -36z m-315 -14 c0 -11 -4 -20 -10 -20 -5 0
-10 9 -10 20 0 11 5 20 10 20 6 0 10 -9 10 -20z m-1136 -29 c3 -4 -3 -32 -14
-62 l-19 -54 -1 47 c0 65 16 98 34 69z m1121 -88 c-10 -60 -14 -68 -27 -55 -9
9 -8 22 2 52 17 50 33 52 25 3z m-55 -61 c0 -7 -4 -10 -10 -7 -5 3 -10 16 -10
28 0 18 2 19 10 7 5 -8 10 -21 10 -28z m10 -52 c0 -5 -4 -10 -10 -10 -5 0 -10
5 -10 10 0 6 5 10 10 10 6 0 10 -4 10 -10z m-490 -168 c0 -13 -12 -22 -22 -16
-10 6 -1 24 13 24 5 0 9 -4 9 -8z m-46 -17 c-4 -8 -10 -12 -15 -9 -11 6 -2 24
11 24 5 0 7 -7 4 -15z m-44 -5 c0 -5 -7 -10 -15 -10 -8 0 -15 5 -15 10 0 6 7
10 15 10 8 0 15 -4 15 -10z"/>
<path d="M6908 683 c18 -2 45 -2 60 0 15 2 0 4 -33 4 -33 0 -45 -2 -27 -4z"/>
<path d="M6703 663 c7 -7 139 -4 146 3 2 2 -31 4 -74 4 -43 0 -75 -3 -72 -7z"/>
<path d="M8288 635 c13 -9 26 -14 29 -11 8 8 3 12 -27 21 l-25 7 23 -17z"/>
<path d="M4495 587 c-4 -26 -5 -50 -2 -53 8 -8 20 60 15 83 -3 10 -8 -4 -13
-30z"/>
<path d="M8260 620 c0 -5 5 -10 11 -10 5 0 7 5 4 10 -3 6 -8 10 -11 10 -2 0
-4 -4 -4 -10z"/>
<path d="M7053 604 c-7 -3 -13 -11 -13 -17 0 -9 65 -112 80 -127 10 -10 60
-90 60 -96 0 -4 16 -29 35 -55 19 -27 35 -52 35 -55 0 -12 55 -93 63 -94 4 0
3 9 -3 19 -13 26 -13 31 5 31 8 0 15 -8 16 -17 0 -11 3 -13 6 -5 6 14 -122
275 -143 293 -8 6 -14 19 -14 28 -1 9 -13 34 -28 56 -27 39 -64 54 -99 39z
m250 -370 c-7 -20 -10 -18 -15 11 -4 20 -2 23 8 14 7 -6 10 -17 7 -25z"/>
<path d="M8740 600 c0 -5 5 -10 10 -10 6 0 10 5 10 10 0 6 -4 10 -10 10 -5 0
-10 -4 -10 -10z"/>
<path d="M6617 578 c16 -8 32 -8 55 0 32 9 31 10 -22 10 -46 1 -52 -1 -33 -10z"/>
<path d="M8310 580 c0 -5 5 -10 10 -10 6 0 10 5 10 10 0 6 -4 10 -10 10 -5 0
-10 -4 -10 -10z"/>
<path d="M4531 554 c1 -10 -2 -29 -6 -41 -4 -14 -3 -23 3 -23 13 0 22 62 11
74 -4 5 -8 1 -8 -10z"/>
<path d="M4801 544 c0 -11 3 -14 6 -6 3 7 2 16 -1 19 -3 4 -6 -2 -5 -13z"/>
<path d="M4481 504 c0 -11 3 -14 6 -6 3 7 2 16 -1 19 -3 4 -6 -2 -5 -13z"/>
<path d="M4781 494 c0 -11 3 -14 6 -6 3 7 2 16 -1 19 -3 4 -6 -2 -5 -13z"/>
<path d="M4811 494 c0 -11 3 -14 6 -6 3 7 2 16 -1 19 -3 4 -6 -2 -5 -13z"/>
<path d="M6431 494 c0 -11 3 -14 6 -6 3 7 2 16 -1 19 -3 4 -6 -2 -5 -13z"/>
<path d="M8800 491 c0 -6 4 -13 10 -16 6 -3 7 1 4 9 -7 18 -14 21 -14 7z"/>
<path d="M4474 446 c-3 -21 -4 -39 -1 -42 2 -3 8 11 11 32 4 20 5 38 2 41 -2
3 -8 -11 -12 -31z"/>
<path d="M4645 441 c-3 -17 -11 -31 -15 -31 -5 0 -7 -6 -5 -12 3 -7 9 -40 14
-73 l9 -60 1 60 c0 33 5 74 10 91 5 17 5 37 1 44 -5 8 -10 2 -15 -19z"/>
<path d="M7681 394 c0 -11 3 -14 6 -6 3 7 2 16 -1 19 -3 4 -6 -2 -5 -13z"/>
<path d="M4736 381 c-4 -5 -2 -12 3 -15 5 -4 12 -2 15 3 4 5 2 12 -3 15 -5 4
-12 2 -15 -3z"/>
<path d="M8350 364 c0 -6 10 -33 22 -60 12 -27 24 -67 27 -89 5 -33 12 -42 39
-54 17 -8 32 -21 32 -28 0 -7 5 -13 10 -13 6 0 10 -7 10 -15 0 -8 -9 -15 -20
-15 -24 0 -24 -15 -1 -55 13 -22 26 -31 50 -33 l32 -3 -7 38 c-7 42 -50 123
-64 123 -6 0 -10 7 -10 15 0 25 -30 77 -56 98 -13 10 -24 24 -24 30 0 7 -9 26
-20 42 -11 17 -20 25 -20 19z"/>
<path d="M4549 315 c-5 -50 -4 -63 7 -53 3 3 4 28 2 54 l-3 49 -6 -50z"/>
<path d="M4710 330 c0 -13 5 -18 15 -14 12 5 13 10 4 20 -15 19 -19 18 -19 -6z"/>
<path d="M4752 329 c2 -7 10 -15 17 -17 8 -3 12 1 9 9 -2 7 -10 15 -17 17 -8
3 -12 -1 -9 -9z"/>
<path d="M7721 289 c-1 -8 6 -24 15 -35 15 -19 15 -19 6 1 -5 11 -12 27 -15
35 -5 13 -6 13 -6 -1z"/>
<path d="M4497 274 c-10 -10 -9 -54 2 -54 12 0 22 43 13 52 -5 5 -11 5 -15 2z"/>
<path d="M4727 262 c-24 -2 -37 -8 -34 -15 2 -7 13 -11 24 -9 12 2 24 -6 33
-23 15 -28 35 -33 43 -11 4 9 -2 17 -14 21 -21 7 -25 21 -7 27 21 7 -6 13 -45
10z"/>
<path d="M4800 240 c0 -5 5 -10 10 -10 6 0 10 5 10 10 0 6 -4 10 -10 10 -5 0
-10 -4 -10 -10z"/>
<path d="M8316 241 c-4 -6 -3 -18 2 -27 8 -15 10 -14 16 2 8 20 -8 42 -18 25z"/>
<path d="M4604 225 c-4 -8 -4 -28 -2 -44 3 -21 1 -28 -9 -24 -16 6 -17 -9 -2
-24 12 -12 3 -37 -11 -28 -10 6 -20 -29 -20 -72 0 -30 3 -33 29 -33 28 0 29 1
37 77 4 43 7 84 5 90 -1 7 3 21 8 31 7 14 5 21 -10 30 -16 10 -21 10 -25 -3z"/>
<path d="M4525 198 c-2 -13 -4 -34 -4 -48 0 -29 -5 -61 -20 -109 -12 -38 -9
-46 13 -38 14 5 21 41 32 160 4 37 2 57 -5 57 -6 0 -13 -10 -16 -22z"/>
<path d="M4690 204 c0 -8 5 -12 10 -9 6 4 8 11 5 16 -9 14 -15 11 -15 -7z"/>
<path d="M4489 195 c-1 -6 -1 -13 -1 -16 0 -3 -3 -21 -7 -41 -5 -20 -5 -42 0
-49 6 -10 9 -6 9 13 0 15 5 39 12 53 9 19 9 28 0 37 -7 7 -13 8 -13 3z"/>
<path d="M4733 169 c-17 -17 -16 -29 3 -51 16 -16 16 -18 0 -24 -9 -3 -16 -10
-16 -16 0 -5 5 -6 11 -2 8 4 9 0 4 -15 -7 -24 2 -61 16 -61 10 0 11 74 1 138
-6 35 -9 41 -19 31z"/>
<path d="M4680 96 c0 -35 -3 -71 -6 -80 -4 -11 -1 -16 10 -16 13 0 15 13 13
80 -2 95 -17 108 -17 16z"/>
<path d="M4791 114 c0 -11 3 -14 6 -6 3 7 2 16 -1 19 -3 4 -6 -2 -5 -13z"/>
<path d="M8210 120 c0 -5 5 -10 11 -10 5 0 7 5 4 10 -3 6 -8 10 -11 10 -2 0
-4 -4 -4 -10z"/>
<path d="M4640 110 c0 -5 5 -10 10 -10 6 0 10 5 10 10 0 6 -4 10 -10 10 -5 0
-10 -4 -10 -10z"/>
<path d="M8350 110 c0 -5 5 -10 11 -10 5 0 7 5 4 10 -3 6 -8 10 -11 10 -2 0
-4 -4 -4 -10z"/>
<path d="M8220 83 c1 -5 8 -19 16 -33 8 -14 13 -17 10 -7 -3 10 -6 25 -6 33 0
8 -4 14 -10 14 -5 0 -10 -3 -10 -7z"/>
<path d="M4461 44 c0 -11 3 -14 6 -6 3 7 2 16 -1 19 -3 4 -6 -2 -5 -13z"/>
</g>
</svg>
